G75*
%MOIN*%
%OFA0B0*%
%FSLAX25Y25*%
%IPPOS*%
%LPD*%
%AMOC8*
5,1,8,0,0,1.08239X$1,22.5*
%
%ADD10C,0.00354*%
%ADD11C,0.00353*%
%ADD12C,0.00357*%
%ADD13C,0.00318*%
%ADD14C,0.00334*%
%ADD15C,0.00324*%
%ADD16C,0.00330*%
D10*
X0157389Y0150159D02*
X0160965Y0150159D01*
X0157389Y0150159D02*
X0157389Y0153341D01*
X0160965Y0153341D01*
X0160965Y0150159D01*
X0160965Y0150512D02*
X0157389Y0150512D01*
X0157389Y0150865D02*
X0160965Y0150865D01*
X0160965Y0151218D02*
X0157389Y0151218D01*
X0157389Y0151571D02*
X0160965Y0151571D01*
X0160965Y0151924D02*
X0157389Y0151924D01*
X0157389Y0152277D02*
X0160965Y0152277D01*
X0160965Y0152630D02*
X0157389Y0152630D01*
X0157389Y0152983D02*
X0160965Y0152983D01*
X0160965Y0153336D02*
X0157389Y0153336D01*
X0164082Y0150159D02*
X0167658Y0150159D01*
X0164082Y0150159D02*
X0164082Y0153341D01*
X0167658Y0153341D01*
X0167658Y0150159D01*
X0167658Y0150512D02*
X0164082Y0150512D01*
X0164082Y0150865D02*
X0167658Y0150865D01*
X0167658Y0151218D02*
X0164082Y0151218D01*
X0164082Y0151571D02*
X0167658Y0151571D01*
X0167658Y0151924D02*
X0164082Y0151924D01*
X0164082Y0152277D02*
X0167658Y0152277D01*
X0167658Y0152630D02*
X0164082Y0152630D01*
X0164082Y0152983D02*
X0167658Y0152983D01*
X0167658Y0153336D02*
X0164082Y0153336D01*
X0175389Y0189159D02*
X0178965Y0189159D01*
X0175389Y0189159D02*
X0175389Y0192341D01*
X0178965Y0192341D01*
X0178965Y0189159D01*
X0178965Y0189512D02*
X0175389Y0189512D01*
X0175389Y0189865D02*
X0178965Y0189865D01*
X0178965Y0190218D02*
X0175389Y0190218D01*
X0175389Y0190571D02*
X0178965Y0190571D01*
X0178965Y0190924D02*
X0175389Y0190924D01*
X0175389Y0191277D02*
X0178965Y0191277D01*
X0178965Y0191630D02*
X0175389Y0191630D01*
X0175389Y0191983D02*
X0178965Y0191983D01*
X0178965Y0192336D02*
X0175389Y0192336D01*
X0182082Y0189159D02*
X0185658Y0189159D01*
X0182082Y0189159D02*
X0182082Y0192341D01*
X0185658Y0192341D01*
X0185658Y0189159D01*
X0185658Y0189512D02*
X0182082Y0189512D01*
X0182082Y0189865D02*
X0185658Y0189865D01*
X0185658Y0190218D02*
X0182082Y0190218D01*
X0182082Y0190571D02*
X0185658Y0190571D01*
X0185658Y0190924D02*
X0182082Y0190924D01*
X0182082Y0191277D02*
X0185658Y0191277D01*
X0185658Y0191630D02*
X0182082Y0191630D01*
X0182082Y0191983D02*
X0185658Y0191983D01*
X0185658Y0192336D02*
X0182082Y0192336D01*
X0181882Y0199259D02*
X0185458Y0199259D01*
X0181882Y0199259D02*
X0181882Y0202441D01*
X0185458Y0202441D01*
X0185458Y0199259D01*
X0185458Y0199612D02*
X0181882Y0199612D01*
X0181882Y0199965D02*
X0185458Y0199965D01*
X0185458Y0200318D02*
X0181882Y0200318D01*
X0181882Y0200671D02*
X0185458Y0200671D01*
X0185458Y0201024D02*
X0181882Y0201024D01*
X0181882Y0201377D02*
X0185458Y0201377D01*
X0185458Y0201730D02*
X0181882Y0201730D01*
X0181882Y0202083D02*
X0185458Y0202083D01*
X0185458Y0202436D02*
X0181882Y0202436D01*
X0178765Y0199259D02*
X0175189Y0199259D01*
X0175189Y0202441D01*
X0178765Y0202441D01*
X0178765Y0199259D01*
X0178765Y0199612D02*
X0175189Y0199612D01*
X0175189Y0199965D02*
X0178765Y0199965D01*
X0178765Y0200318D02*
X0175189Y0200318D01*
X0175189Y0200671D02*
X0178765Y0200671D01*
X0178765Y0201024D02*
X0175189Y0201024D01*
X0175189Y0201377D02*
X0178765Y0201377D01*
X0178765Y0201730D02*
X0175189Y0201730D01*
X0175189Y0202083D02*
X0178765Y0202083D01*
X0178765Y0202436D02*
X0175189Y0202436D01*
X0174389Y0209159D02*
X0177965Y0209159D01*
X0174389Y0209159D02*
X0174389Y0212341D01*
X0177965Y0212341D01*
X0177965Y0209159D01*
X0177965Y0209512D02*
X0174389Y0209512D01*
X0174389Y0209865D02*
X0177965Y0209865D01*
X0177965Y0210218D02*
X0174389Y0210218D01*
X0174389Y0210571D02*
X0177965Y0210571D01*
X0177965Y0210924D02*
X0174389Y0210924D01*
X0174389Y0211277D02*
X0177965Y0211277D01*
X0177965Y0211630D02*
X0174389Y0211630D01*
X0174389Y0211983D02*
X0177965Y0211983D01*
X0177965Y0212336D02*
X0174389Y0212336D01*
X0181082Y0209159D02*
X0184658Y0209159D01*
X0181082Y0209159D02*
X0181082Y0212341D01*
X0184658Y0212341D01*
X0184658Y0209159D01*
X0184658Y0209512D02*
X0181082Y0209512D01*
X0181082Y0209865D02*
X0184658Y0209865D01*
X0184658Y0210218D02*
X0181082Y0210218D01*
X0181082Y0210571D02*
X0184658Y0210571D01*
X0184658Y0210924D02*
X0181082Y0210924D01*
X0181082Y0211277D02*
X0184658Y0211277D01*
X0184658Y0211630D02*
X0181082Y0211630D01*
X0181082Y0211983D02*
X0184658Y0211983D01*
X0184658Y0212336D02*
X0181082Y0212336D01*
X0161933Y0213884D02*
X0161933Y0210308D01*
X0161933Y0213884D02*
X0165115Y0213884D01*
X0165115Y0210308D01*
X0161933Y0210308D01*
X0161933Y0210661D02*
X0165115Y0210661D01*
X0165115Y0211014D02*
X0161933Y0211014D01*
X0161933Y0211367D02*
X0165115Y0211367D01*
X0165115Y0211720D02*
X0161933Y0211720D01*
X0161933Y0212073D02*
X0165115Y0212073D01*
X0165115Y0212426D02*
X0161933Y0212426D01*
X0161933Y0212779D02*
X0165115Y0212779D01*
X0165115Y0213132D02*
X0161933Y0213132D01*
X0161933Y0213485D02*
X0165115Y0213485D01*
X0165115Y0213838D02*
X0161933Y0213838D01*
X0161933Y0207192D02*
X0161933Y0203616D01*
X0161933Y0207192D02*
X0165115Y0207192D01*
X0165115Y0203616D01*
X0161933Y0203616D01*
X0161933Y0203969D02*
X0165115Y0203969D01*
X0165115Y0204322D02*
X0161933Y0204322D01*
X0161933Y0204675D02*
X0165115Y0204675D01*
X0165115Y0205028D02*
X0161933Y0205028D01*
X0161933Y0205381D02*
X0165115Y0205381D01*
X0165115Y0205734D02*
X0161933Y0205734D01*
X0161933Y0206087D02*
X0165115Y0206087D01*
X0165115Y0206440D02*
X0161933Y0206440D01*
X0161933Y0206793D02*
X0165115Y0206793D01*
X0165115Y0207146D02*
X0161933Y0207146D01*
X0139933Y0216616D02*
X0139933Y0220192D01*
X0143115Y0220192D01*
X0143115Y0216616D01*
X0139933Y0216616D01*
X0139933Y0216969D02*
X0143115Y0216969D01*
X0143115Y0217322D02*
X0139933Y0217322D01*
X0139933Y0217675D02*
X0143115Y0217675D01*
X0143115Y0218028D02*
X0139933Y0218028D01*
X0139933Y0218381D02*
X0143115Y0218381D01*
X0143115Y0218734D02*
X0139933Y0218734D01*
X0139933Y0219087D02*
X0143115Y0219087D01*
X0143115Y0219440D02*
X0139933Y0219440D01*
X0139933Y0219793D02*
X0143115Y0219793D01*
X0143115Y0220146D02*
X0139933Y0220146D01*
X0139933Y0223308D02*
X0139933Y0226884D01*
X0143115Y0226884D01*
X0143115Y0223308D01*
X0139933Y0223308D01*
X0139933Y0223661D02*
X0143115Y0223661D01*
X0143115Y0224014D02*
X0139933Y0224014D01*
X0139933Y0224367D02*
X0143115Y0224367D01*
X0143115Y0224720D02*
X0139933Y0224720D01*
X0139933Y0225073D02*
X0143115Y0225073D01*
X0143115Y0225426D02*
X0139933Y0225426D01*
X0139933Y0225779D02*
X0143115Y0225779D01*
X0143115Y0226132D02*
X0139933Y0226132D01*
X0139933Y0226485D02*
X0143115Y0226485D01*
X0143115Y0226838D02*
X0139933Y0226838D01*
X0149115Y0244616D02*
X0149115Y0248192D01*
X0149115Y0244616D02*
X0145933Y0244616D01*
X0145933Y0248192D01*
X0149115Y0248192D01*
X0149115Y0244969D02*
X0145933Y0244969D01*
X0145933Y0245322D02*
X0149115Y0245322D01*
X0149115Y0245675D02*
X0145933Y0245675D01*
X0145933Y0246028D02*
X0149115Y0246028D01*
X0149115Y0246381D02*
X0145933Y0246381D01*
X0145933Y0246734D02*
X0149115Y0246734D01*
X0149115Y0247087D02*
X0145933Y0247087D01*
X0145933Y0247440D02*
X0149115Y0247440D01*
X0149115Y0247793D02*
X0145933Y0247793D01*
X0145933Y0248146D02*
X0149115Y0248146D01*
X0149115Y0251308D02*
X0149115Y0254884D01*
X0149115Y0251308D02*
X0145933Y0251308D01*
X0145933Y0254884D01*
X0149115Y0254884D01*
X0149115Y0251661D02*
X0145933Y0251661D01*
X0145933Y0252014D02*
X0149115Y0252014D01*
X0149115Y0252367D02*
X0145933Y0252367D01*
X0145933Y0252720D02*
X0149115Y0252720D01*
X0149115Y0253073D02*
X0145933Y0253073D01*
X0145933Y0253426D02*
X0149115Y0253426D01*
X0149115Y0253779D02*
X0145933Y0253779D01*
X0145933Y0254132D02*
X0149115Y0254132D01*
X0149115Y0254485D02*
X0145933Y0254485D01*
X0145933Y0254838D02*
X0149115Y0254838D01*
X0149082Y0268341D02*
X0152658Y0268341D01*
X0152658Y0265159D01*
X0149082Y0265159D01*
X0149082Y0268341D01*
X0149082Y0265512D02*
X0152658Y0265512D01*
X0152658Y0265865D02*
X0149082Y0265865D01*
X0149082Y0266218D02*
X0152658Y0266218D01*
X0152658Y0266571D02*
X0149082Y0266571D01*
X0149082Y0266924D02*
X0152658Y0266924D01*
X0152658Y0267277D02*
X0149082Y0267277D01*
X0149082Y0267630D02*
X0152658Y0267630D01*
X0152658Y0267983D02*
X0149082Y0267983D01*
X0149082Y0268336D02*
X0152658Y0268336D01*
X0145965Y0268341D02*
X0142389Y0268341D01*
X0145965Y0268341D02*
X0145965Y0265159D01*
X0142389Y0265159D01*
X0142389Y0268341D01*
X0142389Y0265512D02*
X0145965Y0265512D01*
X0145965Y0265865D02*
X0142389Y0265865D01*
X0142389Y0266218D02*
X0145965Y0266218D01*
X0145965Y0266571D02*
X0142389Y0266571D01*
X0142389Y0266924D02*
X0145965Y0266924D01*
X0145965Y0267277D02*
X0142389Y0267277D01*
X0142389Y0267630D02*
X0145965Y0267630D01*
X0145965Y0267983D02*
X0142389Y0267983D01*
X0142389Y0268336D02*
X0145965Y0268336D01*
X0197389Y0257159D02*
X0200965Y0257159D01*
X0197389Y0257159D02*
X0197389Y0260341D01*
X0200965Y0260341D01*
X0200965Y0257159D01*
X0200965Y0257512D02*
X0197389Y0257512D01*
X0197389Y0257865D02*
X0200965Y0257865D01*
X0200965Y0258218D02*
X0197389Y0258218D01*
X0197389Y0258571D02*
X0200965Y0258571D01*
X0200965Y0258924D02*
X0197389Y0258924D01*
X0197389Y0259277D02*
X0200965Y0259277D01*
X0200965Y0259630D02*
X0197389Y0259630D01*
X0197389Y0259983D02*
X0200965Y0259983D01*
X0200965Y0260336D02*
X0197389Y0260336D01*
X0204082Y0257159D02*
X0207658Y0257159D01*
X0204082Y0257159D02*
X0204082Y0260341D01*
X0207658Y0260341D01*
X0207658Y0257159D01*
X0207658Y0257512D02*
X0204082Y0257512D01*
X0204082Y0257865D02*
X0207658Y0257865D01*
X0207658Y0258218D02*
X0204082Y0258218D01*
X0204082Y0258571D02*
X0207658Y0258571D01*
X0207658Y0258924D02*
X0204082Y0258924D01*
X0204082Y0259277D02*
X0207658Y0259277D01*
X0207658Y0259630D02*
X0204082Y0259630D01*
X0204082Y0259983D02*
X0207658Y0259983D01*
X0207658Y0260336D02*
X0204082Y0260336D01*
X0203389Y0275159D02*
X0206965Y0275159D01*
X0203389Y0275159D02*
X0203389Y0278341D01*
X0206965Y0278341D01*
X0206965Y0275159D01*
X0206965Y0275512D02*
X0203389Y0275512D01*
X0203389Y0275865D02*
X0206965Y0275865D01*
X0206965Y0276218D02*
X0203389Y0276218D01*
X0203389Y0276571D02*
X0206965Y0276571D01*
X0206965Y0276924D02*
X0203389Y0276924D01*
X0203389Y0277277D02*
X0206965Y0277277D01*
X0206965Y0277630D02*
X0203389Y0277630D01*
X0203389Y0277983D02*
X0206965Y0277983D01*
X0206965Y0278336D02*
X0203389Y0278336D01*
X0210082Y0275159D02*
X0213658Y0275159D01*
X0210082Y0275159D02*
X0210082Y0278341D01*
X0213658Y0278341D01*
X0213658Y0275159D01*
X0213658Y0275512D02*
X0210082Y0275512D01*
X0210082Y0275865D02*
X0213658Y0275865D01*
X0213658Y0276218D02*
X0210082Y0276218D01*
X0210082Y0276571D02*
X0213658Y0276571D01*
X0213658Y0276924D02*
X0210082Y0276924D01*
X0210082Y0277277D02*
X0213658Y0277277D01*
X0213658Y0277630D02*
X0210082Y0277630D01*
X0210082Y0277983D02*
X0213658Y0277983D01*
X0213658Y0278336D02*
X0210082Y0278336D01*
X0259389Y0262159D02*
X0262965Y0262159D01*
X0259389Y0262159D02*
X0259389Y0265341D01*
X0262965Y0265341D01*
X0262965Y0262159D01*
X0262965Y0262512D02*
X0259389Y0262512D01*
X0259389Y0262865D02*
X0262965Y0262865D01*
X0262965Y0263218D02*
X0259389Y0263218D01*
X0259389Y0263571D02*
X0262965Y0263571D01*
X0262965Y0263924D02*
X0259389Y0263924D01*
X0259389Y0264277D02*
X0262965Y0264277D01*
X0262965Y0264630D02*
X0259389Y0264630D01*
X0259389Y0264983D02*
X0262965Y0264983D01*
X0262965Y0265336D02*
X0259389Y0265336D01*
X0266082Y0262159D02*
X0269658Y0262159D01*
X0266082Y0262159D02*
X0266082Y0265341D01*
X0269658Y0265341D01*
X0269658Y0262159D01*
X0269658Y0262512D02*
X0266082Y0262512D01*
X0266082Y0262865D02*
X0269658Y0262865D01*
X0269658Y0263218D02*
X0266082Y0263218D01*
X0266082Y0263571D02*
X0269658Y0263571D01*
X0269658Y0263924D02*
X0266082Y0263924D01*
X0266082Y0264277D02*
X0269658Y0264277D01*
X0269658Y0264630D02*
X0266082Y0264630D01*
X0266082Y0264983D02*
X0269658Y0264983D01*
X0269658Y0265336D02*
X0266082Y0265336D01*
X0282389Y0254159D02*
X0285965Y0254159D01*
X0282389Y0254159D02*
X0282389Y0257341D01*
X0285965Y0257341D01*
X0285965Y0254159D01*
X0285965Y0254512D02*
X0282389Y0254512D01*
X0282389Y0254865D02*
X0285965Y0254865D01*
X0285965Y0255218D02*
X0282389Y0255218D01*
X0282389Y0255571D02*
X0285965Y0255571D01*
X0285965Y0255924D02*
X0282389Y0255924D01*
X0282389Y0256277D02*
X0285965Y0256277D01*
X0285965Y0256630D02*
X0282389Y0256630D01*
X0282389Y0256983D02*
X0285965Y0256983D01*
X0285965Y0257336D02*
X0282389Y0257336D01*
X0289082Y0254159D02*
X0292658Y0254159D01*
X0289082Y0254159D02*
X0289082Y0257341D01*
X0292658Y0257341D01*
X0292658Y0254159D01*
X0292658Y0254512D02*
X0289082Y0254512D01*
X0289082Y0254865D02*
X0292658Y0254865D01*
X0292658Y0255218D02*
X0289082Y0255218D01*
X0289082Y0255571D02*
X0292658Y0255571D01*
X0292658Y0255924D02*
X0289082Y0255924D01*
X0289082Y0256277D02*
X0292658Y0256277D01*
X0292658Y0256630D02*
X0289082Y0256630D01*
X0289082Y0256983D02*
X0292658Y0256983D01*
X0292658Y0257336D02*
X0289082Y0257336D01*
X0281415Y0242284D02*
X0281415Y0238708D01*
X0278233Y0238708D01*
X0278233Y0242284D01*
X0281415Y0242284D01*
X0281415Y0239061D02*
X0278233Y0239061D01*
X0278233Y0239414D02*
X0281415Y0239414D01*
X0281415Y0239767D02*
X0278233Y0239767D01*
X0278233Y0240120D02*
X0281415Y0240120D01*
X0281415Y0240473D02*
X0278233Y0240473D01*
X0278233Y0240826D02*
X0281415Y0240826D01*
X0281415Y0241179D02*
X0278233Y0241179D01*
X0278233Y0241532D02*
X0281415Y0241532D01*
X0281415Y0241885D02*
X0278233Y0241885D01*
X0278233Y0242238D02*
X0281415Y0242238D01*
X0281415Y0235592D02*
X0281415Y0232016D01*
X0278233Y0232016D01*
X0278233Y0235592D01*
X0281415Y0235592D01*
X0281415Y0232369D02*
X0278233Y0232369D01*
X0278233Y0232722D02*
X0281415Y0232722D01*
X0281415Y0233075D02*
X0278233Y0233075D01*
X0278233Y0233428D02*
X0281415Y0233428D01*
X0281415Y0233781D02*
X0278233Y0233781D01*
X0278233Y0234134D02*
X0281415Y0234134D01*
X0281415Y0234487D02*
X0278233Y0234487D01*
X0278233Y0234840D02*
X0281415Y0234840D01*
X0281415Y0235193D02*
X0278233Y0235193D01*
X0278233Y0235546D02*
X0281415Y0235546D01*
X0281658Y0229341D02*
X0278082Y0229341D01*
X0281658Y0229341D02*
X0281658Y0226159D01*
X0278082Y0226159D01*
X0278082Y0229341D01*
X0278082Y0226512D02*
X0281658Y0226512D01*
X0281658Y0226865D02*
X0278082Y0226865D01*
X0278082Y0227218D02*
X0281658Y0227218D01*
X0281658Y0227571D02*
X0278082Y0227571D01*
X0278082Y0227924D02*
X0281658Y0227924D01*
X0281658Y0228277D02*
X0278082Y0228277D01*
X0278082Y0228630D02*
X0281658Y0228630D01*
X0281658Y0228983D02*
X0278082Y0228983D01*
X0278082Y0229336D02*
X0281658Y0229336D01*
X0274965Y0229341D02*
X0271389Y0229341D01*
X0274965Y0229341D02*
X0274965Y0226159D01*
X0271389Y0226159D01*
X0271389Y0229341D01*
X0271389Y0226512D02*
X0274965Y0226512D01*
X0274965Y0226865D02*
X0271389Y0226865D01*
X0271389Y0227218D02*
X0274965Y0227218D01*
X0274965Y0227571D02*
X0271389Y0227571D01*
X0271389Y0227924D02*
X0274965Y0227924D01*
X0274965Y0228277D02*
X0271389Y0228277D01*
X0271389Y0228630D02*
X0274965Y0228630D01*
X0274965Y0228983D02*
X0271389Y0228983D01*
X0271389Y0229336D02*
X0274965Y0229336D01*
X0274965Y0219641D02*
X0271389Y0219641D01*
X0274965Y0219641D02*
X0274965Y0216459D01*
X0271389Y0216459D01*
X0271389Y0219641D01*
X0271389Y0216812D02*
X0274965Y0216812D01*
X0274965Y0217165D02*
X0271389Y0217165D01*
X0271389Y0217518D02*
X0274965Y0217518D01*
X0274965Y0217871D02*
X0271389Y0217871D01*
X0271389Y0218224D02*
X0274965Y0218224D01*
X0274965Y0218577D02*
X0271389Y0218577D01*
X0271389Y0218930D02*
X0274965Y0218930D01*
X0274965Y0219283D02*
X0271389Y0219283D01*
X0271389Y0219636D02*
X0274965Y0219636D01*
X0278082Y0219641D02*
X0281658Y0219641D01*
X0281658Y0216459D01*
X0278082Y0216459D01*
X0278082Y0219641D01*
X0278082Y0216812D02*
X0281658Y0216812D01*
X0281658Y0217165D02*
X0278082Y0217165D01*
X0278082Y0217518D02*
X0281658Y0217518D01*
X0281658Y0217871D02*
X0278082Y0217871D01*
X0278082Y0218224D02*
X0281658Y0218224D01*
X0281658Y0218577D02*
X0278082Y0218577D01*
X0278082Y0218930D02*
X0281658Y0218930D01*
X0281658Y0219283D02*
X0278082Y0219283D01*
X0278082Y0219636D02*
X0281658Y0219636D01*
X0236658Y0202341D02*
X0233082Y0202341D01*
X0236658Y0202341D02*
X0236658Y0199159D01*
X0233082Y0199159D01*
X0233082Y0202341D01*
X0233082Y0199512D02*
X0236658Y0199512D01*
X0236658Y0199865D02*
X0233082Y0199865D01*
X0233082Y0200218D02*
X0236658Y0200218D01*
X0236658Y0200571D02*
X0233082Y0200571D01*
X0233082Y0200924D02*
X0236658Y0200924D01*
X0236658Y0201277D02*
X0233082Y0201277D01*
X0233082Y0201630D02*
X0236658Y0201630D01*
X0236658Y0201983D02*
X0233082Y0201983D01*
X0233082Y0202336D02*
X0236658Y0202336D01*
X0229965Y0202341D02*
X0226389Y0202341D01*
X0229965Y0202341D02*
X0229965Y0199159D01*
X0226389Y0199159D01*
X0226389Y0202341D01*
X0226389Y0199512D02*
X0229965Y0199512D01*
X0229965Y0199865D02*
X0226389Y0199865D01*
X0226389Y0200218D02*
X0229965Y0200218D01*
X0229965Y0200571D02*
X0226389Y0200571D01*
X0226389Y0200924D02*
X0229965Y0200924D01*
X0229965Y0201277D02*
X0226389Y0201277D01*
X0226389Y0201630D02*
X0229965Y0201630D01*
X0229965Y0201983D02*
X0226389Y0201983D01*
X0226389Y0202336D02*
X0229965Y0202336D01*
X0228965Y0155341D02*
X0225389Y0155341D01*
X0228965Y0155341D02*
X0228965Y0152159D01*
X0225389Y0152159D01*
X0225389Y0155341D01*
X0225389Y0152512D02*
X0228965Y0152512D01*
X0228965Y0152865D02*
X0225389Y0152865D01*
X0225389Y0153218D02*
X0228965Y0153218D01*
X0228965Y0153571D02*
X0225389Y0153571D01*
X0225389Y0153924D02*
X0228965Y0153924D01*
X0228965Y0154277D02*
X0225389Y0154277D01*
X0225389Y0154630D02*
X0228965Y0154630D01*
X0228965Y0154983D02*
X0225389Y0154983D01*
X0225389Y0155336D02*
X0228965Y0155336D01*
X0232082Y0155341D02*
X0235658Y0155341D01*
X0235658Y0152159D01*
X0232082Y0152159D01*
X0232082Y0155341D01*
X0232082Y0152512D02*
X0235658Y0152512D01*
X0235658Y0152865D02*
X0232082Y0152865D01*
X0232082Y0153218D02*
X0235658Y0153218D01*
X0235658Y0153571D02*
X0232082Y0153571D01*
X0232082Y0153924D02*
X0235658Y0153924D01*
X0235658Y0154277D02*
X0232082Y0154277D01*
X0232082Y0154630D02*
X0235658Y0154630D01*
X0235658Y0154983D02*
X0232082Y0154983D01*
X0232082Y0155336D02*
X0235658Y0155336D01*
X0275389Y0154159D02*
X0278965Y0154159D01*
X0275389Y0154159D02*
X0275389Y0157341D01*
X0278965Y0157341D01*
X0278965Y0154159D01*
X0278965Y0154512D02*
X0275389Y0154512D01*
X0275389Y0154865D02*
X0278965Y0154865D01*
X0278965Y0155218D02*
X0275389Y0155218D01*
X0275389Y0155571D02*
X0278965Y0155571D01*
X0278965Y0155924D02*
X0275389Y0155924D01*
X0275389Y0156277D02*
X0278965Y0156277D01*
X0278965Y0156630D02*
X0275389Y0156630D01*
X0275389Y0156983D02*
X0278965Y0156983D01*
X0278965Y0157336D02*
X0275389Y0157336D01*
X0282082Y0154159D02*
X0285658Y0154159D01*
X0282082Y0154159D02*
X0282082Y0157341D01*
X0285658Y0157341D01*
X0285658Y0154159D01*
X0285658Y0154512D02*
X0282082Y0154512D01*
X0282082Y0154865D02*
X0285658Y0154865D01*
X0285658Y0155218D02*
X0282082Y0155218D01*
X0282082Y0155571D02*
X0285658Y0155571D01*
X0285658Y0155924D02*
X0282082Y0155924D01*
X0282082Y0156277D02*
X0285658Y0156277D01*
X0285658Y0156630D02*
X0282082Y0156630D01*
X0282082Y0156983D02*
X0285658Y0156983D01*
X0285658Y0157336D02*
X0282082Y0157336D01*
X0316389Y0174341D02*
X0319965Y0174341D01*
X0319965Y0171159D01*
X0316389Y0171159D01*
X0316389Y0174341D01*
X0316389Y0171512D02*
X0319965Y0171512D01*
X0319965Y0171865D02*
X0316389Y0171865D01*
X0316389Y0172218D02*
X0319965Y0172218D01*
X0319965Y0172571D02*
X0316389Y0172571D01*
X0316389Y0172924D02*
X0319965Y0172924D01*
X0319965Y0173277D02*
X0316389Y0173277D01*
X0316389Y0173630D02*
X0319965Y0173630D01*
X0319965Y0173983D02*
X0316389Y0173983D01*
X0316389Y0174336D02*
X0319965Y0174336D01*
X0323082Y0174341D02*
X0326658Y0174341D01*
X0326658Y0171159D01*
X0323082Y0171159D01*
X0323082Y0174341D01*
X0323082Y0171512D02*
X0326658Y0171512D01*
X0326658Y0171865D02*
X0323082Y0171865D01*
X0323082Y0172218D02*
X0326658Y0172218D01*
X0326658Y0172571D02*
X0323082Y0172571D01*
X0323082Y0172924D02*
X0326658Y0172924D01*
X0326658Y0173277D02*
X0323082Y0173277D01*
X0323082Y0173630D02*
X0326658Y0173630D01*
X0326658Y0173983D02*
X0323082Y0173983D01*
X0323082Y0174336D02*
X0326658Y0174336D01*
X0349389Y0194159D02*
X0352965Y0194159D01*
X0349389Y0194159D02*
X0349389Y0197341D01*
X0352965Y0197341D01*
X0352965Y0194159D01*
X0352965Y0194512D02*
X0349389Y0194512D01*
X0349389Y0194865D02*
X0352965Y0194865D01*
X0352965Y0195218D02*
X0349389Y0195218D01*
X0349389Y0195571D02*
X0352965Y0195571D01*
X0352965Y0195924D02*
X0349389Y0195924D01*
X0349389Y0196277D02*
X0352965Y0196277D01*
X0352965Y0196630D02*
X0349389Y0196630D01*
X0349389Y0196983D02*
X0352965Y0196983D01*
X0352965Y0197336D02*
X0349389Y0197336D01*
X0356082Y0194159D02*
X0359658Y0194159D01*
X0356082Y0194159D02*
X0356082Y0197341D01*
X0359658Y0197341D01*
X0359658Y0194159D01*
X0359658Y0194512D02*
X0356082Y0194512D01*
X0356082Y0194865D02*
X0359658Y0194865D01*
X0359658Y0195218D02*
X0356082Y0195218D01*
X0356082Y0195571D02*
X0359658Y0195571D01*
X0359658Y0195924D02*
X0356082Y0195924D01*
X0356082Y0196277D02*
X0359658Y0196277D01*
X0359658Y0196630D02*
X0356082Y0196630D01*
X0356082Y0196983D02*
X0359658Y0196983D01*
X0359658Y0197336D02*
X0356082Y0197336D01*
X0356082Y0213159D02*
X0359658Y0213159D01*
X0356082Y0213159D02*
X0356082Y0216341D01*
X0359658Y0216341D01*
X0359658Y0213159D01*
X0359658Y0213512D02*
X0356082Y0213512D01*
X0356082Y0213865D02*
X0359658Y0213865D01*
X0359658Y0214218D02*
X0356082Y0214218D01*
X0356082Y0214571D02*
X0359658Y0214571D01*
X0359658Y0214924D02*
X0356082Y0214924D01*
X0356082Y0215277D02*
X0359658Y0215277D01*
X0359658Y0215630D02*
X0356082Y0215630D01*
X0356082Y0215983D02*
X0359658Y0215983D01*
X0359658Y0216336D02*
X0356082Y0216336D01*
X0352965Y0213159D02*
X0349389Y0213159D01*
X0349389Y0216341D01*
X0352965Y0216341D01*
X0352965Y0213159D01*
X0352965Y0213512D02*
X0349389Y0213512D01*
X0349389Y0213865D02*
X0352965Y0213865D01*
X0352965Y0214218D02*
X0349389Y0214218D01*
X0349389Y0214571D02*
X0352965Y0214571D01*
X0352965Y0214924D02*
X0349389Y0214924D01*
X0349389Y0215277D02*
X0352965Y0215277D01*
X0352965Y0215630D02*
X0349389Y0215630D01*
X0349389Y0215983D02*
X0352965Y0215983D01*
X0352965Y0216336D02*
X0349389Y0216336D01*
X0349389Y0227341D02*
X0352965Y0227341D01*
X0352965Y0224159D01*
X0349389Y0224159D01*
X0349389Y0227341D01*
X0349389Y0224512D02*
X0352965Y0224512D01*
X0352965Y0224865D02*
X0349389Y0224865D01*
X0349389Y0225218D02*
X0352965Y0225218D01*
X0352965Y0225571D02*
X0349389Y0225571D01*
X0349389Y0225924D02*
X0352965Y0225924D01*
X0352965Y0226277D02*
X0349389Y0226277D01*
X0349389Y0226630D02*
X0352965Y0226630D01*
X0352965Y0226983D02*
X0349389Y0226983D01*
X0349389Y0227336D02*
X0352965Y0227336D01*
X0356082Y0227341D02*
X0359658Y0227341D01*
X0359658Y0224159D01*
X0356082Y0224159D01*
X0356082Y0227341D01*
X0356082Y0224512D02*
X0359658Y0224512D01*
X0359658Y0224865D02*
X0356082Y0224865D01*
X0356082Y0225218D02*
X0359658Y0225218D01*
X0359658Y0225571D02*
X0356082Y0225571D01*
X0356082Y0225924D02*
X0359658Y0225924D01*
X0359658Y0226277D02*
X0356082Y0226277D01*
X0356082Y0226630D02*
X0359658Y0226630D01*
X0359658Y0226983D02*
X0356082Y0226983D01*
X0356082Y0227336D02*
X0359658Y0227336D01*
X0359658Y0234159D02*
X0356082Y0234159D01*
X0356082Y0237341D01*
X0359658Y0237341D01*
X0359658Y0234159D01*
X0359658Y0234512D02*
X0356082Y0234512D01*
X0356082Y0234865D02*
X0359658Y0234865D01*
X0359658Y0235218D02*
X0356082Y0235218D01*
X0356082Y0235571D02*
X0359658Y0235571D01*
X0359658Y0235924D02*
X0356082Y0235924D01*
X0356082Y0236277D02*
X0359658Y0236277D01*
X0359658Y0236630D02*
X0356082Y0236630D01*
X0356082Y0236983D02*
X0359658Y0236983D01*
X0359658Y0237336D02*
X0356082Y0237336D01*
X0352965Y0234159D02*
X0349389Y0234159D01*
X0349389Y0237341D01*
X0352965Y0237341D01*
X0352965Y0234159D01*
X0352965Y0234512D02*
X0349389Y0234512D01*
X0349389Y0234865D02*
X0352965Y0234865D01*
X0352965Y0235218D02*
X0349389Y0235218D01*
X0349389Y0235571D02*
X0352965Y0235571D01*
X0352965Y0235924D02*
X0349389Y0235924D01*
X0349389Y0236277D02*
X0352965Y0236277D01*
X0352965Y0236630D02*
X0349389Y0236630D01*
X0349389Y0236983D02*
X0352965Y0236983D01*
X0352965Y0237336D02*
X0349389Y0237336D01*
X0458389Y0281159D02*
X0461965Y0281159D01*
X0458389Y0281159D02*
X0458389Y0284341D01*
X0461965Y0284341D01*
X0461965Y0281159D01*
X0461965Y0281512D02*
X0458389Y0281512D01*
X0458389Y0281865D02*
X0461965Y0281865D01*
X0461965Y0282218D02*
X0458389Y0282218D01*
X0458389Y0282571D02*
X0461965Y0282571D01*
X0461965Y0282924D02*
X0458389Y0282924D01*
X0458389Y0283277D02*
X0461965Y0283277D01*
X0461965Y0283630D02*
X0458389Y0283630D01*
X0458389Y0283983D02*
X0461965Y0283983D01*
X0461965Y0284336D02*
X0458389Y0284336D01*
X0465082Y0281159D02*
X0468658Y0281159D01*
X0465082Y0281159D02*
X0465082Y0284341D01*
X0468658Y0284341D01*
X0468658Y0281159D01*
X0468658Y0281512D02*
X0465082Y0281512D01*
X0465082Y0281865D02*
X0468658Y0281865D01*
X0468658Y0282218D02*
X0465082Y0282218D01*
X0465082Y0282571D02*
X0468658Y0282571D01*
X0468658Y0282924D02*
X0465082Y0282924D01*
X0465082Y0283277D02*
X0468658Y0283277D01*
X0468658Y0283630D02*
X0465082Y0283630D01*
X0465082Y0283983D02*
X0468658Y0283983D01*
X0468658Y0284336D02*
X0465082Y0284336D01*
D11*
X0399085Y0180355D02*
X0397081Y0180355D01*
X0397081Y0183145D01*
X0399085Y0183145D01*
X0399085Y0180355D01*
X0399085Y0180707D02*
X0397081Y0180707D01*
X0397081Y0181059D02*
X0399085Y0181059D01*
X0399085Y0181411D02*
X0397081Y0181411D01*
X0397081Y0181763D02*
X0399085Y0181763D01*
X0399085Y0182115D02*
X0397081Y0182115D01*
X0397081Y0182467D02*
X0399085Y0182467D01*
X0399085Y0182819D02*
X0397081Y0182819D01*
X0393967Y0180355D02*
X0391963Y0180355D01*
X0391963Y0183145D01*
X0393967Y0183145D01*
X0393967Y0180355D01*
X0393967Y0180707D02*
X0391963Y0180707D01*
X0391963Y0181059D02*
X0393967Y0181059D01*
X0393967Y0181411D02*
X0391963Y0181411D01*
X0391963Y0181763D02*
X0393967Y0181763D01*
X0393967Y0182115D02*
X0391963Y0182115D01*
X0391963Y0182467D02*
X0393967Y0182467D01*
X0393967Y0182819D02*
X0391963Y0182819D01*
D12*
X0322461Y0274420D02*
X0320067Y0274420D01*
X0320067Y0277206D01*
X0322461Y0277206D01*
X0322461Y0274420D01*
X0322461Y0274776D02*
X0320067Y0274776D01*
X0320067Y0275132D02*
X0322461Y0275132D01*
X0322461Y0275488D02*
X0320067Y0275488D01*
X0320067Y0275844D02*
X0322461Y0275844D01*
X0322461Y0276200D02*
X0320067Y0276200D01*
X0320067Y0276556D02*
X0322461Y0276556D01*
X0322461Y0276912D02*
X0320067Y0276912D01*
X0314980Y0274420D02*
X0312586Y0274420D01*
X0312586Y0277206D01*
X0314980Y0277206D01*
X0314980Y0274420D01*
X0314980Y0274776D02*
X0312586Y0274776D01*
X0312586Y0275132D02*
X0314980Y0275132D01*
X0314980Y0275488D02*
X0312586Y0275488D01*
X0312586Y0275844D02*
X0314980Y0275844D01*
X0314980Y0276200D02*
X0312586Y0276200D01*
X0312586Y0276556D02*
X0314980Y0276556D01*
X0314980Y0276912D02*
X0312586Y0276912D01*
X0316327Y0282688D02*
X0318721Y0282688D01*
X0316327Y0282688D02*
X0316327Y0285474D01*
X0318721Y0285474D01*
X0318721Y0282688D01*
X0318721Y0283044D02*
X0316327Y0283044D01*
X0316327Y0283400D02*
X0318721Y0283400D01*
X0318721Y0283756D02*
X0316327Y0283756D01*
X0316327Y0284112D02*
X0318721Y0284112D01*
X0318721Y0284468D02*
X0316327Y0284468D01*
X0316327Y0284824D02*
X0318721Y0284824D01*
X0318721Y0285180D02*
X0316327Y0285180D01*
D13*
X0135987Y0268866D02*
X0134541Y0268866D01*
X0134541Y0272872D01*
X0135987Y0272872D01*
X0135987Y0268866D01*
X0135987Y0269183D02*
X0134541Y0269183D01*
X0134541Y0269500D02*
X0135987Y0269500D01*
X0135987Y0269817D02*
X0134541Y0269817D01*
X0134541Y0270134D02*
X0135987Y0270134D01*
X0135987Y0270451D02*
X0134541Y0270451D01*
X0134541Y0270768D02*
X0135987Y0270768D01*
X0135987Y0271085D02*
X0134541Y0271085D01*
X0134541Y0271402D02*
X0135987Y0271402D01*
X0135987Y0271719D02*
X0134541Y0271719D01*
X0134541Y0272036D02*
X0135987Y0272036D01*
X0135987Y0272353D02*
X0134541Y0272353D01*
X0134541Y0272670D02*
X0135987Y0272670D01*
X0132247Y0272872D02*
X0130801Y0272872D01*
X0132247Y0272872D02*
X0132247Y0268866D01*
X0130801Y0268866D01*
X0130801Y0272872D01*
X0130801Y0269183D02*
X0132247Y0269183D01*
X0132247Y0269500D02*
X0130801Y0269500D01*
X0130801Y0269817D02*
X0132247Y0269817D01*
X0132247Y0270134D02*
X0130801Y0270134D01*
X0130801Y0270451D02*
X0132247Y0270451D01*
X0132247Y0270768D02*
X0130801Y0270768D01*
X0130801Y0271085D02*
X0132247Y0271085D01*
X0132247Y0271402D02*
X0130801Y0271402D01*
X0130801Y0271719D02*
X0132247Y0271719D01*
X0132247Y0272036D02*
X0130801Y0272036D01*
X0130801Y0272353D02*
X0132247Y0272353D01*
X0132247Y0272670D02*
X0130801Y0272670D01*
X0128506Y0268866D02*
X0127060Y0268866D01*
X0127060Y0272872D01*
X0128506Y0272872D01*
X0128506Y0268866D01*
X0128506Y0269183D02*
X0127060Y0269183D01*
X0127060Y0269500D02*
X0128506Y0269500D01*
X0128506Y0269817D02*
X0127060Y0269817D01*
X0127060Y0270134D02*
X0128506Y0270134D01*
X0128506Y0270451D02*
X0127060Y0270451D01*
X0127060Y0270768D02*
X0128506Y0270768D01*
X0128506Y0271085D02*
X0127060Y0271085D01*
X0127060Y0271402D02*
X0128506Y0271402D01*
X0128506Y0271719D02*
X0127060Y0271719D01*
X0127060Y0272036D02*
X0128506Y0272036D01*
X0128506Y0272353D02*
X0127060Y0272353D01*
X0127060Y0272670D02*
X0128506Y0272670D01*
X0128506Y0258628D02*
X0127060Y0258628D01*
X0127060Y0262634D01*
X0128506Y0262634D01*
X0128506Y0258628D01*
X0128506Y0258945D02*
X0127060Y0258945D01*
X0127060Y0259262D02*
X0128506Y0259262D01*
X0128506Y0259579D02*
X0127060Y0259579D01*
X0127060Y0259896D02*
X0128506Y0259896D01*
X0128506Y0260213D02*
X0127060Y0260213D01*
X0127060Y0260530D02*
X0128506Y0260530D01*
X0128506Y0260847D02*
X0127060Y0260847D01*
X0127060Y0261164D02*
X0128506Y0261164D01*
X0128506Y0261481D02*
X0127060Y0261481D01*
X0127060Y0261798D02*
X0128506Y0261798D01*
X0128506Y0262115D02*
X0127060Y0262115D01*
X0127060Y0262432D02*
X0128506Y0262432D01*
X0130801Y0258628D02*
X0132247Y0258628D01*
X0130801Y0258628D02*
X0130801Y0262634D01*
X0132247Y0262634D01*
X0132247Y0258628D01*
X0132247Y0258945D02*
X0130801Y0258945D01*
X0130801Y0259262D02*
X0132247Y0259262D01*
X0132247Y0259579D02*
X0130801Y0259579D01*
X0130801Y0259896D02*
X0132247Y0259896D01*
X0132247Y0260213D02*
X0130801Y0260213D01*
X0130801Y0260530D02*
X0132247Y0260530D01*
X0132247Y0260847D02*
X0130801Y0260847D01*
X0130801Y0261164D02*
X0132247Y0261164D01*
X0132247Y0261481D02*
X0130801Y0261481D01*
X0130801Y0261798D02*
X0132247Y0261798D01*
X0132247Y0262115D02*
X0130801Y0262115D01*
X0130801Y0262432D02*
X0132247Y0262432D01*
X0134541Y0258628D02*
X0135987Y0258628D01*
X0134541Y0258628D02*
X0134541Y0262634D01*
X0135987Y0262634D01*
X0135987Y0258628D01*
X0135987Y0258945D02*
X0134541Y0258945D01*
X0134541Y0259262D02*
X0135987Y0259262D01*
X0135987Y0259579D02*
X0134541Y0259579D01*
X0134541Y0259896D02*
X0135987Y0259896D01*
X0135987Y0260213D02*
X0134541Y0260213D01*
X0134541Y0260530D02*
X0135987Y0260530D01*
X0135987Y0260847D02*
X0134541Y0260847D01*
X0134541Y0261164D02*
X0135987Y0261164D01*
X0135987Y0261481D02*
X0134541Y0261481D01*
X0134541Y0261798D02*
X0135987Y0261798D01*
X0135987Y0262115D02*
X0134541Y0262115D01*
X0134541Y0262432D02*
X0135987Y0262432D01*
D14*
X0223324Y0252564D02*
X0223324Y0250936D01*
X0223324Y0252564D02*
X0231250Y0252564D01*
X0231250Y0250936D01*
X0223324Y0250936D01*
X0223324Y0251269D02*
X0231250Y0251269D01*
X0231250Y0251602D02*
X0223324Y0251602D01*
X0223324Y0251935D02*
X0231250Y0251935D01*
X0231250Y0252268D02*
X0223324Y0252268D01*
X0223324Y0247564D02*
X0223324Y0245936D01*
X0223324Y0247564D02*
X0231250Y0247564D01*
X0231250Y0245936D01*
X0223324Y0245936D01*
X0223324Y0246269D02*
X0231250Y0246269D01*
X0231250Y0246602D02*
X0223324Y0246602D01*
X0223324Y0246935D02*
X0231250Y0246935D01*
X0231250Y0247268D02*
X0223324Y0247268D01*
X0223324Y0242564D02*
X0223324Y0240936D01*
X0223324Y0242564D02*
X0231250Y0242564D01*
X0231250Y0240936D01*
X0223324Y0240936D01*
X0223324Y0241269D02*
X0231250Y0241269D01*
X0231250Y0241602D02*
X0223324Y0241602D01*
X0223324Y0241935D02*
X0231250Y0241935D01*
X0231250Y0242268D02*
X0223324Y0242268D01*
X0223324Y0237564D02*
X0223324Y0235936D01*
X0223324Y0237564D02*
X0231250Y0237564D01*
X0231250Y0235936D01*
X0223324Y0235936D01*
X0223324Y0236269D02*
X0231250Y0236269D01*
X0231250Y0236602D02*
X0223324Y0236602D01*
X0223324Y0236935D02*
X0231250Y0236935D01*
X0231250Y0237268D02*
X0223324Y0237268D01*
X0231250Y0232564D02*
X0231250Y0230936D01*
X0223324Y0230936D01*
X0223324Y0232564D01*
X0231250Y0232564D01*
X0231250Y0231269D02*
X0223324Y0231269D01*
X0223324Y0231602D02*
X0231250Y0231602D01*
X0231250Y0231935D02*
X0223324Y0231935D01*
X0223324Y0232268D02*
X0231250Y0232268D01*
X0231250Y0227564D02*
X0231250Y0225936D01*
X0223324Y0225936D01*
X0223324Y0227564D01*
X0231250Y0227564D01*
X0231250Y0226269D02*
X0223324Y0226269D01*
X0223324Y0226602D02*
X0231250Y0226602D01*
X0231250Y0226935D02*
X0223324Y0226935D01*
X0223324Y0227268D02*
X0231250Y0227268D01*
X0231250Y0222564D02*
X0231250Y0220936D01*
X0223324Y0220936D01*
X0223324Y0222564D01*
X0231250Y0222564D01*
X0231250Y0221269D02*
X0223324Y0221269D01*
X0223324Y0221602D02*
X0231250Y0221602D01*
X0231250Y0221935D02*
X0223324Y0221935D01*
X0223324Y0222268D02*
X0231250Y0222268D01*
X0243797Y0222564D02*
X0243797Y0220936D01*
X0243797Y0222564D02*
X0251723Y0222564D01*
X0251723Y0220936D01*
X0243797Y0220936D01*
X0243797Y0221269D02*
X0251723Y0221269D01*
X0251723Y0221602D02*
X0243797Y0221602D01*
X0243797Y0221935D02*
X0251723Y0221935D01*
X0251723Y0222268D02*
X0243797Y0222268D01*
X0243797Y0225936D02*
X0243797Y0227564D01*
X0251723Y0227564D01*
X0251723Y0225936D01*
X0243797Y0225936D01*
X0243797Y0226269D02*
X0251723Y0226269D01*
X0251723Y0226602D02*
X0243797Y0226602D01*
X0243797Y0226935D02*
X0251723Y0226935D01*
X0251723Y0227268D02*
X0243797Y0227268D01*
X0243797Y0230936D02*
X0243797Y0232564D01*
X0251723Y0232564D01*
X0251723Y0230936D01*
X0243797Y0230936D01*
X0243797Y0231269D02*
X0251723Y0231269D01*
X0251723Y0231602D02*
X0243797Y0231602D01*
X0243797Y0231935D02*
X0251723Y0231935D01*
X0251723Y0232268D02*
X0243797Y0232268D01*
X0243797Y0235936D02*
X0243797Y0237564D01*
X0251723Y0237564D01*
X0251723Y0235936D01*
X0243797Y0235936D01*
X0243797Y0236269D02*
X0251723Y0236269D01*
X0251723Y0236602D02*
X0243797Y0236602D01*
X0243797Y0236935D02*
X0251723Y0236935D01*
X0251723Y0237268D02*
X0243797Y0237268D01*
X0243797Y0240936D02*
X0243797Y0242564D01*
X0251723Y0242564D01*
X0251723Y0240936D01*
X0243797Y0240936D01*
X0243797Y0241269D02*
X0251723Y0241269D01*
X0251723Y0241602D02*
X0243797Y0241602D01*
X0243797Y0241935D02*
X0251723Y0241935D01*
X0251723Y0242268D02*
X0243797Y0242268D01*
X0243797Y0245936D02*
X0243797Y0247564D01*
X0251723Y0247564D01*
X0251723Y0245936D01*
X0243797Y0245936D01*
X0243797Y0246269D02*
X0251723Y0246269D01*
X0251723Y0246602D02*
X0243797Y0246602D01*
X0243797Y0246935D02*
X0251723Y0246935D01*
X0251723Y0247268D02*
X0243797Y0247268D01*
X0243797Y0250936D02*
X0243797Y0252564D01*
X0251723Y0252564D01*
X0251723Y0250936D01*
X0243797Y0250936D01*
X0243797Y0251269D02*
X0251723Y0251269D01*
X0251723Y0251602D02*
X0243797Y0251602D01*
X0243797Y0251935D02*
X0251723Y0251935D01*
X0251723Y0252268D02*
X0243797Y0252268D01*
D15*
X0311286Y0303312D02*
X0315762Y0303312D01*
X0311286Y0303312D02*
X0311286Y0304788D01*
X0315762Y0304788D01*
X0315762Y0303312D01*
X0315762Y0303635D02*
X0311286Y0303635D01*
X0311286Y0303958D02*
X0315762Y0303958D01*
X0315762Y0304281D02*
X0311286Y0304281D01*
X0311286Y0304604D02*
X0315762Y0304604D01*
X0319286Y0307012D02*
X0323762Y0307012D01*
X0319286Y0307012D02*
X0319286Y0308488D01*
X0323762Y0308488D01*
X0323762Y0307012D01*
X0323762Y0307335D02*
X0319286Y0307335D01*
X0319286Y0307658D02*
X0323762Y0307658D01*
X0323762Y0307981D02*
X0319286Y0307981D01*
X0319286Y0308304D02*
X0323762Y0308304D01*
X0315762Y0310712D02*
X0311286Y0310712D01*
X0311286Y0312188D01*
X0315762Y0312188D01*
X0315762Y0310712D01*
X0315762Y0311035D02*
X0311286Y0311035D01*
X0311286Y0311358D02*
X0315762Y0311358D01*
X0315762Y0311681D02*
X0311286Y0311681D01*
X0311286Y0312004D02*
X0315762Y0312004D01*
D16*
X0186959Y0248165D02*
X0185089Y0248165D01*
X0185089Y0255435D01*
X0186959Y0255435D01*
X0186959Y0248165D01*
X0186959Y0248494D02*
X0185089Y0248494D01*
X0185089Y0248823D02*
X0186959Y0248823D01*
X0186959Y0249152D02*
X0185089Y0249152D01*
X0185089Y0249481D02*
X0186959Y0249481D01*
X0186959Y0249810D02*
X0185089Y0249810D01*
X0185089Y0250139D02*
X0186959Y0250139D01*
X0186959Y0250468D02*
X0185089Y0250468D01*
X0185089Y0250797D02*
X0186959Y0250797D01*
X0186959Y0251126D02*
X0185089Y0251126D01*
X0185089Y0251455D02*
X0186959Y0251455D01*
X0186959Y0251784D02*
X0185089Y0251784D01*
X0185089Y0252113D02*
X0186959Y0252113D01*
X0186959Y0252442D02*
X0185089Y0252442D01*
X0185089Y0252771D02*
X0186959Y0252771D01*
X0186959Y0253100D02*
X0185089Y0253100D01*
X0185089Y0253429D02*
X0186959Y0253429D01*
X0186959Y0253758D02*
X0185089Y0253758D01*
X0185089Y0254087D02*
X0186959Y0254087D01*
X0186959Y0254416D02*
X0185089Y0254416D01*
X0185089Y0254745D02*
X0186959Y0254745D01*
X0186959Y0255074D02*
X0185089Y0255074D01*
X0185089Y0255403D02*
X0186959Y0255403D01*
X0181959Y0248165D02*
X0180089Y0248165D01*
X0180089Y0255435D01*
X0181959Y0255435D01*
X0181959Y0248165D01*
X0181959Y0248494D02*
X0180089Y0248494D01*
X0180089Y0248823D02*
X0181959Y0248823D01*
X0181959Y0249152D02*
X0180089Y0249152D01*
X0180089Y0249481D02*
X0181959Y0249481D01*
X0181959Y0249810D02*
X0180089Y0249810D01*
X0180089Y0250139D02*
X0181959Y0250139D01*
X0181959Y0250468D02*
X0180089Y0250468D01*
X0180089Y0250797D02*
X0181959Y0250797D01*
X0181959Y0251126D02*
X0180089Y0251126D01*
X0180089Y0251455D02*
X0181959Y0251455D01*
X0181959Y0251784D02*
X0180089Y0251784D01*
X0180089Y0252113D02*
X0181959Y0252113D01*
X0181959Y0252442D02*
X0180089Y0252442D01*
X0180089Y0252771D02*
X0181959Y0252771D01*
X0181959Y0253100D02*
X0180089Y0253100D01*
X0180089Y0253429D02*
X0181959Y0253429D01*
X0181959Y0253758D02*
X0180089Y0253758D01*
X0180089Y0254087D02*
X0181959Y0254087D01*
X0181959Y0254416D02*
X0180089Y0254416D01*
X0180089Y0254745D02*
X0181959Y0254745D01*
X0181959Y0255074D02*
X0180089Y0255074D01*
X0180089Y0255403D02*
X0181959Y0255403D01*
X0176959Y0248165D02*
X0175089Y0248165D01*
X0175089Y0255435D01*
X0176959Y0255435D01*
X0176959Y0248165D01*
X0176959Y0248494D02*
X0175089Y0248494D01*
X0175089Y0248823D02*
X0176959Y0248823D01*
X0176959Y0249152D02*
X0175089Y0249152D01*
X0175089Y0249481D02*
X0176959Y0249481D01*
X0176959Y0249810D02*
X0175089Y0249810D01*
X0175089Y0250139D02*
X0176959Y0250139D01*
X0176959Y0250468D02*
X0175089Y0250468D01*
X0175089Y0250797D02*
X0176959Y0250797D01*
X0176959Y0251126D02*
X0175089Y0251126D01*
X0175089Y0251455D02*
X0176959Y0251455D01*
X0176959Y0251784D02*
X0175089Y0251784D01*
X0175089Y0252113D02*
X0176959Y0252113D01*
X0176959Y0252442D02*
X0175089Y0252442D01*
X0175089Y0252771D02*
X0176959Y0252771D01*
X0176959Y0253100D02*
X0175089Y0253100D01*
X0175089Y0253429D02*
X0176959Y0253429D01*
X0176959Y0253758D02*
X0175089Y0253758D01*
X0175089Y0254087D02*
X0176959Y0254087D01*
X0176959Y0254416D02*
X0175089Y0254416D01*
X0175089Y0254745D02*
X0176959Y0254745D01*
X0176959Y0255074D02*
X0175089Y0255074D01*
X0175089Y0255403D02*
X0176959Y0255403D01*
X0171959Y0248165D02*
X0170089Y0248165D01*
X0170089Y0255435D01*
X0171959Y0255435D01*
X0171959Y0248165D01*
X0171959Y0248494D02*
X0170089Y0248494D01*
X0170089Y0248823D02*
X0171959Y0248823D01*
X0171959Y0249152D02*
X0170089Y0249152D01*
X0170089Y0249481D02*
X0171959Y0249481D01*
X0171959Y0249810D02*
X0170089Y0249810D01*
X0170089Y0250139D02*
X0171959Y0250139D01*
X0171959Y0250468D02*
X0170089Y0250468D01*
X0170089Y0250797D02*
X0171959Y0250797D01*
X0171959Y0251126D02*
X0170089Y0251126D01*
X0170089Y0251455D02*
X0171959Y0251455D01*
X0171959Y0251784D02*
X0170089Y0251784D01*
X0170089Y0252113D02*
X0171959Y0252113D01*
X0171959Y0252442D02*
X0170089Y0252442D01*
X0170089Y0252771D02*
X0171959Y0252771D01*
X0171959Y0253100D02*
X0170089Y0253100D01*
X0170089Y0253429D02*
X0171959Y0253429D01*
X0171959Y0253758D02*
X0170089Y0253758D01*
X0170089Y0254087D02*
X0171959Y0254087D01*
X0171959Y0254416D02*
X0170089Y0254416D01*
X0170089Y0254745D02*
X0171959Y0254745D01*
X0171959Y0255074D02*
X0170089Y0255074D01*
X0170089Y0255403D02*
X0171959Y0255403D01*
X0166959Y0248165D02*
X0165089Y0248165D01*
X0165089Y0255435D01*
X0166959Y0255435D01*
X0166959Y0248165D01*
X0166959Y0248494D02*
X0165089Y0248494D01*
X0165089Y0248823D02*
X0166959Y0248823D01*
X0166959Y0249152D02*
X0165089Y0249152D01*
X0165089Y0249481D02*
X0166959Y0249481D01*
X0166959Y0249810D02*
X0165089Y0249810D01*
X0165089Y0250139D02*
X0166959Y0250139D01*
X0166959Y0250468D02*
X0165089Y0250468D01*
X0165089Y0250797D02*
X0166959Y0250797D01*
X0166959Y0251126D02*
X0165089Y0251126D01*
X0165089Y0251455D02*
X0166959Y0251455D01*
X0166959Y0251784D02*
X0165089Y0251784D01*
X0165089Y0252113D02*
X0166959Y0252113D01*
X0166959Y0252442D02*
X0165089Y0252442D01*
X0165089Y0252771D02*
X0166959Y0252771D01*
X0166959Y0253100D02*
X0165089Y0253100D01*
X0165089Y0253429D02*
X0166959Y0253429D01*
X0166959Y0253758D02*
X0165089Y0253758D01*
X0165089Y0254087D02*
X0166959Y0254087D01*
X0166959Y0254416D02*
X0165089Y0254416D01*
X0165089Y0254745D02*
X0166959Y0254745D01*
X0166959Y0255074D02*
X0165089Y0255074D01*
X0165089Y0255403D02*
X0166959Y0255403D01*
X0161959Y0248165D02*
X0160089Y0248165D01*
X0160089Y0255435D01*
X0161959Y0255435D01*
X0161959Y0248165D01*
X0161959Y0248494D02*
X0160089Y0248494D01*
X0160089Y0248823D02*
X0161959Y0248823D01*
X0161959Y0249152D02*
X0160089Y0249152D01*
X0160089Y0249481D02*
X0161959Y0249481D01*
X0161959Y0249810D02*
X0160089Y0249810D01*
X0160089Y0250139D02*
X0161959Y0250139D01*
X0161959Y0250468D02*
X0160089Y0250468D01*
X0160089Y0250797D02*
X0161959Y0250797D01*
X0161959Y0251126D02*
X0160089Y0251126D01*
X0160089Y0251455D02*
X0161959Y0251455D01*
X0161959Y0251784D02*
X0160089Y0251784D01*
X0160089Y0252113D02*
X0161959Y0252113D01*
X0161959Y0252442D02*
X0160089Y0252442D01*
X0160089Y0252771D02*
X0161959Y0252771D01*
X0161959Y0253100D02*
X0160089Y0253100D01*
X0160089Y0253429D02*
X0161959Y0253429D01*
X0161959Y0253758D02*
X0160089Y0253758D01*
X0160089Y0254087D02*
X0161959Y0254087D01*
X0161959Y0254416D02*
X0160089Y0254416D01*
X0160089Y0254745D02*
X0161959Y0254745D01*
X0161959Y0255074D02*
X0160089Y0255074D01*
X0160089Y0255403D02*
X0161959Y0255403D01*
X0156959Y0248165D02*
X0155089Y0248165D01*
X0155089Y0255435D01*
X0156959Y0255435D01*
X0156959Y0248165D01*
X0156959Y0248494D02*
X0155089Y0248494D01*
X0155089Y0248823D02*
X0156959Y0248823D01*
X0156959Y0249152D02*
X0155089Y0249152D01*
X0155089Y0249481D02*
X0156959Y0249481D01*
X0156959Y0249810D02*
X0155089Y0249810D01*
X0155089Y0250139D02*
X0156959Y0250139D01*
X0156959Y0250468D02*
X0155089Y0250468D01*
X0155089Y0250797D02*
X0156959Y0250797D01*
X0156959Y0251126D02*
X0155089Y0251126D01*
X0155089Y0251455D02*
X0156959Y0251455D01*
X0156959Y0251784D02*
X0155089Y0251784D01*
X0155089Y0252113D02*
X0156959Y0252113D01*
X0156959Y0252442D02*
X0155089Y0252442D01*
X0155089Y0252771D02*
X0156959Y0252771D01*
X0156959Y0253100D02*
X0155089Y0253100D01*
X0155089Y0253429D02*
X0156959Y0253429D01*
X0156959Y0253758D02*
X0155089Y0253758D01*
X0155089Y0254087D02*
X0156959Y0254087D01*
X0156959Y0254416D02*
X0155089Y0254416D01*
X0155089Y0254745D02*
X0156959Y0254745D01*
X0156959Y0255074D02*
X0155089Y0255074D01*
X0155089Y0255403D02*
X0156959Y0255403D01*
X0156959Y0222065D02*
X0155089Y0222065D01*
X0155089Y0229335D01*
X0156959Y0229335D01*
X0156959Y0222065D01*
X0156959Y0222394D02*
X0155089Y0222394D01*
X0155089Y0222723D02*
X0156959Y0222723D01*
X0156959Y0223052D02*
X0155089Y0223052D01*
X0155089Y0223381D02*
X0156959Y0223381D01*
X0156959Y0223710D02*
X0155089Y0223710D01*
X0155089Y0224039D02*
X0156959Y0224039D01*
X0156959Y0224368D02*
X0155089Y0224368D01*
X0155089Y0224697D02*
X0156959Y0224697D01*
X0156959Y0225026D02*
X0155089Y0225026D01*
X0155089Y0225355D02*
X0156959Y0225355D01*
X0156959Y0225684D02*
X0155089Y0225684D01*
X0155089Y0226013D02*
X0156959Y0226013D01*
X0156959Y0226342D02*
X0155089Y0226342D01*
X0155089Y0226671D02*
X0156959Y0226671D01*
X0156959Y0227000D02*
X0155089Y0227000D01*
X0155089Y0227329D02*
X0156959Y0227329D01*
X0156959Y0227658D02*
X0155089Y0227658D01*
X0155089Y0227987D02*
X0156959Y0227987D01*
X0156959Y0228316D02*
X0155089Y0228316D01*
X0155089Y0228645D02*
X0156959Y0228645D01*
X0156959Y0228974D02*
X0155089Y0228974D01*
X0155089Y0229303D02*
X0156959Y0229303D01*
X0160089Y0222065D02*
X0161959Y0222065D01*
X0160089Y0222065D02*
X0160089Y0229335D01*
X0161959Y0229335D01*
X0161959Y0222065D01*
X0161959Y0222394D02*
X0160089Y0222394D01*
X0160089Y0222723D02*
X0161959Y0222723D01*
X0161959Y0223052D02*
X0160089Y0223052D01*
X0160089Y0223381D02*
X0161959Y0223381D01*
X0161959Y0223710D02*
X0160089Y0223710D01*
X0160089Y0224039D02*
X0161959Y0224039D01*
X0161959Y0224368D02*
X0160089Y0224368D01*
X0160089Y0224697D02*
X0161959Y0224697D01*
X0161959Y0225026D02*
X0160089Y0225026D01*
X0160089Y0225355D02*
X0161959Y0225355D01*
X0161959Y0225684D02*
X0160089Y0225684D01*
X0160089Y0226013D02*
X0161959Y0226013D01*
X0161959Y0226342D02*
X0160089Y0226342D01*
X0160089Y0226671D02*
X0161959Y0226671D01*
X0161959Y0227000D02*
X0160089Y0227000D01*
X0160089Y0227329D02*
X0161959Y0227329D01*
X0161959Y0227658D02*
X0160089Y0227658D01*
X0160089Y0227987D02*
X0161959Y0227987D01*
X0161959Y0228316D02*
X0160089Y0228316D01*
X0160089Y0228645D02*
X0161959Y0228645D01*
X0161959Y0228974D02*
X0160089Y0228974D01*
X0160089Y0229303D02*
X0161959Y0229303D01*
X0165089Y0222065D02*
X0166959Y0222065D01*
X0165089Y0222065D02*
X0165089Y0229335D01*
X0166959Y0229335D01*
X0166959Y0222065D01*
X0166959Y0222394D02*
X0165089Y0222394D01*
X0165089Y0222723D02*
X0166959Y0222723D01*
X0166959Y0223052D02*
X0165089Y0223052D01*
X0165089Y0223381D02*
X0166959Y0223381D01*
X0166959Y0223710D02*
X0165089Y0223710D01*
X0165089Y0224039D02*
X0166959Y0224039D01*
X0166959Y0224368D02*
X0165089Y0224368D01*
X0165089Y0224697D02*
X0166959Y0224697D01*
X0166959Y0225026D02*
X0165089Y0225026D01*
X0165089Y0225355D02*
X0166959Y0225355D01*
X0166959Y0225684D02*
X0165089Y0225684D01*
X0165089Y0226013D02*
X0166959Y0226013D01*
X0166959Y0226342D02*
X0165089Y0226342D01*
X0165089Y0226671D02*
X0166959Y0226671D01*
X0166959Y0227000D02*
X0165089Y0227000D01*
X0165089Y0227329D02*
X0166959Y0227329D01*
X0166959Y0227658D02*
X0165089Y0227658D01*
X0165089Y0227987D02*
X0166959Y0227987D01*
X0166959Y0228316D02*
X0165089Y0228316D01*
X0165089Y0228645D02*
X0166959Y0228645D01*
X0166959Y0228974D02*
X0165089Y0228974D01*
X0165089Y0229303D02*
X0166959Y0229303D01*
X0170089Y0222065D02*
X0171959Y0222065D01*
X0170089Y0222065D02*
X0170089Y0229335D01*
X0171959Y0229335D01*
X0171959Y0222065D01*
X0171959Y0222394D02*
X0170089Y0222394D01*
X0170089Y0222723D02*
X0171959Y0222723D01*
X0171959Y0223052D02*
X0170089Y0223052D01*
X0170089Y0223381D02*
X0171959Y0223381D01*
X0171959Y0223710D02*
X0170089Y0223710D01*
X0170089Y0224039D02*
X0171959Y0224039D01*
X0171959Y0224368D02*
X0170089Y0224368D01*
X0170089Y0224697D02*
X0171959Y0224697D01*
X0171959Y0225026D02*
X0170089Y0225026D01*
X0170089Y0225355D02*
X0171959Y0225355D01*
X0171959Y0225684D02*
X0170089Y0225684D01*
X0170089Y0226013D02*
X0171959Y0226013D01*
X0171959Y0226342D02*
X0170089Y0226342D01*
X0170089Y0226671D02*
X0171959Y0226671D01*
X0171959Y0227000D02*
X0170089Y0227000D01*
X0170089Y0227329D02*
X0171959Y0227329D01*
X0171959Y0227658D02*
X0170089Y0227658D01*
X0170089Y0227987D02*
X0171959Y0227987D01*
X0171959Y0228316D02*
X0170089Y0228316D01*
X0170089Y0228645D02*
X0171959Y0228645D01*
X0171959Y0228974D02*
X0170089Y0228974D01*
X0170089Y0229303D02*
X0171959Y0229303D01*
X0175089Y0222065D02*
X0176959Y0222065D01*
X0175089Y0222065D02*
X0175089Y0229335D01*
X0176959Y0229335D01*
X0176959Y0222065D01*
X0176959Y0222394D02*
X0175089Y0222394D01*
X0175089Y0222723D02*
X0176959Y0222723D01*
X0176959Y0223052D02*
X0175089Y0223052D01*
X0175089Y0223381D02*
X0176959Y0223381D01*
X0176959Y0223710D02*
X0175089Y0223710D01*
X0175089Y0224039D02*
X0176959Y0224039D01*
X0176959Y0224368D02*
X0175089Y0224368D01*
X0175089Y0224697D02*
X0176959Y0224697D01*
X0176959Y0225026D02*
X0175089Y0225026D01*
X0175089Y0225355D02*
X0176959Y0225355D01*
X0176959Y0225684D02*
X0175089Y0225684D01*
X0175089Y0226013D02*
X0176959Y0226013D01*
X0176959Y0226342D02*
X0175089Y0226342D01*
X0175089Y0226671D02*
X0176959Y0226671D01*
X0176959Y0227000D02*
X0175089Y0227000D01*
X0175089Y0227329D02*
X0176959Y0227329D01*
X0176959Y0227658D02*
X0175089Y0227658D01*
X0175089Y0227987D02*
X0176959Y0227987D01*
X0176959Y0228316D02*
X0175089Y0228316D01*
X0175089Y0228645D02*
X0176959Y0228645D01*
X0176959Y0228974D02*
X0175089Y0228974D01*
X0175089Y0229303D02*
X0176959Y0229303D01*
X0180089Y0222065D02*
X0181959Y0222065D01*
X0180089Y0222065D02*
X0180089Y0229335D01*
X0181959Y0229335D01*
X0181959Y0222065D01*
X0181959Y0222394D02*
X0180089Y0222394D01*
X0180089Y0222723D02*
X0181959Y0222723D01*
X0181959Y0223052D02*
X0180089Y0223052D01*
X0180089Y0223381D02*
X0181959Y0223381D01*
X0181959Y0223710D02*
X0180089Y0223710D01*
X0180089Y0224039D02*
X0181959Y0224039D01*
X0181959Y0224368D02*
X0180089Y0224368D01*
X0180089Y0224697D02*
X0181959Y0224697D01*
X0181959Y0225026D02*
X0180089Y0225026D01*
X0180089Y0225355D02*
X0181959Y0225355D01*
X0181959Y0225684D02*
X0180089Y0225684D01*
X0180089Y0226013D02*
X0181959Y0226013D01*
X0181959Y0226342D02*
X0180089Y0226342D01*
X0180089Y0226671D02*
X0181959Y0226671D01*
X0181959Y0227000D02*
X0180089Y0227000D01*
X0180089Y0227329D02*
X0181959Y0227329D01*
X0181959Y0227658D02*
X0180089Y0227658D01*
X0180089Y0227987D02*
X0181959Y0227987D01*
X0181959Y0228316D02*
X0180089Y0228316D01*
X0180089Y0228645D02*
X0181959Y0228645D01*
X0181959Y0228974D02*
X0180089Y0228974D01*
X0180089Y0229303D02*
X0181959Y0229303D01*
X0185089Y0222065D02*
X0186959Y0222065D01*
X0185089Y0222065D02*
X0185089Y0229335D01*
X0186959Y0229335D01*
X0186959Y0222065D01*
X0186959Y0222394D02*
X0185089Y0222394D01*
X0185089Y0222723D02*
X0186959Y0222723D01*
X0186959Y0223052D02*
X0185089Y0223052D01*
X0185089Y0223381D02*
X0186959Y0223381D01*
X0186959Y0223710D02*
X0185089Y0223710D01*
X0185089Y0224039D02*
X0186959Y0224039D01*
X0186959Y0224368D02*
X0185089Y0224368D01*
X0185089Y0224697D02*
X0186959Y0224697D01*
X0186959Y0225026D02*
X0185089Y0225026D01*
X0185089Y0225355D02*
X0186959Y0225355D01*
X0186959Y0225684D02*
X0185089Y0225684D01*
X0185089Y0226013D02*
X0186959Y0226013D01*
X0186959Y0226342D02*
X0185089Y0226342D01*
X0185089Y0226671D02*
X0186959Y0226671D01*
X0186959Y0227000D02*
X0185089Y0227000D01*
X0185089Y0227329D02*
X0186959Y0227329D01*
X0186959Y0227658D02*
X0185089Y0227658D01*
X0185089Y0227987D02*
X0186959Y0227987D01*
X0186959Y0228316D02*
X0185089Y0228316D01*
X0185089Y0228645D02*
X0186959Y0228645D01*
X0186959Y0228974D02*
X0185089Y0228974D01*
X0185089Y0229303D02*
X0186959Y0229303D01*
M02*
