G75*
%MOIN*%
%OFA0B0*%
%FSLAX25Y25*%
%IPPOS*%
%LPD*%
%AMOC8*
5,1,8,0,0,1.08239X$1,22.5*
%
%ADD10C,0.00000*%
D10*
X0114524Y0003750D02*
X0114524Y0318711D01*
X0535224Y0318711D01*
X0535224Y0003750D01*
X0114524Y0003750D01*
X0281024Y0139750D02*
X0281026Y0139911D01*
X0281032Y0140071D01*
X0281042Y0140232D01*
X0281056Y0140392D01*
X0281074Y0140552D01*
X0281095Y0140711D01*
X0281121Y0140870D01*
X0281151Y0141028D01*
X0281184Y0141185D01*
X0281222Y0141342D01*
X0281263Y0141497D01*
X0281308Y0141651D01*
X0281357Y0141804D01*
X0281410Y0141956D01*
X0281466Y0142107D01*
X0281527Y0142256D01*
X0281590Y0142404D01*
X0281658Y0142550D01*
X0281729Y0142694D01*
X0281803Y0142836D01*
X0281881Y0142977D01*
X0281963Y0143115D01*
X0282048Y0143252D01*
X0282136Y0143386D01*
X0282228Y0143518D01*
X0282323Y0143648D01*
X0282421Y0143776D01*
X0282522Y0143901D01*
X0282626Y0144023D01*
X0282733Y0144143D01*
X0282843Y0144260D01*
X0282956Y0144375D01*
X0283072Y0144486D01*
X0283191Y0144595D01*
X0283312Y0144700D01*
X0283436Y0144803D01*
X0283562Y0144903D01*
X0283690Y0144999D01*
X0283821Y0145092D01*
X0283955Y0145182D01*
X0284090Y0145269D01*
X0284228Y0145352D01*
X0284367Y0145432D01*
X0284509Y0145508D01*
X0284652Y0145581D01*
X0284797Y0145650D01*
X0284944Y0145716D01*
X0285092Y0145778D01*
X0285242Y0145836D01*
X0285393Y0145891D01*
X0285546Y0145942D01*
X0285700Y0145989D01*
X0285855Y0146032D01*
X0286011Y0146071D01*
X0286167Y0146107D01*
X0286325Y0146138D01*
X0286483Y0146166D01*
X0286642Y0146190D01*
X0286802Y0146210D01*
X0286962Y0146226D01*
X0287122Y0146238D01*
X0287283Y0146246D01*
X0287444Y0146250D01*
X0287604Y0146250D01*
X0287765Y0146246D01*
X0287926Y0146238D01*
X0288086Y0146226D01*
X0288246Y0146210D01*
X0288406Y0146190D01*
X0288565Y0146166D01*
X0288723Y0146138D01*
X0288881Y0146107D01*
X0289037Y0146071D01*
X0289193Y0146032D01*
X0289348Y0145989D01*
X0289502Y0145942D01*
X0289655Y0145891D01*
X0289806Y0145836D01*
X0289956Y0145778D01*
X0290104Y0145716D01*
X0290251Y0145650D01*
X0290396Y0145581D01*
X0290539Y0145508D01*
X0290681Y0145432D01*
X0290820Y0145352D01*
X0290958Y0145269D01*
X0291093Y0145182D01*
X0291227Y0145092D01*
X0291358Y0144999D01*
X0291486Y0144903D01*
X0291612Y0144803D01*
X0291736Y0144700D01*
X0291857Y0144595D01*
X0291976Y0144486D01*
X0292092Y0144375D01*
X0292205Y0144260D01*
X0292315Y0144143D01*
X0292422Y0144023D01*
X0292526Y0143901D01*
X0292627Y0143776D01*
X0292725Y0143648D01*
X0292820Y0143518D01*
X0292912Y0143386D01*
X0293000Y0143252D01*
X0293085Y0143115D01*
X0293167Y0142977D01*
X0293245Y0142836D01*
X0293319Y0142694D01*
X0293390Y0142550D01*
X0293458Y0142404D01*
X0293521Y0142256D01*
X0293582Y0142107D01*
X0293638Y0141956D01*
X0293691Y0141804D01*
X0293740Y0141651D01*
X0293785Y0141497D01*
X0293826Y0141342D01*
X0293864Y0141185D01*
X0293897Y0141028D01*
X0293927Y0140870D01*
X0293953Y0140711D01*
X0293974Y0140552D01*
X0293992Y0140392D01*
X0294006Y0140232D01*
X0294016Y0140071D01*
X0294022Y0139911D01*
X0294024Y0139750D01*
X0294022Y0139589D01*
X0294016Y0139429D01*
X0294006Y0139268D01*
X0293992Y0139108D01*
X0293974Y0138948D01*
X0293953Y0138789D01*
X0293927Y0138630D01*
X0293897Y0138472D01*
X0293864Y0138315D01*
X0293826Y0138158D01*
X0293785Y0138003D01*
X0293740Y0137849D01*
X0293691Y0137696D01*
X0293638Y0137544D01*
X0293582Y0137393D01*
X0293521Y0137244D01*
X0293458Y0137096D01*
X0293390Y0136950D01*
X0293319Y0136806D01*
X0293245Y0136664D01*
X0293167Y0136523D01*
X0293085Y0136385D01*
X0293000Y0136248D01*
X0292912Y0136114D01*
X0292820Y0135982D01*
X0292725Y0135852D01*
X0292627Y0135724D01*
X0292526Y0135599D01*
X0292422Y0135477D01*
X0292315Y0135357D01*
X0292205Y0135240D01*
X0292092Y0135125D01*
X0291976Y0135014D01*
X0291857Y0134905D01*
X0291736Y0134800D01*
X0291612Y0134697D01*
X0291486Y0134597D01*
X0291358Y0134501D01*
X0291227Y0134408D01*
X0291093Y0134318D01*
X0290958Y0134231D01*
X0290820Y0134148D01*
X0290681Y0134068D01*
X0290539Y0133992D01*
X0290396Y0133919D01*
X0290251Y0133850D01*
X0290104Y0133784D01*
X0289956Y0133722D01*
X0289806Y0133664D01*
X0289655Y0133609D01*
X0289502Y0133558D01*
X0289348Y0133511D01*
X0289193Y0133468D01*
X0289037Y0133429D01*
X0288881Y0133393D01*
X0288723Y0133362D01*
X0288565Y0133334D01*
X0288406Y0133310D01*
X0288246Y0133290D01*
X0288086Y0133274D01*
X0287926Y0133262D01*
X0287765Y0133254D01*
X0287604Y0133250D01*
X0287444Y0133250D01*
X0287283Y0133254D01*
X0287122Y0133262D01*
X0286962Y0133274D01*
X0286802Y0133290D01*
X0286642Y0133310D01*
X0286483Y0133334D01*
X0286325Y0133362D01*
X0286167Y0133393D01*
X0286011Y0133429D01*
X0285855Y0133468D01*
X0285700Y0133511D01*
X0285546Y0133558D01*
X0285393Y0133609D01*
X0285242Y0133664D01*
X0285092Y0133722D01*
X0284944Y0133784D01*
X0284797Y0133850D01*
X0284652Y0133919D01*
X0284509Y0133992D01*
X0284367Y0134068D01*
X0284228Y0134148D01*
X0284090Y0134231D01*
X0283955Y0134318D01*
X0283821Y0134408D01*
X0283690Y0134501D01*
X0283562Y0134597D01*
X0283436Y0134697D01*
X0283312Y0134800D01*
X0283191Y0134905D01*
X0283072Y0135014D01*
X0282956Y0135125D01*
X0282843Y0135240D01*
X0282733Y0135357D01*
X0282626Y0135477D01*
X0282522Y0135599D01*
X0282421Y0135724D01*
X0282323Y0135852D01*
X0282228Y0135982D01*
X0282136Y0136114D01*
X0282048Y0136248D01*
X0281963Y0136385D01*
X0281881Y0136523D01*
X0281803Y0136664D01*
X0281729Y0136806D01*
X0281658Y0136950D01*
X0281590Y0137096D01*
X0281527Y0137244D01*
X0281466Y0137393D01*
X0281410Y0137544D01*
X0281357Y0137696D01*
X0281308Y0137849D01*
X0281263Y0138003D01*
X0281222Y0138158D01*
X0281184Y0138315D01*
X0281151Y0138472D01*
X0281121Y0138630D01*
X0281095Y0138789D01*
X0281074Y0138948D01*
X0281056Y0139108D01*
X0281042Y0139268D01*
X0281032Y0139429D01*
X0281026Y0139589D01*
X0281024Y0139750D01*
X0390024Y0159750D02*
X0390026Y0159891D01*
X0390032Y0160032D01*
X0390042Y0160172D01*
X0390056Y0160312D01*
X0390074Y0160452D01*
X0390095Y0160591D01*
X0390121Y0160730D01*
X0390150Y0160868D01*
X0390184Y0161004D01*
X0390221Y0161140D01*
X0390262Y0161275D01*
X0390307Y0161409D01*
X0390356Y0161541D01*
X0390408Y0161672D01*
X0390464Y0161801D01*
X0390524Y0161928D01*
X0390587Y0162054D01*
X0390653Y0162178D01*
X0390724Y0162301D01*
X0390797Y0162421D01*
X0390874Y0162539D01*
X0390954Y0162655D01*
X0391038Y0162768D01*
X0391124Y0162879D01*
X0391214Y0162988D01*
X0391307Y0163094D01*
X0391402Y0163197D01*
X0391501Y0163298D01*
X0391602Y0163396D01*
X0391706Y0163491D01*
X0391813Y0163583D01*
X0391922Y0163672D01*
X0392034Y0163757D01*
X0392148Y0163840D01*
X0392264Y0163920D01*
X0392383Y0163996D01*
X0392504Y0164068D01*
X0392626Y0164138D01*
X0392751Y0164203D01*
X0392877Y0164266D01*
X0393005Y0164324D01*
X0393135Y0164379D01*
X0393266Y0164431D01*
X0393399Y0164478D01*
X0393533Y0164522D01*
X0393668Y0164563D01*
X0393804Y0164599D01*
X0393941Y0164631D01*
X0394079Y0164660D01*
X0394217Y0164685D01*
X0394357Y0164705D01*
X0394497Y0164722D01*
X0394637Y0164735D01*
X0394778Y0164744D01*
X0394918Y0164749D01*
X0395059Y0164750D01*
X0395200Y0164747D01*
X0395341Y0164740D01*
X0395481Y0164729D01*
X0395621Y0164714D01*
X0395761Y0164695D01*
X0395900Y0164673D01*
X0396038Y0164646D01*
X0396176Y0164616D01*
X0396312Y0164581D01*
X0396448Y0164543D01*
X0396582Y0164501D01*
X0396716Y0164455D01*
X0396848Y0164406D01*
X0396978Y0164352D01*
X0397107Y0164295D01*
X0397234Y0164235D01*
X0397360Y0164171D01*
X0397483Y0164103D01*
X0397605Y0164032D01*
X0397725Y0163958D01*
X0397842Y0163880D01*
X0397957Y0163799D01*
X0398070Y0163715D01*
X0398181Y0163628D01*
X0398289Y0163537D01*
X0398394Y0163444D01*
X0398497Y0163347D01*
X0398597Y0163248D01*
X0398694Y0163146D01*
X0398788Y0163041D01*
X0398879Y0162934D01*
X0398967Y0162824D01*
X0399052Y0162712D01*
X0399134Y0162597D01*
X0399213Y0162480D01*
X0399288Y0162361D01*
X0399360Y0162240D01*
X0399428Y0162117D01*
X0399493Y0161992D01*
X0399555Y0161865D01*
X0399612Y0161736D01*
X0399667Y0161606D01*
X0399717Y0161475D01*
X0399764Y0161342D01*
X0399807Y0161208D01*
X0399846Y0161072D01*
X0399881Y0160936D01*
X0399913Y0160799D01*
X0399940Y0160661D01*
X0399964Y0160522D01*
X0399984Y0160382D01*
X0400000Y0160242D01*
X0400012Y0160102D01*
X0400020Y0159961D01*
X0400024Y0159820D01*
X0400024Y0159680D01*
X0400020Y0159539D01*
X0400012Y0159398D01*
X0400000Y0159258D01*
X0399984Y0159118D01*
X0399964Y0158978D01*
X0399940Y0158839D01*
X0399913Y0158701D01*
X0399881Y0158564D01*
X0399846Y0158428D01*
X0399807Y0158292D01*
X0399764Y0158158D01*
X0399717Y0158025D01*
X0399667Y0157894D01*
X0399612Y0157764D01*
X0399555Y0157635D01*
X0399493Y0157508D01*
X0399428Y0157383D01*
X0399360Y0157260D01*
X0399288Y0157139D01*
X0399213Y0157020D01*
X0399134Y0156903D01*
X0399052Y0156788D01*
X0398967Y0156676D01*
X0398879Y0156566D01*
X0398788Y0156459D01*
X0398694Y0156354D01*
X0398597Y0156252D01*
X0398497Y0156153D01*
X0398394Y0156056D01*
X0398289Y0155963D01*
X0398181Y0155872D01*
X0398070Y0155785D01*
X0397957Y0155701D01*
X0397842Y0155620D01*
X0397725Y0155542D01*
X0397605Y0155468D01*
X0397483Y0155397D01*
X0397360Y0155329D01*
X0397234Y0155265D01*
X0397107Y0155205D01*
X0396978Y0155148D01*
X0396848Y0155094D01*
X0396716Y0155045D01*
X0396582Y0154999D01*
X0396448Y0154957D01*
X0396312Y0154919D01*
X0396176Y0154884D01*
X0396038Y0154854D01*
X0395900Y0154827D01*
X0395761Y0154805D01*
X0395621Y0154786D01*
X0395481Y0154771D01*
X0395341Y0154760D01*
X0395200Y0154753D01*
X0395059Y0154750D01*
X0394918Y0154751D01*
X0394778Y0154756D01*
X0394637Y0154765D01*
X0394497Y0154778D01*
X0394357Y0154795D01*
X0394217Y0154815D01*
X0394079Y0154840D01*
X0393941Y0154869D01*
X0393804Y0154901D01*
X0393668Y0154937D01*
X0393533Y0154978D01*
X0393399Y0155022D01*
X0393266Y0155069D01*
X0393135Y0155121D01*
X0393005Y0155176D01*
X0392877Y0155234D01*
X0392751Y0155297D01*
X0392626Y0155362D01*
X0392504Y0155432D01*
X0392383Y0155504D01*
X0392264Y0155580D01*
X0392148Y0155660D01*
X0392034Y0155743D01*
X0391922Y0155828D01*
X0391813Y0155917D01*
X0391706Y0156009D01*
X0391602Y0156104D01*
X0391501Y0156202D01*
X0391402Y0156303D01*
X0391307Y0156406D01*
X0391214Y0156512D01*
X0391124Y0156621D01*
X0391038Y0156732D01*
X0390954Y0156845D01*
X0390874Y0156961D01*
X0390797Y0157079D01*
X0390724Y0157199D01*
X0390653Y0157322D01*
X0390587Y0157446D01*
X0390524Y0157572D01*
X0390464Y0157699D01*
X0390408Y0157828D01*
X0390356Y0157959D01*
X0390307Y0158091D01*
X0390262Y0158225D01*
X0390221Y0158360D01*
X0390184Y0158496D01*
X0390150Y0158632D01*
X0390121Y0158770D01*
X0390095Y0158909D01*
X0390074Y0159048D01*
X0390056Y0159188D01*
X0390042Y0159328D01*
X0390032Y0159468D01*
X0390026Y0159609D01*
X0390024Y0159750D01*
X0390024Y0259750D02*
X0390026Y0259891D01*
X0390032Y0260032D01*
X0390042Y0260172D01*
X0390056Y0260312D01*
X0390074Y0260452D01*
X0390095Y0260591D01*
X0390121Y0260730D01*
X0390150Y0260868D01*
X0390184Y0261004D01*
X0390221Y0261140D01*
X0390262Y0261275D01*
X0390307Y0261409D01*
X0390356Y0261541D01*
X0390408Y0261672D01*
X0390464Y0261801D01*
X0390524Y0261928D01*
X0390587Y0262054D01*
X0390653Y0262178D01*
X0390724Y0262301D01*
X0390797Y0262421D01*
X0390874Y0262539D01*
X0390954Y0262655D01*
X0391038Y0262768D01*
X0391124Y0262879D01*
X0391214Y0262988D01*
X0391307Y0263094D01*
X0391402Y0263197D01*
X0391501Y0263298D01*
X0391602Y0263396D01*
X0391706Y0263491D01*
X0391813Y0263583D01*
X0391922Y0263672D01*
X0392034Y0263757D01*
X0392148Y0263840D01*
X0392264Y0263920D01*
X0392383Y0263996D01*
X0392504Y0264068D01*
X0392626Y0264138D01*
X0392751Y0264203D01*
X0392877Y0264266D01*
X0393005Y0264324D01*
X0393135Y0264379D01*
X0393266Y0264431D01*
X0393399Y0264478D01*
X0393533Y0264522D01*
X0393668Y0264563D01*
X0393804Y0264599D01*
X0393941Y0264631D01*
X0394079Y0264660D01*
X0394217Y0264685D01*
X0394357Y0264705D01*
X0394497Y0264722D01*
X0394637Y0264735D01*
X0394778Y0264744D01*
X0394918Y0264749D01*
X0395059Y0264750D01*
X0395200Y0264747D01*
X0395341Y0264740D01*
X0395481Y0264729D01*
X0395621Y0264714D01*
X0395761Y0264695D01*
X0395900Y0264673D01*
X0396038Y0264646D01*
X0396176Y0264616D01*
X0396312Y0264581D01*
X0396448Y0264543D01*
X0396582Y0264501D01*
X0396716Y0264455D01*
X0396848Y0264406D01*
X0396978Y0264352D01*
X0397107Y0264295D01*
X0397234Y0264235D01*
X0397360Y0264171D01*
X0397483Y0264103D01*
X0397605Y0264032D01*
X0397725Y0263958D01*
X0397842Y0263880D01*
X0397957Y0263799D01*
X0398070Y0263715D01*
X0398181Y0263628D01*
X0398289Y0263537D01*
X0398394Y0263444D01*
X0398497Y0263347D01*
X0398597Y0263248D01*
X0398694Y0263146D01*
X0398788Y0263041D01*
X0398879Y0262934D01*
X0398967Y0262824D01*
X0399052Y0262712D01*
X0399134Y0262597D01*
X0399213Y0262480D01*
X0399288Y0262361D01*
X0399360Y0262240D01*
X0399428Y0262117D01*
X0399493Y0261992D01*
X0399555Y0261865D01*
X0399612Y0261736D01*
X0399667Y0261606D01*
X0399717Y0261475D01*
X0399764Y0261342D01*
X0399807Y0261208D01*
X0399846Y0261072D01*
X0399881Y0260936D01*
X0399913Y0260799D01*
X0399940Y0260661D01*
X0399964Y0260522D01*
X0399984Y0260382D01*
X0400000Y0260242D01*
X0400012Y0260102D01*
X0400020Y0259961D01*
X0400024Y0259820D01*
X0400024Y0259680D01*
X0400020Y0259539D01*
X0400012Y0259398D01*
X0400000Y0259258D01*
X0399984Y0259118D01*
X0399964Y0258978D01*
X0399940Y0258839D01*
X0399913Y0258701D01*
X0399881Y0258564D01*
X0399846Y0258428D01*
X0399807Y0258292D01*
X0399764Y0258158D01*
X0399717Y0258025D01*
X0399667Y0257894D01*
X0399612Y0257764D01*
X0399555Y0257635D01*
X0399493Y0257508D01*
X0399428Y0257383D01*
X0399360Y0257260D01*
X0399288Y0257139D01*
X0399213Y0257020D01*
X0399134Y0256903D01*
X0399052Y0256788D01*
X0398967Y0256676D01*
X0398879Y0256566D01*
X0398788Y0256459D01*
X0398694Y0256354D01*
X0398597Y0256252D01*
X0398497Y0256153D01*
X0398394Y0256056D01*
X0398289Y0255963D01*
X0398181Y0255872D01*
X0398070Y0255785D01*
X0397957Y0255701D01*
X0397842Y0255620D01*
X0397725Y0255542D01*
X0397605Y0255468D01*
X0397483Y0255397D01*
X0397360Y0255329D01*
X0397234Y0255265D01*
X0397107Y0255205D01*
X0396978Y0255148D01*
X0396848Y0255094D01*
X0396716Y0255045D01*
X0396582Y0254999D01*
X0396448Y0254957D01*
X0396312Y0254919D01*
X0396176Y0254884D01*
X0396038Y0254854D01*
X0395900Y0254827D01*
X0395761Y0254805D01*
X0395621Y0254786D01*
X0395481Y0254771D01*
X0395341Y0254760D01*
X0395200Y0254753D01*
X0395059Y0254750D01*
X0394918Y0254751D01*
X0394778Y0254756D01*
X0394637Y0254765D01*
X0394497Y0254778D01*
X0394357Y0254795D01*
X0394217Y0254815D01*
X0394079Y0254840D01*
X0393941Y0254869D01*
X0393804Y0254901D01*
X0393668Y0254937D01*
X0393533Y0254978D01*
X0393399Y0255022D01*
X0393266Y0255069D01*
X0393135Y0255121D01*
X0393005Y0255176D01*
X0392877Y0255234D01*
X0392751Y0255297D01*
X0392626Y0255362D01*
X0392504Y0255432D01*
X0392383Y0255504D01*
X0392264Y0255580D01*
X0392148Y0255660D01*
X0392034Y0255743D01*
X0391922Y0255828D01*
X0391813Y0255917D01*
X0391706Y0256009D01*
X0391602Y0256104D01*
X0391501Y0256202D01*
X0391402Y0256303D01*
X0391307Y0256406D01*
X0391214Y0256512D01*
X0391124Y0256621D01*
X0391038Y0256732D01*
X0390954Y0256845D01*
X0390874Y0256961D01*
X0390797Y0257079D01*
X0390724Y0257199D01*
X0390653Y0257322D01*
X0390587Y0257446D01*
X0390524Y0257572D01*
X0390464Y0257699D01*
X0390408Y0257828D01*
X0390356Y0257959D01*
X0390307Y0258091D01*
X0390262Y0258225D01*
X0390221Y0258360D01*
X0390184Y0258496D01*
X0390150Y0258632D01*
X0390121Y0258770D01*
X0390095Y0258909D01*
X0390074Y0259048D01*
X0390056Y0259188D01*
X0390042Y0259328D01*
X0390032Y0259468D01*
X0390026Y0259609D01*
X0390024Y0259750D01*
X0081024Y0309750D02*
X0081026Y0309911D01*
X0081032Y0310071D01*
X0081042Y0310232D01*
X0081056Y0310392D01*
X0081074Y0310552D01*
X0081095Y0310711D01*
X0081121Y0310870D01*
X0081151Y0311028D01*
X0081184Y0311185D01*
X0081222Y0311342D01*
X0081263Y0311497D01*
X0081308Y0311651D01*
X0081357Y0311804D01*
X0081410Y0311956D01*
X0081466Y0312107D01*
X0081527Y0312256D01*
X0081590Y0312404D01*
X0081658Y0312550D01*
X0081729Y0312694D01*
X0081803Y0312836D01*
X0081881Y0312977D01*
X0081963Y0313115D01*
X0082048Y0313252D01*
X0082136Y0313386D01*
X0082228Y0313518D01*
X0082323Y0313648D01*
X0082421Y0313776D01*
X0082522Y0313901D01*
X0082626Y0314023D01*
X0082733Y0314143D01*
X0082843Y0314260D01*
X0082956Y0314375D01*
X0083072Y0314486D01*
X0083191Y0314595D01*
X0083312Y0314700D01*
X0083436Y0314803D01*
X0083562Y0314903D01*
X0083690Y0314999D01*
X0083821Y0315092D01*
X0083955Y0315182D01*
X0084090Y0315269D01*
X0084228Y0315352D01*
X0084367Y0315432D01*
X0084509Y0315508D01*
X0084652Y0315581D01*
X0084797Y0315650D01*
X0084944Y0315716D01*
X0085092Y0315778D01*
X0085242Y0315836D01*
X0085393Y0315891D01*
X0085546Y0315942D01*
X0085700Y0315989D01*
X0085855Y0316032D01*
X0086011Y0316071D01*
X0086167Y0316107D01*
X0086325Y0316138D01*
X0086483Y0316166D01*
X0086642Y0316190D01*
X0086802Y0316210D01*
X0086962Y0316226D01*
X0087122Y0316238D01*
X0087283Y0316246D01*
X0087444Y0316250D01*
X0087604Y0316250D01*
X0087765Y0316246D01*
X0087926Y0316238D01*
X0088086Y0316226D01*
X0088246Y0316210D01*
X0088406Y0316190D01*
X0088565Y0316166D01*
X0088723Y0316138D01*
X0088881Y0316107D01*
X0089037Y0316071D01*
X0089193Y0316032D01*
X0089348Y0315989D01*
X0089502Y0315942D01*
X0089655Y0315891D01*
X0089806Y0315836D01*
X0089956Y0315778D01*
X0090104Y0315716D01*
X0090251Y0315650D01*
X0090396Y0315581D01*
X0090539Y0315508D01*
X0090681Y0315432D01*
X0090820Y0315352D01*
X0090958Y0315269D01*
X0091093Y0315182D01*
X0091227Y0315092D01*
X0091358Y0314999D01*
X0091486Y0314903D01*
X0091612Y0314803D01*
X0091736Y0314700D01*
X0091857Y0314595D01*
X0091976Y0314486D01*
X0092092Y0314375D01*
X0092205Y0314260D01*
X0092315Y0314143D01*
X0092422Y0314023D01*
X0092526Y0313901D01*
X0092627Y0313776D01*
X0092725Y0313648D01*
X0092820Y0313518D01*
X0092912Y0313386D01*
X0093000Y0313252D01*
X0093085Y0313115D01*
X0093167Y0312977D01*
X0093245Y0312836D01*
X0093319Y0312694D01*
X0093390Y0312550D01*
X0093458Y0312404D01*
X0093521Y0312256D01*
X0093582Y0312107D01*
X0093638Y0311956D01*
X0093691Y0311804D01*
X0093740Y0311651D01*
X0093785Y0311497D01*
X0093826Y0311342D01*
X0093864Y0311185D01*
X0093897Y0311028D01*
X0093927Y0310870D01*
X0093953Y0310711D01*
X0093974Y0310552D01*
X0093992Y0310392D01*
X0094006Y0310232D01*
X0094016Y0310071D01*
X0094022Y0309911D01*
X0094024Y0309750D01*
X0094022Y0309589D01*
X0094016Y0309429D01*
X0094006Y0309268D01*
X0093992Y0309108D01*
X0093974Y0308948D01*
X0093953Y0308789D01*
X0093927Y0308630D01*
X0093897Y0308472D01*
X0093864Y0308315D01*
X0093826Y0308158D01*
X0093785Y0308003D01*
X0093740Y0307849D01*
X0093691Y0307696D01*
X0093638Y0307544D01*
X0093582Y0307393D01*
X0093521Y0307244D01*
X0093458Y0307096D01*
X0093390Y0306950D01*
X0093319Y0306806D01*
X0093245Y0306664D01*
X0093167Y0306523D01*
X0093085Y0306385D01*
X0093000Y0306248D01*
X0092912Y0306114D01*
X0092820Y0305982D01*
X0092725Y0305852D01*
X0092627Y0305724D01*
X0092526Y0305599D01*
X0092422Y0305477D01*
X0092315Y0305357D01*
X0092205Y0305240D01*
X0092092Y0305125D01*
X0091976Y0305014D01*
X0091857Y0304905D01*
X0091736Y0304800D01*
X0091612Y0304697D01*
X0091486Y0304597D01*
X0091358Y0304501D01*
X0091227Y0304408D01*
X0091093Y0304318D01*
X0090958Y0304231D01*
X0090820Y0304148D01*
X0090681Y0304068D01*
X0090539Y0303992D01*
X0090396Y0303919D01*
X0090251Y0303850D01*
X0090104Y0303784D01*
X0089956Y0303722D01*
X0089806Y0303664D01*
X0089655Y0303609D01*
X0089502Y0303558D01*
X0089348Y0303511D01*
X0089193Y0303468D01*
X0089037Y0303429D01*
X0088881Y0303393D01*
X0088723Y0303362D01*
X0088565Y0303334D01*
X0088406Y0303310D01*
X0088246Y0303290D01*
X0088086Y0303274D01*
X0087926Y0303262D01*
X0087765Y0303254D01*
X0087604Y0303250D01*
X0087444Y0303250D01*
X0087283Y0303254D01*
X0087122Y0303262D01*
X0086962Y0303274D01*
X0086802Y0303290D01*
X0086642Y0303310D01*
X0086483Y0303334D01*
X0086325Y0303362D01*
X0086167Y0303393D01*
X0086011Y0303429D01*
X0085855Y0303468D01*
X0085700Y0303511D01*
X0085546Y0303558D01*
X0085393Y0303609D01*
X0085242Y0303664D01*
X0085092Y0303722D01*
X0084944Y0303784D01*
X0084797Y0303850D01*
X0084652Y0303919D01*
X0084509Y0303992D01*
X0084367Y0304068D01*
X0084228Y0304148D01*
X0084090Y0304231D01*
X0083955Y0304318D01*
X0083821Y0304408D01*
X0083690Y0304501D01*
X0083562Y0304597D01*
X0083436Y0304697D01*
X0083312Y0304800D01*
X0083191Y0304905D01*
X0083072Y0305014D01*
X0082956Y0305125D01*
X0082843Y0305240D01*
X0082733Y0305357D01*
X0082626Y0305477D01*
X0082522Y0305599D01*
X0082421Y0305724D01*
X0082323Y0305852D01*
X0082228Y0305982D01*
X0082136Y0306114D01*
X0082048Y0306248D01*
X0081963Y0306385D01*
X0081881Y0306523D01*
X0081803Y0306664D01*
X0081729Y0306806D01*
X0081658Y0306950D01*
X0081590Y0307096D01*
X0081527Y0307244D01*
X0081466Y0307393D01*
X0081410Y0307544D01*
X0081357Y0307696D01*
X0081308Y0307849D01*
X0081263Y0308003D01*
X0081222Y0308158D01*
X0081184Y0308315D01*
X0081151Y0308472D01*
X0081121Y0308630D01*
X0081095Y0308789D01*
X0081074Y0308948D01*
X0081056Y0309108D01*
X0081042Y0309268D01*
X0081032Y0309429D01*
X0081026Y0309589D01*
X0081024Y0309750D01*
M02*
