%
M48
M72
T01C0.0350
T02C0.0354
T03C0.0394
T04C0.0400
T05C0.0512
T06C0.0984
T07C0.1000
T08C0.1300
%
T01
X25806Y8180
X26806Y8180
X27806Y8180
X28801Y8180
X29801Y8180
X30801Y8180
X29118Y1869
X27748Y1869
X50452Y27875
X51452Y27875
T02
X48052Y28275
X36752Y23575
X32752Y25575
X30152Y26275
X30052Y27475
X30132Y28695
X32652Y28775
X36352Y29475
X27652Y26375
X24252Y26775
X22652Y26475
X21352Y26475
X21552Y25275
X20152Y24575
X19202Y25875
X16592Y24285
X13652Y24075
X16102Y26335
X14552Y27775
X19852Y27675
X21652Y29475
X22752Y28875
X24452Y29075
X25552Y29475
X21652Y22775
X21652Y21475
X23492Y21075
X26252Y22175
X28902Y21805
X35852Y20775
X39502Y19865
X40552Y18175
X42552Y18775
X36952Y18175
X26752Y14075
X24252Y16175
X17252Y14475
X15052Y16175
X16352Y19775
X14152Y20875
X19512Y22565
X23052Y9675
T03
X23952Y28175
X27952Y28175
X51452Y30075
X51452Y31075
T04
X15752Y11975
X16752Y11975
X17752Y11975
X18752Y11975
X19752Y11975
X20752Y11975
X22752Y11975
X23752Y11975
X24752Y11975
X25752Y11975
X26752Y11975
X27752Y11975
X38152Y19975
X38152Y20975
X38152Y21975
X40852Y21975
X40852Y20975
X40852Y19975
X43452Y23175
X44452Y23175
X51452Y24975
X51252Y14475
X27752Y30975
X26752Y30975
X25752Y30975
X24752Y30975
X23752Y30975
X22752Y30975
X21752Y30975
X20752Y30975
X19252Y30975
X18252Y30975
X17252Y30975
X16252Y30975
X15252Y30975
X14252Y30975
X13252Y30975
X12252Y30975
T05
X51352Y21059
X51352Y19091
T06
X32429Y8275
X24476Y8275
X24476Y1440
X32429Y1558
T07
X39502Y15975
X39502Y25975
T08
X28752Y13975
X8752Y30975
M30
