G75*
%MOIN*%
%OFA0B0*%
%FSLAX25Y25*%
%IPPOS*%
%LPD*%
%AMOC8*
5,1,8,0,0,1.08239X$1,22.5*
%
%ADD10C,0.00394*%
%ADD11C,0.07800*%
%ADD12OC8,0.06000*%
%ADD13C,0.07400*%
%ADD14C,0.00413*%
%ADD15C,0.06000*%
%ADD16C,0.00409*%
%ADD17C,0.00390*%
%ADD18C,0.00402*%
%ADD19C,0.00396*%
%ADD20C,0.00390*%
%ADD21C,0.05500*%
%ADD22C,0.13843*%
%ADD23C,0.07677*%
%ADD24C,0.05937*%
%ADD25C,0.07400*%
%ADD26C,0.01500*%
%ADD27C,0.06900*%
%ADD28C,0.05543*%
D10*
X0157209Y0149979D02*
X0161145Y0149979D01*
X0157209Y0149979D02*
X0157209Y0153521D01*
X0161145Y0153521D01*
X0161145Y0149979D01*
X0161145Y0150372D02*
X0157209Y0150372D01*
X0157209Y0150765D02*
X0161145Y0150765D01*
X0161145Y0151158D02*
X0157209Y0151158D01*
X0157209Y0151551D02*
X0161145Y0151551D01*
X0161145Y0151944D02*
X0157209Y0151944D01*
X0157209Y0152337D02*
X0161145Y0152337D01*
X0161145Y0152730D02*
X0157209Y0152730D01*
X0157209Y0153123D02*
X0161145Y0153123D01*
X0161145Y0153516D02*
X0157209Y0153516D01*
X0163902Y0149979D02*
X0167838Y0149979D01*
X0163902Y0149979D02*
X0163902Y0153521D01*
X0167838Y0153521D01*
X0167838Y0149979D01*
X0167838Y0150372D02*
X0163902Y0150372D01*
X0163902Y0150765D02*
X0167838Y0150765D01*
X0167838Y0151158D02*
X0163902Y0151158D01*
X0163902Y0151551D02*
X0167838Y0151551D01*
X0167838Y0151944D02*
X0163902Y0151944D01*
X0163902Y0152337D02*
X0167838Y0152337D01*
X0167838Y0152730D02*
X0163902Y0152730D01*
X0163902Y0153123D02*
X0167838Y0153123D01*
X0167838Y0153516D02*
X0163902Y0153516D01*
X0175209Y0188979D02*
X0179145Y0188979D01*
X0175209Y0188979D02*
X0175209Y0192521D01*
X0179145Y0192521D01*
X0179145Y0188979D01*
X0179145Y0189372D02*
X0175209Y0189372D01*
X0175209Y0189765D02*
X0179145Y0189765D01*
X0179145Y0190158D02*
X0175209Y0190158D01*
X0175209Y0190551D02*
X0179145Y0190551D01*
X0179145Y0190944D02*
X0175209Y0190944D01*
X0175209Y0191337D02*
X0179145Y0191337D01*
X0179145Y0191730D02*
X0175209Y0191730D01*
X0175209Y0192123D02*
X0179145Y0192123D01*
X0179145Y0192516D02*
X0175209Y0192516D01*
X0175009Y0199079D02*
X0178945Y0199079D01*
X0175009Y0199079D02*
X0175009Y0202621D01*
X0178945Y0202621D01*
X0178945Y0199079D01*
X0178945Y0199472D02*
X0175009Y0199472D01*
X0175009Y0199865D02*
X0178945Y0199865D01*
X0178945Y0200258D02*
X0175009Y0200258D01*
X0175009Y0200651D02*
X0178945Y0200651D01*
X0178945Y0201044D02*
X0175009Y0201044D01*
X0175009Y0201437D02*
X0178945Y0201437D01*
X0178945Y0201830D02*
X0175009Y0201830D01*
X0175009Y0202223D02*
X0178945Y0202223D01*
X0178945Y0202616D02*
X0175009Y0202616D01*
X0174209Y0208979D02*
X0178145Y0208979D01*
X0174209Y0208979D02*
X0174209Y0212521D01*
X0178145Y0212521D01*
X0178145Y0208979D01*
X0178145Y0209372D02*
X0174209Y0209372D01*
X0174209Y0209765D02*
X0178145Y0209765D01*
X0178145Y0210158D02*
X0174209Y0210158D01*
X0174209Y0210551D02*
X0178145Y0210551D01*
X0178145Y0210944D02*
X0174209Y0210944D01*
X0174209Y0211337D02*
X0178145Y0211337D01*
X0178145Y0211730D02*
X0174209Y0211730D01*
X0174209Y0212123D02*
X0178145Y0212123D01*
X0178145Y0212516D02*
X0174209Y0212516D01*
X0180902Y0208979D02*
X0184838Y0208979D01*
X0180902Y0208979D02*
X0180902Y0212521D01*
X0184838Y0212521D01*
X0184838Y0208979D01*
X0184838Y0209372D02*
X0180902Y0209372D01*
X0180902Y0209765D02*
X0184838Y0209765D01*
X0184838Y0210158D02*
X0180902Y0210158D01*
X0180902Y0210551D02*
X0184838Y0210551D01*
X0184838Y0210944D02*
X0180902Y0210944D01*
X0180902Y0211337D02*
X0184838Y0211337D01*
X0184838Y0211730D02*
X0180902Y0211730D01*
X0180902Y0212123D02*
X0184838Y0212123D01*
X0184838Y0212516D02*
X0180902Y0212516D01*
X0161753Y0214064D02*
X0161753Y0210128D01*
X0161753Y0214064D02*
X0165295Y0214064D01*
X0165295Y0210128D01*
X0161753Y0210128D01*
X0161753Y0210521D02*
X0165295Y0210521D01*
X0165295Y0210914D02*
X0161753Y0210914D01*
X0161753Y0211307D02*
X0165295Y0211307D01*
X0165295Y0211700D02*
X0161753Y0211700D01*
X0161753Y0212093D02*
X0165295Y0212093D01*
X0165295Y0212486D02*
X0161753Y0212486D01*
X0161753Y0212879D02*
X0165295Y0212879D01*
X0165295Y0213272D02*
X0161753Y0213272D01*
X0161753Y0213665D02*
X0165295Y0213665D01*
X0165295Y0214058D02*
X0161753Y0214058D01*
X0161753Y0207372D02*
X0161753Y0203436D01*
X0161753Y0207372D02*
X0165295Y0207372D01*
X0165295Y0203436D01*
X0161753Y0203436D01*
X0161753Y0203829D02*
X0165295Y0203829D01*
X0165295Y0204222D02*
X0161753Y0204222D01*
X0161753Y0204615D02*
X0165295Y0204615D01*
X0165295Y0205008D02*
X0161753Y0205008D01*
X0161753Y0205401D02*
X0165295Y0205401D01*
X0165295Y0205794D02*
X0161753Y0205794D01*
X0161753Y0206187D02*
X0165295Y0206187D01*
X0165295Y0206580D02*
X0161753Y0206580D01*
X0161753Y0206973D02*
X0165295Y0206973D01*
X0165295Y0207366D02*
X0161753Y0207366D01*
X0181702Y0199079D02*
X0185638Y0199079D01*
X0181702Y0199079D02*
X0181702Y0202621D01*
X0185638Y0202621D01*
X0185638Y0199079D01*
X0185638Y0199472D02*
X0181702Y0199472D01*
X0181702Y0199865D02*
X0185638Y0199865D01*
X0185638Y0200258D02*
X0181702Y0200258D01*
X0181702Y0200651D02*
X0185638Y0200651D01*
X0185638Y0201044D02*
X0181702Y0201044D01*
X0181702Y0201437D02*
X0185638Y0201437D01*
X0185638Y0201830D02*
X0181702Y0201830D01*
X0181702Y0202223D02*
X0185638Y0202223D01*
X0185638Y0202616D02*
X0181702Y0202616D01*
X0181902Y0188979D02*
X0185838Y0188979D01*
X0181902Y0188979D02*
X0181902Y0192521D01*
X0185838Y0192521D01*
X0185838Y0188979D01*
X0185838Y0189372D02*
X0181902Y0189372D01*
X0181902Y0189765D02*
X0185838Y0189765D01*
X0185838Y0190158D02*
X0181902Y0190158D01*
X0181902Y0190551D02*
X0185838Y0190551D01*
X0185838Y0190944D02*
X0181902Y0190944D01*
X0181902Y0191337D02*
X0185838Y0191337D01*
X0185838Y0191730D02*
X0181902Y0191730D01*
X0181902Y0192123D02*
X0185838Y0192123D01*
X0185838Y0192516D02*
X0181902Y0192516D01*
X0139753Y0216436D02*
X0139753Y0220372D01*
X0143295Y0220372D01*
X0143295Y0216436D01*
X0139753Y0216436D01*
X0139753Y0216829D02*
X0143295Y0216829D01*
X0143295Y0217222D02*
X0139753Y0217222D01*
X0139753Y0217615D02*
X0143295Y0217615D01*
X0143295Y0218008D02*
X0139753Y0218008D01*
X0139753Y0218401D02*
X0143295Y0218401D01*
X0143295Y0218794D02*
X0139753Y0218794D01*
X0139753Y0219187D02*
X0143295Y0219187D01*
X0143295Y0219580D02*
X0139753Y0219580D01*
X0139753Y0219973D02*
X0143295Y0219973D01*
X0143295Y0220366D02*
X0139753Y0220366D01*
X0139753Y0223128D02*
X0139753Y0227064D01*
X0143295Y0227064D01*
X0143295Y0223128D01*
X0139753Y0223128D01*
X0139753Y0223521D02*
X0143295Y0223521D01*
X0143295Y0223914D02*
X0139753Y0223914D01*
X0139753Y0224307D02*
X0143295Y0224307D01*
X0143295Y0224700D02*
X0139753Y0224700D01*
X0139753Y0225093D02*
X0143295Y0225093D01*
X0143295Y0225486D02*
X0139753Y0225486D01*
X0139753Y0225879D02*
X0143295Y0225879D01*
X0143295Y0226272D02*
X0139753Y0226272D01*
X0139753Y0226665D02*
X0143295Y0226665D01*
X0143295Y0227058D02*
X0139753Y0227058D01*
X0149295Y0244436D02*
X0149295Y0248372D01*
X0149295Y0244436D02*
X0145753Y0244436D01*
X0145753Y0248372D01*
X0149295Y0248372D01*
X0149295Y0244829D02*
X0145753Y0244829D01*
X0145753Y0245222D02*
X0149295Y0245222D01*
X0149295Y0245615D02*
X0145753Y0245615D01*
X0145753Y0246008D02*
X0149295Y0246008D01*
X0149295Y0246401D02*
X0145753Y0246401D01*
X0145753Y0246794D02*
X0149295Y0246794D01*
X0149295Y0247187D02*
X0145753Y0247187D01*
X0145753Y0247580D02*
X0149295Y0247580D01*
X0149295Y0247973D02*
X0145753Y0247973D01*
X0145753Y0248366D02*
X0149295Y0248366D01*
X0149295Y0251128D02*
X0149295Y0255064D01*
X0149295Y0251128D02*
X0145753Y0251128D01*
X0145753Y0255064D01*
X0149295Y0255064D01*
X0149295Y0251521D02*
X0145753Y0251521D01*
X0145753Y0251914D02*
X0149295Y0251914D01*
X0149295Y0252307D02*
X0145753Y0252307D01*
X0145753Y0252700D02*
X0149295Y0252700D01*
X0149295Y0253093D02*
X0145753Y0253093D01*
X0145753Y0253486D02*
X0149295Y0253486D01*
X0149295Y0253879D02*
X0145753Y0253879D01*
X0145753Y0254272D02*
X0149295Y0254272D01*
X0149295Y0254665D02*
X0145753Y0254665D01*
X0145753Y0255058D02*
X0149295Y0255058D01*
X0148902Y0268521D02*
X0152838Y0268521D01*
X0152838Y0264979D01*
X0148902Y0264979D01*
X0148902Y0268521D01*
X0148902Y0265372D02*
X0152838Y0265372D01*
X0152838Y0265765D02*
X0148902Y0265765D01*
X0148902Y0266158D02*
X0152838Y0266158D01*
X0152838Y0266551D02*
X0148902Y0266551D01*
X0148902Y0266944D02*
X0152838Y0266944D01*
X0152838Y0267337D02*
X0148902Y0267337D01*
X0148902Y0267730D02*
X0152838Y0267730D01*
X0152838Y0268123D02*
X0148902Y0268123D01*
X0148902Y0268516D02*
X0152838Y0268516D01*
X0146145Y0268521D02*
X0142209Y0268521D01*
X0146145Y0268521D02*
X0146145Y0264979D01*
X0142209Y0264979D01*
X0142209Y0268521D01*
X0142209Y0265372D02*
X0146145Y0265372D01*
X0146145Y0265765D02*
X0142209Y0265765D01*
X0142209Y0266158D02*
X0146145Y0266158D01*
X0146145Y0266551D02*
X0142209Y0266551D01*
X0142209Y0266944D02*
X0146145Y0266944D01*
X0146145Y0267337D02*
X0142209Y0267337D01*
X0142209Y0267730D02*
X0146145Y0267730D01*
X0146145Y0268123D02*
X0142209Y0268123D01*
X0142209Y0268516D02*
X0146145Y0268516D01*
X0197209Y0256979D02*
X0201145Y0256979D01*
X0197209Y0256979D02*
X0197209Y0260521D01*
X0201145Y0260521D01*
X0201145Y0256979D01*
X0201145Y0257372D02*
X0197209Y0257372D01*
X0197209Y0257765D02*
X0201145Y0257765D01*
X0201145Y0258158D02*
X0197209Y0258158D01*
X0197209Y0258551D02*
X0201145Y0258551D01*
X0201145Y0258944D02*
X0197209Y0258944D01*
X0197209Y0259337D02*
X0201145Y0259337D01*
X0201145Y0259730D02*
X0197209Y0259730D01*
X0197209Y0260123D02*
X0201145Y0260123D01*
X0201145Y0260516D02*
X0197209Y0260516D01*
X0203902Y0256979D02*
X0207838Y0256979D01*
X0203902Y0256979D02*
X0203902Y0260521D01*
X0207838Y0260521D01*
X0207838Y0256979D01*
X0207838Y0257372D02*
X0203902Y0257372D01*
X0203902Y0257765D02*
X0207838Y0257765D01*
X0207838Y0258158D02*
X0203902Y0258158D01*
X0203902Y0258551D02*
X0207838Y0258551D01*
X0207838Y0258944D02*
X0203902Y0258944D01*
X0203902Y0259337D02*
X0207838Y0259337D01*
X0207838Y0259730D02*
X0203902Y0259730D01*
X0203902Y0260123D02*
X0207838Y0260123D01*
X0207838Y0260516D02*
X0203902Y0260516D01*
X0203209Y0274979D02*
X0207145Y0274979D01*
X0203209Y0274979D02*
X0203209Y0278521D01*
X0207145Y0278521D01*
X0207145Y0274979D01*
X0207145Y0275372D02*
X0203209Y0275372D01*
X0203209Y0275765D02*
X0207145Y0275765D01*
X0207145Y0276158D02*
X0203209Y0276158D01*
X0203209Y0276551D02*
X0207145Y0276551D01*
X0207145Y0276944D02*
X0203209Y0276944D01*
X0203209Y0277337D02*
X0207145Y0277337D01*
X0207145Y0277730D02*
X0203209Y0277730D01*
X0203209Y0278123D02*
X0207145Y0278123D01*
X0207145Y0278516D02*
X0203209Y0278516D01*
X0209902Y0274979D02*
X0213838Y0274979D01*
X0209902Y0274979D02*
X0209902Y0278521D01*
X0213838Y0278521D01*
X0213838Y0274979D01*
X0213838Y0275372D02*
X0209902Y0275372D01*
X0209902Y0275765D02*
X0213838Y0275765D01*
X0213838Y0276158D02*
X0209902Y0276158D01*
X0209902Y0276551D02*
X0213838Y0276551D01*
X0213838Y0276944D02*
X0209902Y0276944D01*
X0209902Y0277337D02*
X0213838Y0277337D01*
X0213838Y0277730D02*
X0209902Y0277730D01*
X0209902Y0278123D02*
X0213838Y0278123D01*
X0213838Y0278516D02*
X0209902Y0278516D01*
X0259209Y0261979D02*
X0263145Y0261979D01*
X0259209Y0261979D02*
X0259209Y0265521D01*
X0263145Y0265521D01*
X0263145Y0261979D01*
X0263145Y0262372D02*
X0259209Y0262372D01*
X0259209Y0262765D02*
X0263145Y0262765D01*
X0263145Y0263158D02*
X0259209Y0263158D01*
X0259209Y0263551D02*
X0263145Y0263551D01*
X0263145Y0263944D02*
X0259209Y0263944D01*
X0259209Y0264337D02*
X0263145Y0264337D01*
X0263145Y0264730D02*
X0259209Y0264730D01*
X0259209Y0265123D02*
X0263145Y0265123D01*
X0263145Y0265516D02*
X0259209Y0265516D01*
X0265902Y0261979D02*
X0269838Y0261979D01*
X0265902Y0261979D02*
X0265902Y0265521D01*
X0269838Y0265521D01*
X0269838Y0261979D01*
X0269838Y0262372D02*
X0265902Y0262372D01*
X0265902Y0262765D02*
X0269838Y0262765D01*
X0269838Y0263158D02*
X0265902Y0263158D01*
X0265902Y0263551D02*
X0269838Y0263551D01*
X0269838Y0263944D02*
X0265902Y0263944D01*
X0265902Y0264337D02*
X0269838Y0264337D01*
X0269838Y0264730D02*
X0265902Y0264730D01*
X0265902Y0265123D02*
X0269838Y0265123D01*
X0269838Y0265516D02*
X0265902Y0265516D01*
X0282209Y0253979D02*
X0286145Y0253979D01*
X0282209Y0253979D02*
X0282209Y0257521D01*
X0286145Y0257521D01*
X0286145Y0253979D01*
X0286145Y0254372D02*
X0282209Y0254372D01*
X0282209Y0254765D02*
X0286145Y0254765D01*
X0286145Y0255158D02*
X0282209Y0255158D01*
X0282209Y0255551D02*
X0286145Y0255551D01*
X0286145Y0255944D02*
X0282209Y0255944D01*
X0282209Y0256337D02*
X0286145Y0256337D01*
X0286145Y0256730D02*
X0282209Y0256730D01*
X0282209Y0257123D02*
X0286145Y0257123D01*
X0286145Y0257516D02*
X0282209Y0257516D01*
X0288902Y0253979D02*
X0292838Y0253979D01*
X0288902Y0253979D02*
X0288902Y0257521D01*
X0292838Y0257521D01*
X0292838Y0253979D01*
X0292838Y0254372D02*
X0288902Y0254372D01*
X0288902Y0254765D02*
X0292838Y0254765D01*
X0292838Y0255158D02*
X0288902Y0255158D01*
X0288902Y0255551D02*
X0292838Y0255551D01*
X0292838Y0255944D02*
X0288902Y0255944D01*
X0288902Y0256337D02*
X0292838Y0256337D01*
X0292838Y0256730D02*
X0288902Y0256730D01*
X0288902Y0257123D02*
X0292838Y0257123D01*
X0292838Y0257516D02*
X0288902Y0257516D01*
X0281595Y0242464D02*
X0281595Y0238528D01*
X0278053Y0238528D01*
X0278053Y0242464D01*
X0281595Y0242464D01*
X0281595Y0238921D02*
X0278053Y0238921D01*
X0278053Y0239314D02*
X0281595Y0239314D01*
X0281595Y0239707D02*
X0278053Y0239707D01*
X0278053Y0240100D02*
X0281595Y0240100D01*
X0281595Y0240493D02*
X0278053Y0240493D01*
X0278053Y0240886D02*
X0281595Y0240886D01*
X0281595Y0241279D02*
X0278053Y0241279D01*
X0278053Y0241672D02*
X0281595Y0241672D01*
X0281595Y0242065D02*
X0278053Y0242065D01*
X0278053Y0242458D02*
X0281595Y0242458D01*
X0281595Y0235772D02*
X0281595Y0231836D01*
X0278053Y0231836D01*
X0278053Y0235772D01*
X0281595Y0235772D01*
X0281595Y0232229D02*
X0278053Y0232229D01*
X0278053Y0232622D02*
X0281595Y0232622D01*
X0281595Y0233015D02*
X0278053Y0233015D01*
X0278053Y0233408D02*
X0281595Y0233408D01*
X0281595Y0233801D02*
X0278053Y0233801D01*
X0278053Y0234194D02*
X0281595Y0234194D01*
X0281595Y0234587D02*
X0278053Y0234587D01*
X0278053Y0234980D02*
X0281595Y0234980D01*
X0281595Y0235373D02*
X0278053Y0235373D01*
X0278053Y0235766D02*
X0281595Y0235766D01*
X0281838Y0229521D02*
X0277902Y0229521D01*
X0281838Y0229521D02*
X0281838Y0225979D01*
X0277902Y0225979D01*
X0277902Y0229521D01*
X0277902Y0226372D02*
X0281838Y0226372D01*
X0281838Y0226765D02*
X0277902Y0226765D01*
X0277902Y0227158D02*
X0281838Y0227158D01*
X0281838Y0227551D02*
X0277902Y0227551D01*
X0277902Y0227944D02*
X0281838Y0227944D01*
X0281838Y0228337D02*
X0277902Y0228337D01*
X0277902Y0228730D02*
X0281838Y0228730D01*
X0281838Y0229123D02*
X0277902Y0229123D01*
X0277902Y0229516D02*
X0281838Y0229516D01*
X0275145Y0229521D02*
X0271209Y0229521D01*
X0275145Y0229521D02*
X0275145Y0225979D01*
X0271209Y0225979D01*
X0271209Y0229521D01*
X0271209Y0226372D02*
X0275145Y0226372D01*
X0275145Y0226765D02*
X0271209Y0226765D01*
X0271209Y0227158D02*
X0275145Y0227158D01*
X0275145Y0227551D02*
X0271209Y0227551D01*
X0271209Y0227944D02*
X0275145Y0227944D01*
X0275145Y0228337D02*
X0271209Y0228337D01*
X0271209Y0228730D02*
X0275145Y0228730D01*
X0275145Y0229123D02*
X0271209Y0229123D01*
X0271209Y0229516D02*
X0275145Y0229516D01*
X0275145Y0219821D02*
X0271209Y0219821D01*
X0275145Y0219821D02*
X0275145Y0216279D01*
X0271209Y0216279D01*
X0271209Y0219821D01*
X0271209Y0216672D02*
X0275145Y0216672D01*
X0275145Y0217065D02*
X0271209Y0217065D01*
X0271209Y0217458D02*
X0275145Y0217458D01*
X0275145Y0217851D02*
X0271209Y0217851D01*
X0271209Y0218244D02*
X0275145Y0218244D01*
X0275145Y0218637D02*
X0271209Y0218637D01*
X0271209Y0219030D02*
X0275145Y0219030D01*
X0275145Y0219423D02*
X0271209Y0219423D01*
X0271209Y0219816D02*
X0275145Y0219816D01*
X0277902Y0219821D02*
X0281838Y0219821D01*
X0281838Y0216279D01*
X0277902Y0216279D01*
X0277902Y0219821D01*
X0277902Y0216672D02*
X0281838Y0216672D01*
X0281838Y0217065D02*
X0277902Y0217065D01*
X0277902Y0217458D02*
X0281838Y0217458D01*
X0281838Y0217851D02*
X0277902Y0217851D01*
X0277902Y0218244D02*
X0281838Y0218244D01*
X0281838Y0218637D02*
X0277902Y0218637D01*
X0277902Y0219030D02*
X0281838Y0219030D01*
X0281838Y0219423D02*
X0277902Y0219423D01*
X0277902Y0219816D02*
X0281838Y0219816D01*
X0236838Y0202521D02*
X0232902Y0202521D01*
X0236838Y0202521D02*
X0236838Y0198979D01*
X0232902Y0198979D01*
X0232902Y0202521D01*
X0232902Y0199372D02*
X0236838Y0199372D01*
X0236838Y0199765D02*
X0232902Y0199765D01*
X0232902Y0200158D02*
X0236838Y0200158D01*
X0236838Y0200551D02*
X0232902Y0200551D01*
X0232902Y0200944D02*
X0236838Y0200944D01*
X0236838Y0201337D02*
X0232902Y0201337D01*
X0232902Y0201730D02*
X0236838Y0201730D01*
X0236838Y0202123D02*
X0232902Y0202123D01*
X0232902Y0202516D02*
X0236838Y0202516D01*
X0230145Y0202521D02*
X0226209Y0202521D01*
X0230145Y0202521D02*
X0230145Y0198979D01*
X0226209Y0198979D01*
X0226209Y0202521D01*
X0226209Y0199372D02*
X0230145Y0199372D01*
X0230145Y0199765D02*
X0226209Y0199765D01*
X0226209Y0200158D02*
X0230145Y0200158D01*
X0230145Y0200551D02*
X0226209Y0200551D01*
X0226209Y0200944D02*
X0230145Y0200944D01*
X0230145Y0201337D02*
X0226209Y0201337D01*
X0226209Y0201730D02*
X0230145Y0201730D01*
X0230145Y0202123D02*
X0226209Y0202123D01*
X0226209Y0202516D02*
X0230145Y0202516D01*
X0229145Y0155521D02*
X0225209Y0155521D01*
X0229145Y0155521D02*
X0229145Y0151979D01*
X0225209Y0151979D01*
X0225209Y0155521D01*
X0225209Y0152372D02*
X0229145Y0152372D01*
X0229145Y0152765D02*
X0225209Y0152765D01*
X0225209Y0153158D02*
X0229145Y0153158D01*
X0229145Y0153551D02*
X0225209Y0153551D01*
X0225209Y0153944D02*
X0229145Y0153944D01*
X0229145Y0154337D02*
X0225209Y0154337D01*
X0225209Y0154730D02*
X0229145Y0154730D01*
X0229145Y0155123D02*
X0225209Y0155123D01*
X0225209Y0155516D02*
X0229145Y0155516D01*
X0231902Y0155521D02*
X0235838Y0155521D01*
X0235838Y0151979D01*
X0231902Y0151979D01*
X0231902Y0155521D01*
X0231902Y0152372D02*
X0235838Y0152372D01*
X0235838Y0152765D02*
X0231902Y0152765D01*
X0231902Y0153158D02*
X0235838Y0153158D01*
X0235838Y0153551D02*
X0231902Y0153551D01*
X0231902Y0153944D02*
X0235838Y0153944D01*
X0235838Y0154337D02*
X0231902Y0154337D01*
X0231902Y0154730D02*
X0235838Y0154730D01*
X0235838Y0155123D02*
X0231902Y0155123D01*
X0231902Y0155516D02*
X0235838Y0155516D01*
X0275209Y0153979D02*
X0279145Y0153979D01*
X0275209Y0153979D02*
X0275209Y0157521D01*
X0279145Y0157521D01*
X0279145Y0153979D01*
X0279145Y0154372D02*
X0275209Y0154372D01*
X0275209Y0154765D02*
X0279145Y0154765D01*
X0279145Y0155158D02*
X0275209Y0155158D01*
X0275209Y0155551D02*
X0279145Y0155551D01*
X0279145Y0155944D02*
X0275209Y0155944D01*
X0275209Y0156337D02*
X0279145Y0156337D01*
X0279145Y0156730D02*
X0275209Y0156730D01*
X0275209Y0157123D02*
X0279145Y0157123D01*
X0279145Y0157516D02*
X0275209Y0157516D01*
X0281902Y0153979D02*
X0285838Y0153979D01*
X0281902Y0153979D02*
X0281902Y0157521D01*
X0285838Y0157521D01*
X0285838Y0153979D01*
X0285838Y0154372D02*
X0281902Y0154372D01*
X0281902Y0154765D02*
X0285838Y0154765D01*
X0285838Y0155158D02*
X0281902Y0155158D01*
X0281902Y0155551D02*
X0285838Y0155551D01*
X0285838Y0155944D02*
X0281902Y0155944D01*
X0281902Y0156337D02*
X0285838Y0156337D01*
X0285838Y0156730D02*
X0281902Y0156730D01*
X0281902Y0157123D02*
X0285838Y0157123D01*
X0285838Y0157516D02*
X0281902Y0157516D01*
X0316209Y0174521D02*
X0320145Y0174521D01*
X0320145Y0170979D01*
X0316209Y0170979D01*
X0316209Y0174521D01*
X0316209Y0171372D02*
X0320145Y0171372D01*
X0320145Y0171765D02*
X0316209Y0171765D01*
X0316209Y0172158D02*
X0320145Y0172158D01*
X0320145Y0172551D02*
X0316209Y0172551D01*
X0316209Y0172944D02*
X0320145Y0172944D01*
X0320145Y0173337D02*
X0316209Y0173337D01*
X0316209Y0173730D02*
X0320145Y0173730D01*
X0320145Y0174123D02*
X0316209Y0174123D01*
X0316209Y0174516D02*
X0320145Y0174516D01*
X0322902Y0174521D02*
X0326838Y0174521D01*
X0326838Y0170979D01*
X0322902Y0170979D01*
X0322902Y0174521D01*
X0322902Y0171372D02*
X0326838Y0171372D01*
X0326838Y0171765D02*
X0322902Y0171765D01*
X0322902Y0172158D02*
X0326838Y0172158D01*
X0326838Y0172551D02*
X0322902Y0172551D01*
X0322902Y0172944D02*
X0326838Y0172944D01*
X0326838Y0173337D02*
X0322902Y0173337D01*
X0322902Y0173730D02*
X0326838Y0173730D01*
X0326838Y0174123D02*
X0322902Y0174123D01*
X0322902Y0174516D02*
X0326838Y0174516D01*
X0349209Y0193979D02*
X0353145Y0193979D01*
X0349209Y0193979D02*
X0349209Y0197521D01*
X0353145Y0197521D01*
X0353145Y0193979D01*
X0353145Y0194372D02*
X0349209Y0194372D01*
X0349209Y0194765D02*
X0353145Y0194765D01*
X0353145Y0195158D02*
X0349209Y0195158D01*
X0349209Y0195551D02*
X0353145Y0195551D01*
X0353145Y0195944D02*
X0349209Y0195944D01*
X0349209Y0196337D02*
X0353145Y0196337D01*
X0353145Y0196730D02*
X0349209Y0196730D01*
X0349209Y0197123D02*
X0353145Y0197123D01*
X0353145Y0197516D02*
X0349209Y0197516D01*
X0355902Y0193979D02*
X0359838Y0193979D01*
X0355902Y0193979D02*
X0355902Y0197521D01*
X0359838Y0197521D01*
X0359838Y0193979D01*
X0359838Y0194372D02*
X0355902Y0194372D01*
X0355902Y0194765D02*
X0359838Y0194765D01*
X0359838Y0195158D02*
X0355902Y0195158D01*
X0355902Y0195551D02*
X0359838Y0195551D01*
X0359838Y0195944D02*
X0355902Y0195944D01*
X0355902Y0196337D02*
X0359838Y0196337D01*
X0359838Y0196730D02*
X0355902Y0196730D01*
X0355902Y0197123D02*
X0359838Y0197123D01*
X0359838Y0197516D02*
X0355902Y0197516D01*
X0355902Y0212979D02*
X0359838Y0212979D01*
X0355902Y0212979D02*
X0355902Y0216521D01*
X0359838Y0216521D01*
X0359838Y0212979D01*
X0359838Y0213372D02*
X0355902Y0213372D01*
X0355902Y0213765D02*
X0359838Y0213765D01*
X0359838Y0214158D02*
X0355902Y0214158D01*
X0355902Y0214551D02*
X0359838Y0214551D01*
X0359838Y0214944D02*
X0355902Y0214944D01*
X0355902Y0215337D02*
X0359838Y0215337D01*
X0359838Y0215730D02*
X0355902Y0215730D01*
X0355902Y0216123D02*
X0359838Y0216123D01*
X0359838Y0216516D02*
X0355902Y0216516D01*
X0353145Y0212979D02*
X0349209Y0212979D01*
X0349209Y0216521D01*
X0353145Y0216521D01*
X0353145Y0212979D01*
X0353145Y0213372D02*
X0349209Y0213372D01*
X0349209Y0213765D02*
X0353145Y0213765D01*
X0353145Y0214158D02*
X0349209Y0214158D01*
X0349209Y0214551D02*
X0353145Y0214551D01*
X0353145Y0214944D02*
X0349209Y0214944D01*
X0349209Y0215337D02*
X0353145Y0215337D01*
X0353145Y0215730D02*
X0349209Y0215730D01*
X0349209Y0216123D02*
X0353145Y0216123D01*
X0353145Y0216516D02*
X0349209Y0216516D01*
X0349209Y0227521D02*
X0353145Y0227521D01*
X0353145Y0223979D01*
X0349209Y0223979D01*
X0349209Y0227521D01*
X0349209Y0224372D02*
X0353145Y0224372D01*
X0353145Y0224765D02*
X0349209Y0224765D01*
X0349209Y0225158D02*
X0353145Y0225158D01*
X0353145Y0225551D02*
X0349209Y0225551D01*
X0349209Y0225944D02*
X0353145Y0225944D01*
X0353145Y0226337D02*
X0349209Y0226337D01*
X0349209Y0226730D02*
X0353145Y0226730D01*
X0353145Y0227123D02*
X0349209Y0227123D01*
X0349209Y0227516D02*
X0353145Y0227516D01*
X0355902Y0227521D02*
X0359838Y0227521D01*
X0359838Y0223979D01*
X0355902Y0223979D01*
X0355902Y0227521D01*
X0355902Y0224372D02*
X0359838Y0224372D01*
X0359838Y0224765D02*
X0355902Y0224765D01*
X0355902Y0225158D02*
X0359838Y0225158D01*
X0359838Y0225551D02*
X0355902Y0225551D01*
X0355902Y0225944D02*
X0359838Y0225944D01*
X0359838Y0226337D02*
X0355902Y0226337D01*
X0355902Y0226730D02*
X0359838Y0226730D01*
X0359838Y0227123D02*
X0355902Y0227123D01*
X0355902Y0227516D02*
X0359838Y0227516D01*
X0359838Y0233979D02*
X0355902Y0233979D01*
X0355902Y0237521D01*
X0359838Y0237521D01*
X0359838Y0233979D01*
X0359838Y0234372D02*
X0355902Y0234372D01*
X0355902Y0234765D02*
X0359838Y0234765D01*
X0359838Y0235158D02*
X0355902Y0235158D01*
X0355902Y0235551D02*
X0359838Y0235551D01*
X0359838Y0235944D02*
X0355902Y0235944D01*
X0355902Y0236337D02*
X0359838Y0236337D01*
X0359838Y0236730D02*
X0355902Y0236730D01*
X0355902Y0237123D02*
X0359838Y0237123D01*
X0359838Y0237516D02*
X0355902Y0237516D01*
X0353145Y0233979D02*
X0349209Y0233979D01*
X0349209Y0237521D01*
X0353145Y0237521D01*
X0353145Y0233979D01*
X0353145Y0234372D02*
X0349209Y0234372D01*
X0349209Y0234765D02*
X0353145Y0234765D01*
X0353145Y0235158D02*
X0349209Y0235158D01*
X0349209Y0235551D02*
X0353145Y0235551D01*
X0353145Y0235944D02*
X0349209Y0235944D01*
X0349209Y0236337D02*
X0353145Y0236337D01*
X0353145Y0236730D02*
X0349209Y0236730D01*
X0349209Y0237123D02*
X0353145Y0237123D01*
X0353145Y0237516D02*
X0349209Y0237516D01*
X0458209Y0280979D02*
X0462145Y0280979D01*
X0458209Y0280979D02*
X0458209Y0284521D01*
X0462145Y0284521D01*
X0462145Y0280979D01*
X0462145Y0281372D02*
X0458209Y0281372D01*
X0458209Y0281765D02*
X0462145Y0281765D01*
X0462145Y0282158D02*
X0458209Y0282158D01*
X0458209Y0282551D02*
X0462145Y0282551D01*
X0462145Y0282944D02*
X0458209Y0282944D01*
X0458209Y0283337D02*
X0462145Y0283337D01*
X0462145Y0283730D02*
X0458209Y0283730D01*
X0458209Y0284123D02*
X0462145Y0284123D01*
X0462145Y0284516D02*
X0458209Y0284516D01*
X0464902Y0280979D02*
X0468838Y0280979D01*
X0464902Y0280979D02*
X0464902Y0284521D01*
X0468838Y0284521D01*
X0468838Y0280979D01*
X0468838Y0281372D02*
X0464902Y0281372D01*
X0464902Y0281765D02*
X0468838Y0281765D01*
X0468838Y0282158D02*
X0464902Y0282158D01*
X0464902Y0282551D02*
X0468838Y0282551D01*
X0468838Y0282944D02*
X0464902Y0282944D01*
X0464902Y0283337D02*
X0468838Y0283337D01*
X0468838Y0283730D02*
X0464902Y0283730D01*
X0464902Y0284123D02*
X0468838Y0284123D01*
X0468838Y0284516D02*
X0464902Y0284516D01*
D11*
X0279524Y0281750D03*
X0239524Y0281750D03*
D12*
X0514524Y0249750D03*
X0512524Y0144750D03*
D13*
X0514524Y0278750D03*
X0504524Y0278750D03*
X0277524Y0309750D03*
X0267524Y0309750D03*
X0257524Y0309750D03*
X0247524Y0309750D03*
X0237524Y0309750D03*
X0227524Y0309750D03*
X0217524Y0309750D03*
X0207524Y0309750D03*
X0192524Y0309750D03*
X0182524Y0309750D03*
X0172524Y0309750D03*
X0162524Y0309750D03*
X0152524Y0309750D03*
X0142524Y0309750D03*
X0132524Y0309750D03*
X0122524Y0309750D03*
X0157524Y0119750D03*
X0167524Y0119750D03*
X0177524Y0119750D03*
X0187524Y0119750D03*
X0197524Y0119750D03*
X0207524Y0119750D03*
X0227524Y0119750D03*
X0237524Y0119750D03*
X0247524Y0119750D03*
X0257524Y0119750D03*
X0267524Y0119750D03*
X0277524Y0119750D03*
D14*
X0391793Y0180185D02*
X0394137Y0180185D01*
X0391793Y0180185D02*
X0391793Y0183315D01*
X0394137Y0183315D01*
X0394137Y0180185D01*
X0394137Y0180597D02*
X0391793Y0180597D01*
X0391793Y0181009D02*
X0394137Y0181009D01*
X0394137Y0181421D02*
X0391793Y0181421D01*
X0391793Y0181833D02*
X0394137Y0181833D01*
X0394137Y0182245D02*
X0391793Y0182245D01*
X0391793Y0182657D02*
X0394137Y0182657D01*
X0394137Y0183069D02*
X0391793Y0183069D01*
X0396911Y0180185D02*
X0399255Y0180185D01*
X0396911Y0180185D02*
X0396911Y0183315D01*
X0399255Y0183315D01*
X0399255Y0180185D01*
X0399255Y0180597D02*
X0396911Y0180597D01*
X0396911Y0181009D02*
X0399255Y0181009D01*
X0399255Y0181421D02*
X0396911Y0181421D01*
X0396911Y0181833D02*
X0399255Y0181833D01*
X0399255Y0182245D02*
X0396911Y0182245D01*
X0396911Y0182657D02*
X0399255Y0182657D01*
X0399255Y0183069D02*
X0396911Y0183069D01*
D15*
X0407024Y0199750D02*
X0410024Y0199750D01*
X0410024Y0209750D02*
X0407024Y0209750D01*
X0407024Y0219750D02*
X0410024Y0219750D01*
X0383024Y0219750D02*
X0380024Y0219750D01*
X0380024Y0209750D02*
X0383024Y0209750D01*
X0383024Y0199750D02*
X0380024Y0199750D01*
D16*
X0322635Y0274246D02*
X0319893Y0274246D01*
X0319893Y0277380D01*
X0322635Y0277380D01*
X0322635Y0274246D01*
X0322635Y0274654D02*
X0319893Y0274654D01*
X0319893Y0275062D02*
X0322635Y0275062D01*
X0322635Y0275470D02*
X0319893Y0275470D01*
X0319893Y0275878D02*
X0322635Y0275878D01*
X0322635Y0276286D02*
X0319893Y0276286D01*
X0319893Y0276694D02*
X0322635Y0276694D01*
X0322635Y0277102D02*
X0319893Y0277102D01*
X0315154Y0274246D02*
X0312412Y0274246D01*
X0312412Y0277380D01*
X0315154Y0277380D01*
X0315154Y0274246D01*
X0315154Y0274654D02*
X0312412Y0274654D01*
X0312412Y0275062D02*
X0315154Y0275062D01*
X0315154Y0275470D02*
X0312412Y0275470D01*
X0312412Y0275878D02*
X0315154Y0275878D01*
X0315154Y0276286D02*
X0312412Y0276286D01*
X0312412Y0276694D02*
X0315154Y0276694D01*
X0315154Y0277102D02*
X0312412Y0277102D01*
X0316153Y0282514D02*
X0318895Y0282514D01*
X0316153Y0282514D02*
X0316153Y0285648D01*
X0318895Y0285648D01*
X0318895Y0282514D01*
X0318895Y0282922D02*
X0316153Y0282922D01*
X0316153Y0283330D02*
X0318895Y0283330D01*
X0318895Y0283738D02*
X0316153Y0283738D01*
X0316153Y0284146D02*
X0318895Y0284146D01*
X0318895Y0284554D02*
X0316153Y0284554D01*
X0316153Y0284962D02*
X0318895Y0284962D01*
X0318895Y0285370D02*
X0316153Y0285370D01*
D17*
X0136151Y0268702D02*
X0134377Y0268702D01*
X0134377Y0273036D01*
X0136151Y0273036D01*
X0136151Y0268702D01*
X0136151Y0269091D02*
X0134377Y0269091D01*
X0134377Y0269480D02*
X0136151Y0269480D01*
X0136151Y0269869D02*
X0134377Y0269869D01*
X0134377Y0270258D02*
X0136151Y0270258D01*
X0136151Y0270647D02*
X0134377Y0270647D01*
X0134377Y0271036D02*
X0136151Y0271036D01*
X0136151Y0271425D02*
X0134377Y0271425D01*
X0134377Y0271814D02*
X0136151Y0271814D01*
X0136151Y0272203D02*
X0134377Y0272203D01*
X0134377Y0272592D02*
X0136151Y0272592D01*
X0136151Y0272981D02*
X0134377Y0272981D01*
X0132411Y0273036D02*
X0130637Y0273036D01*
X0132411Y0273036D02*
X0132411Y0268702D01*
X0130637Y0268702D01*
X0130637Y0273036D01*
X0130637Y0269091D02*
X0132411Y0269091D01*
X0132411Y0269480D02*
X0130637Y0269480D01*
X0130637Y0269869D02*
X0132411Y0269869D01*
X0132411Y0270258D02*
X0130637Y0270258D01*
X0130637Y0270647D02*
X0132411Y0270647D01*
X0132411Y0271036D02*
X0130637Y0271036D01*
X0130637Y0271425D02*
X0132411Y0271425D01*
X0132411Y0271814D02*
X0130637Y0271814D01*
X0130637Y0272203D02*
X0132411Y0272203D01*
X0132411Y0272592D02*
X0130637Y0272592D01*
X0130637Y0272981D02*
X0132411Y0272981D01*
X0128670Y0268702D02*
X0126896Y0268702D01*
X0126896Y0273036D01*
X0128670Y0273036D01*
X0128670Y0268702D01*
X0128670Y0269091D02*
X0126896Y0269091D01*
X0126896Y0269480D02*
X0128670Y0269480D01*
X0128670Y0269869D02*
X0126896Y0269869D01*
X0126896Y0270258D02*
X0128670Y0270258D01*
X0128670Y0270647D02*
X0126896Y0270647D01*
X0126896Y0271036D02*
X0128670Y0271036D01*
X0128670Y0271425D02*
X0126896Y0271425D01*
X0126896Y0271814D02*
X0128670Y0271814D01*
X0128670Y0272203D02*
X0126896Y0272203D01*
X0126896Y0272592D02*
X0128670Y0272592D01*
X0128670Y0272981D02*
X0126896Y0272981D01*
X0126896Y0258464D02*
X0128670Y0258464D01*
X0126896Y0258464D02*
X0126896Y0262798D01*
X0128670Y0262798D01*
X0128670Y0258464D01*
X0128670Y0258853D02*
X0126896Y0258853D01*
X0126896Y0259242D02*
X0128670Y0259242D01*
X0128670Y0259631D02*
X0126896Y0259631D01*
X0126896Y0260020D02*
X0128670Y0260020D01*
X0128670Y0260409D02*
X0126896Y0260409D01*
X0126896Y0260798D02*
X0128670Y0260798D01*
X0128670Y0261187D02*
X0126896Y0261187D01*
X0126896Y0261576D02*
X0128670Y0261576D01*
X0128670Y0261965D02*
X0126896Y0261965D01*
X0126896Y0262354D02*
X0128670Y0262354D01*
X0128670Y0262743D02*
X0126896Y0262743D01*
X0130637Y0258464D02*
X0132411Y0258464D01*
X0130637Y0258464D02*
X0130637Y0262798D01*
X0132411Y0262798D01*
X0132411Y0258464D01*
X0132411Y0258853D02*
X0130637Y0258853D01*
X0130637Y0259242D02*
X0132411Y0259242D01*
X0132411Y0259631D02*
X0130637Y0259631D01*
X0130637Y0260020D02*
X0132411Y0260020D01*
X0132411Y0260409D02*
X0130637Y0260409D01*
X0130637Y0260798D02*
X0132411Y0260798D01*
X0132411Y0261187D02*
X0130637Y0261187D01*
X0130637Y0261576D02*
X0132411Y0261576D01*
X0132411Y0261965D02*
X0130637Y0261965D01*
X0130637Y0262354D02*
X0132411Y0262354D01*
X0132411Y0262743D02*
X0130637Y0262743D01*
X0134377Y0258464D02*
X0136151Y0258464D01*
X0134377Y0258464D02*
X0134377Y0262798D01*
X0136151Y0262798D01*
X0136151Y0258464D01*
X0136151Y0258853D02*
X0134377Y0258853D01*
X0134377Y0259242D02*
X0136151Y0259242D01*
X0136151Y0259631D02*
X0134377Y0259631D01*
X0134377Y0260020D02*
X0136151Y0260020D01*
X0136151Y0260409D02*
X0134377Y0260409D01*
X0134377Y0260798D02*
X0136151Y0260798D01*
X0136151Y0261187D02*
X0134377Y0261187D01*
X0134377Y0261576D02*
X0136151Y0261576D01*
X0136151Y0261965D02*
X0134377Y0261965D01*
X0134377Y0262354D02*
X0136151Y0262354D01*
X0136151Y0262743D02*
X0134377Y0262743D01*
D18*
X0223158Y0252730D02*
X0223158Y0250770D01*
X0223158Y0252730D02*
X0231416Y0252730D01*
X0231416Y0250770D01*
X0223158Y0250770D01*
X0223158Y0251171D02*
X0231416Y0251171D01*
X0231416Y0251572D02*
X0223158Y0251572D01*
X0223158Y0251973D02*
X0231416Y0251973D01*
X0231416Y0252374D02*
X0223158Y0252374D01*
X0223158Y0247730D02*
X0223158Y0245770D01*
X0223158Y0247730D02*
X0231416Y0247730D01*
X0231416Y0245770D01*
X0223158Y0245770D01*
X0223158Y0246171D02*
X0231416Y0246171D01*
X0231416Y0246572D02*
X0223158Y0246572D01*
X0223158Y0246973D02*
X0231416Y0246973D01*
X0231416Y0247374D02*
X0223158Y0247374D01*
X0223158Y0242730D02*
X0223158Y0240770D01*
X0223158Y0242730D02*
X0231416Y0242730D01*
X0231416Y0240770D01*
X0223158Y0240770D01*
X0223158Y0241171D02*
X0231416Y0241171D01*
X0231416Y0241572D02*
X0223158Y0241572D01*
X0223158Y0241973D02*
X0231416Y0241973D01*
X0231416Y0242374D02*
X0223158Y0242374D01*
X0223158Y0237730D02*
X0223158Y0235770D01*
X0223158Y0237730D02*
X0231416Y0237730D01*
X0231416Y0235770D01*
X0223158Y0235770D01*
X0223158Y0236171D02*
X0231416Y0236171D01*
X0231416Y0236572D02*
X0223158Y0236572D01*
X0223158Y0236973D02*
X0231416Y0236973D01*
X0231416Y0237374D02*
X0223158Y0237374D01*
X0231416Y0232730D02*
X0231416Y0230770D01*
X0223158Y0230770D01*
X0223158Y0232730D01*
X0231416Y0232730D01*
X0231416Y0231171D02*
X0223158Y0231171D01*
X0223158Y0231572D02*
X0231416Y0231572D01*
X0231416Y0231973D02*
X0223158Y0231973D01*
X0223158Y0232374D02*
X0231416Y0232374D01*
X0231416Y0227730D02*
X0231416Y0225770D01*
X0223158Y0225770D01*
X0223158Y0227730D01*
X0231416Y0227730D01*
X0231416Y0226171D02*
X0223158Y0226171D01*
X0223158Y0226572D02*
X0231416Y0226572D01*
X0231416Y0226973D02*
X0223158Y0226973D01*
X0223158Y0227374D02*
X0231416Y0227374D01*
X0231416Y0222730D02*
X0231416Y0220770D01*
X0223158Y0220770D01*
X0223158Y0222730D01*
X0231416Y0222730D01*
X0231416Y0221171D02*
X0223158Y0221171D01*
X0223158Y0221572D02*
X0231416Y0221572D01*
X0231416Y0221973D02*
X0223158Y0221973D01*
X0223158Y0222374D02*
X0231416Y0222374D01*
X0243631Y0222730D02*
X0243631Y0220770D01*
X0243631Y0222730D02*
X0251889Y0222730D01*
X0251889Y0220770D01*
X0243631Y0220770D01*
X0243631Y0221171D02*
X0251889Y0221171D01*
X0251889Y0221572D02*
X0243631Y0221572D01*
X0243631Y0221973D02*
X0251889Y0221973D01*
X0251889Y0222374D02*
X0243631Y0222374D01*
X0243631Y0225770D02*
X0243631Y0227730D01*
X0251889Y0227730D01*
X0251889Y0225770D01*
X0243631Y0225770D01*
X0243631Y0226171D02*
X0251889Y0226171D01*
X0251889Y0226572D02*
X0243631Y0226572D01*
X0243631Y0226973D02*
X0251889Y0226973D01*
X0251889Y0227374D02*
X0243631Y0227374D01*
X0243631Y0230770D02*
X0243631Y0232730D01*
X0251889Y0232730D01*
X0251889Y0230770D01*
X0243631Y0230770D01*
X0243631Y0231171D02*
X0251889Y0231171D01*
X0251889Y0231572D02*
X0243631Y0231572D01*
X0243631Y0231973D02*
X0251889Y0231973D01*
X0251889Y0232374D02*
X0243631Y0232374D01*
X0243631Y0235770D02*
X0243631Y0237730D01*
X0251889Y0237730D01*
X0251889Y0235770D01*
X0243631Y0235770D01*
X0243631Y0236171D02*
X0251889Y0236171D01*
X0251889Y0236572D02*
X0243631Y0236572D01*
X0243631Y0236973D02*
X0251889Y0236973D01*
X0251889Y0237374D02*
X0243631Y0237374D01*
X0243631Y0240770D02*
X0243631Y0242730D01*
X0251889Y0242730D01*
X0251889Y0240770D01*
X0243631Y0240770D01*
X0243631Y0241171D02*
X0251889Y0241171D01*
X0251889Y0241572D02*
X0243631Y0241572D01*
X0243631Y0241973D02*
X0251889Y0241973D01*
X0251889Y0242374D02*
X0243631Y0242374D01*
X0243631Y0245770D02*
X0243631Y0247730D01*
X0251889Y0247730D01*
X0251889Y0245770D01*
X0243631Y0245770D01*
X0243631Y0246171D02*
X0251889Y0246171D01*
X0251889Y0246572D02*
X0243631Y0246572D01*
X0243631Y0246973D02*
X0251889Y0246973D01*
X0251889Y0247374D02*
X0243631Y0247374D01*
X0243631Y0250770D02*
X0243631Y0252730D01*
X0251889Y0252730D01*
X0251889Y0250770D01*
X0243631Y0250770D01*
X0243631Y0251171D02*
X0251889Y0251171D01*
X0251889Y0251572D02*
X0243631Y0251572D01*
X0243631Y0251973D02*
X0251889Y0251973D01*
X0251889Y0252374D02*
X0243631Y0252374D01*
D19*
X0311122Y0303148D02*
X0315926Y0303148D01*
X0311122Y0303148D02*
X0311122Y0304952D01*
X0315926Y0304952D01*
X0315926Y0303148D01*
X0315926Y0303543D02*
X0311122Y0303543D01*
X0311122Y0303938D02*
X0315926Y0303938D01*
X0315926Y0304333D02*
X0311122Y0304333D01*
X0311122Y0304728D02*
X0315926Y0304728D01*
X0319122Y0306848D02*
X0323926Y0306848D01*
X0319122Y0306848D02*
X0319122Y0308652D01*
X0323926Y0308652D01*
X0323926Y0306848D01*
X0323926Y0307243D02*
X0319122Y0307243D01*
X0319122Y0307638D02*
X0323926Y0307638D01*
X0323926Y0308033D02*
X0319122Y0308033D01*
X0319122Y0308428D02*
X0323926Y0308428D01*
X0315926Y0310548D02*
X0311122Y0310548D01*
X0311122Y0312352D01*
X0315926Y0312352D01*
X0315926Y0310548D01*
X0315926Y0310943D02*
X0311122Y0310943D01*
X0311122Y0311338D02*
X0315926Y0311338D01*
X0315926Y0311733D02*
X0311122Y0311733D01*
X0311122Y0312128D02*
X0315926Y0312128D01*
D20*
X0187129Y0247995D02*
X0184919Y0247995D01*
X0184919Y0255605D01*
X0187129Y0255605D01*
X0187129Y0247995D01*
X0187129Y0248384D02*
X0184919Y0248384D01*
X0184919Y0248773D02*
X0187129Y0248773D01*
X0187129Y0249162D02*
X0184919Y0249162D01*
X0184919Y0249551D02*
X0187129Y0249551D01*
X0187129Y0249940D02*
X0184919Y0249940D01*
X0184919Y0250329D02*
X0187129Y0250329D01*
X0187129Y0250718D02*
X0184919Y0250718D01*
X0184919Y0251107D02*
X0187129Y0251107D01*
X0187129Y0251496D02*
X0184919Y0251496D01*
X0184919Y0251885D02*
X0187129Y0251885D01*
X0187129Y0252274D02*
X0184919Y0252274D01*
X0184919Y0252663D02*
X0187129Y0252663D01*
X0187129Y0253052D02*
X0184919Y0253052D01*
X0184919Y0253441D02*
X0187129Y0253441D01*
X0187129Y0253830D02*
X0184919Y0253830D01*
X0184919Y0254219D02*
X0187129Y0254219D01*
X0187129Y0254608D02*
X0184919Y0254608D01*
X0184919Y0254997D02*
X0187129Y0254997D01*
X0187129Y0255386D02*
X0184919Y0255386D01*
X0182129Y0247995D02*
X0179919Y0247995D01*
X0179919Y0255605D01*
X0182129Y0255605D01*
X0182129Y0247995D01*
X0182129Y0248384D02*
X0179919Y0248384D01*
X0179919Y0248773D02*
X0182129Y0248773D01*
X0182129Y0249162D02*
X0179919Y0249162D01*
X0179919Y0249551D02*
X0182129Y0249551D01*
X0182129Y0249940D02*
X0179919Y0249940D01*
X0179919Y0250329D02*
X0182129Y0250329D01*
X0182129Y0250718D02*
X0179919Y0250718D01*
X0179919Y0251107D02*
X0182129Y0251107D01*
X0182129Y0251496D02*
X0179919Y0251496D01*
X0179919Y0251885D02*
X0182129Y0251885D01*
X0182129Y0252274D02*
X0179919Y0252274D01*
X0179919Y0252663D02*
X0182129Y0252663D01*
X0182129Y0253052D02*
X0179919Y0253052D01*
X0179919Y0253441D02*
X0182129Y0253441D01*
X0182129Y0253830D02*
X0179919Y0253830D01*
X0179919Y0254219D02*
X0182129Y0254219D01*
X0182129Y0254608D02*
X0179919Y0254608D01*
X0179919Y0254997D02*
X0182129Y0254997D01*
X0182129Y0255386D02*
X0179919Y0255386D01*
X0177129Y0247995D02*
X0174919Y0247995D01*
X0174919Y0255605D01*
X0177129Y0255605D01*
X0177129Y0247995D01*
X0177129Y0248384D02*
X0174919Y0248384D01*
X0174919Y0248773D02*
X0177129Y0248773D01*
X0177129Y0249162D02*
X0174919Y0249162D01*
X0174919Y0249551D02*
X0177129Y0249551D01*
X0177129Y0249940D02*
X0174919Y0249940D01*
X0174919Y0250329D02*
X0177129Y0250329D01*
X0177129Y0250718D02*
X0174919Y0250718D01*
X0174919Y0251107D02*
X0177129Y0251107D01*
X0177129Y0251496D02*
X0174919Y0251496D01*
X0174919Y0251885D02*
X0177129Y0251885D01*
X0177129Y0252274D02*
X0174919Y0252274D01*
X0174919Y0252663D02*
X0177129Y0252663D01*
X0177129Y0253052D02*
X0174919Y0253052D01*
X0174919Y0253441D02*
X0177129Y0253441D01*
X0177129Y0253830D02*
X0174919Y0253830D01*
X0174919Y0254219D02*
X0177129Y0254219D01*
X0177129Y0254608D02*
X0174919Y0254608D01*
X0174919Y0254997D02*
X0177129Y0254997D01*
X0177129Y0255386D02*
X0174919Y0255386D01*
X0172129Y0247995D02*
X0169919Y0247995D01*
X0169919Y0255605D01*
X0172129Y0255605D01*
X0172129Y0247995D01*
X0172129Y0248384D02*
X0169919Y0248384D01*
X0169919Y0248773D02*
X0172129Y0248773D01*
X0172129Y0249162D02*
X0169919Y0249162D01*
X0169919Y0249551D02*
X0172129Y0249551D01*
X0172129Y0249940D02*
X0169919Y0249940D01*
X0169919Y0250329D02*
X0172129Y0250329D01*
X0172129Y0250718D02*
X0169919Y0250718D01*
X0169919Y0251107D02*
X0172129Y0251107D01*
X0172129Y0251496D02*
X0169919Y0251496D01*
X0169919Y0251885D02*
X0172129Y0251885D01*
X0172129Y0252274D02*
X0169919Y0252274D01*
X0169919Y0252663D02*
X0172129Y0252663D01*
X0172129Y0253052D02*
X0169919Y0253052D01*
X0169919Y0253441D02*
X0172129Y0253441D01*
X0172129Y0253830D02*
X0169919Y0253830D01*
X0169919Y0254219D02*
X0172129Y0254219D01*
X0172129Y0254608D02*
X0169919Y0254608D01*
X0169919Y0254997D02*
X0172129Y0254997D01*
X0172129Y0255386D02*
X0169919Y0255386D01*
X0167129Y0247995D02*
X0164919Y0247995D01*
X0164919Y0255605D01*
X0167129Y0255605D01*
X0167129Y0247995D01*
X0167129Y0248384D02*
X0164919Y0248384D01*
X0164919Y0248773D02*
X0167129Y0248773D01*
X0167129Y0249162D02*
X0164919Y0249162D01*
X0164919Y0249551D02*
X0167129Y0249551D01*
X0167129Y0249940D02*
X0164919Y0249940D01*
X0164919Y0250329D02*
X0167129Y0250329D01*
X0167129Y0250718D02*
X0164919Y0250718D01*
X0164919Y0251107D02*
X0167129Y0251107D01*
X0167129Y0251496D02*
X0164919Y0251496D01*
X0164919Y0251885D02*
X0167129Y0251885D01*
X0167129Y0252274D02*
X0164919Y0252274D01*
X0164919Y0252663D02*
X0167129Y0252663D01*
X0167129Y0253052D02*
X0164919Y0253052D01*
X0164919Y0253441D02*
X0167129Y0253441D01*
X0167129Y0253830D02*
X0164919Y0253830D01*
X0164919Y0254219D02*
X0167129Y0254219D01*
X0167129Y0254608D02*
X0164919Y0254608D01*
X0164919Y0254997D02*
X0167129Y0254997D01*
X0167129Y0255386D02*
X0164919Y0255386D01*
X0162129Y0247995D02*
X0159919Y0247995D01*
X0159919Y0255605D01*
X0162129Y0255605D01*
X0162129Y0247995D01*
X0162129Y0248384D02*
X0159919Y0248384D01*
X0159919Y0248773D02*
X0162129Y0248773D01*
X0162129Y0249162D02*
X0159919Y0249162D01*
X0159919Y0249551D02*
X0162129Y0249551D01*
X0162129Y0249940D02*
X0159919Y0249940D01*
X0159919Y0250329D02*
X0162129Y0250329D01*
X0162129Y0250718D02*
X0159919Y0250718D01*
X0159919Y0251107D02*
X0162129Y0251107D01*
X0162129Y0251496D02*
X0159919Y0251496D01*
X0159919Y0251885D02*
X0162129Y0251885D01*
X0162129Y0252274D02*
X0159919Y0252274D01*
X0159919Y0252663D02*
X0162129Y0252663D01*
X0162129Y0253052D02*
X0159919Y0253052D01*
X0159919Y0253441D02*
X0162129Y0253441D01*
X0162129Y0253830D02*
X0159919Y0253830D01*
X0159919Y0254219D02*
X0162129Y0254219D01*
X0162129Y0254608D02*
X0159919Y0254608D01*
X0159919Y0254997D02*
X0162129Y0254997D01*
X0162129Y0255386D02*
X0159919Y0255386D01*
X0157129Y0247995D02*
X0154919Y0247995D01*
X0154919Y0255605D01*
X0157129Y0255605D01*
X0157129Y0247995D01*
X0157129Y0248384D02*
X0154919Y0248384D01*
X0154919Y0248773D02*
X0157129Y0248773D01*
X0157129Y0249162D02*
X0154919Y0249162D01*
X0154919Y0249551D02*
X0157129Y0249551D01*
X0157129Y0249940D02*
X0154919Y0249940D01*
X0154919Y0250329D02*
X0157129Y0250329D01*
X0157129Y0250718D02*
X0154919Y0250718D01*
X0154919Y0251107D02*
X0157129Y0251107D01*
X0157129Y0251496D02*
X0154919Y0251496D01*
X0154919Y0251885D02*
X0157129Y0251885D01*
X0157129Y0252274D02*
X0154919Y0252274D01*
X0154919Y0252663D02*
X0157129Y0252663D01*
X0157129Y0253052D02*
X0154919Y0253052D01*
X0154919Y0253441D02*
X0157129Y0253441D01*
X0157129Y0253830D02*
X0154919Y0253830D01*
X0154919Y0254219D02*
X0157129Y0254219D01*
X0157129Y0254608D02*
X0154919Y0254608D01*
X0154919Y0254997D02*
X0157129Y0254997D01*
X0157129Y0255386D02*
X0154919Y0255386D01*
X0154919Y0221895D02*
X0157129Y0221895D01*
X0154919Y0221895D02*
X0154919Y0229505D01*
X0157129Y0229505D01*
X0157129Y0221895D01*
X0157129Y0222284D02*
X0154919Y0222284D01*
X0154919Y0222673D02*
X0157129Y0222673D01*
X0157129Y0223062D02*
X0154919Y0223062D01*
X0154919Y0223451D02*
X0157129Y0223451D01*
X0157129Y0223840D02*
X0154919Y0223840D01*
X0154919Y0224229D02*
X0157129Y0224229D01*
X0157129Y0224618D02*
X0154919Y0224618D01*
X0154919Y0225007D02*
X0157129Y0225007D01*
X0157129Y0225396D02*
X0154919Y0225396D01*
X0154919Y0225785D02*
X0157129Y0225785D01*
X0157129Y0226174D02*
X0154919Y0226174D01*
X0154919Y0226563D02*
X0157129Y0226563D01*
X0157129Y0226952D02*
X0154919Y0226952D01*
X0154919Y0227341D02*
X0157129Y0227341D01*
X0157129Y0227730D02*
X0154919Y0227730D01*
X0154919Y0228119D02*
X0157129Y0228119D01*
X0157129Y0228508D02*
X0154919Y0228508D01*
X0154919Y0228897D02*
X0157129Y0228897D01*
X0157129Y0229286D02*
X0154919Y0229286D01*
X0159919Y0221895D02*
X0162129Y0221895D01*
X0159919Y0221895D02*
X0159919Y0229505D01*
X0162129Y0229505D01*
X0162129Y0221895D01*
X0162129Y0222284D02*
X0159919Y0222284D01*
X0159919Y0222673D02*
X0162129Y0222673D01*
X0162129Y0223062D02*
X0159919Y0223062D01*
X0159919Y0223451D02*
X0162129Y0223451D01*
X0162129Y0223840D02*
X0159919Y0223840D01*
X0159919Y0224229D02*
X0162129Y0224229D01*
X0162129Y0224618D02*
X0159919Y0224618D01*
X0159919Y0225007D02*
X0162129Y0225007D01*
X0162129Y0225396D02*
X0159919Y0225396D01*
X0159919Y0225785D02*
X0162129Y0225785D01*
X0162129Y0226174D02*
X0159919Y0226174D01*
X0159919Y0226563D02*
X0162129Y0226563D01*
X0162129Y0226952D02*
X0159919Y0226952D01*
X0159919Y0227341D02*
X0162129Y0227341D01*
X0162129Y0227730D02*
X0159919Y0227730D01*
X0159919Y0228119D02*
X0162129Y0228119D01*
X0162129Y0228508D02*
X0159919Y0228508D01*
X0159919Y0228897D02*
X0162129Y0228897D01*
X0162129Y0229286D02*
X0159919Y0229286D01*
X0164919Y0221895D02*
X0167129Y0221895D01*
X0164919Y0221895D02*
X0164919Y0229505D01*
X0167129Y0229505D01*
X0167129Y0221895D01*
X0167129Y0222284D02*
X0164919Y0222284D01*
X0164919Y0222673D02*
X0167129Y0222673D01*
X0167129Y0223062D02*
X0164919Y0223062D01*
X0164919Y0223451D02*
X0167129Y0223451D01*
X0167129Y0223840D02*
X0164919Y0223840D01*
X0164919Y0224229D02*
X0167129Y0224229D01*
X0167129Y0224618D02*
X0164919Y0224618D01*
X0164919Y0225007D02*
X0167129Y0225007D01*
X0167129Y0225396D02*
X0164919Y0225396D01*
X0164919Y0225785D02*
X0167129Y0225785D01*
X0167129Y0226174D02*
X0164919Y0226174D01*
X0164919Y0226563D02*
X0167129Y0226563D01*
X0167129Y0226952D02*
X0164919Y0226952D01*
X0164919Y0227341D02*
X0167129Y0227341D01*
X0167129Y0227730D02*
X0164919Y0227730D01*
X0164919Y0228119D02*
X0167129Y0228119D01*
X0167129Y0228508D02*
X0164919Y0228508D01*
X0164919Y0228897D02*
X0167129Y0228897D01*
X0167129Y0229286D02*
X0164919Y0229286D01*
X0169919Y0221895D02*
X0172129Y0221895D01*
X0169919Y0221895D02*
X0169919Y0229505D01*
X0172129Y0229505D01*
X0172129Y0221895D01*
X0172129Y0222284D02*
X0169919Y0222284D01*
X0169919Y0222673D02*
X0172129Y0222673D01*
X0172129Y0223062D02*
X0169919Y0223062D01*
X0169919Y0223451D02*
X0172129Y0223451D01*
X0172129Y0223840D02*
X0169919Y0223840D01*
X0169919Y0224229D02*
X0172129Y0224229D01*
X0172129Y0224618D02*
X0169919Y0224618D01*
X0169919Y0225007D02*
X0172129Y0225007D01*
X0172129Y0225396D02*
X0169919Y0225396D01*
X0169919Y0225785D02*
X0172129Y0225785D01*
X0172129Y0226174D02*
X0169919Y0226174D01*
X0169919Y0226563D02*
X0172129Y0226563D01*
X0172129Y0226952D02*
X0169919Y0226952D01*
X0169919Y0227341D02*
X0172129Y0227341D01*
X0172129Y0227730D02*
X0169919Y0227730D01*
X0169919Y0228119D02*
X0172129Y0228119D01*
X0172129Y0228508D02*
X0169919Y0228508D01*
X0169919Y0228897D02*
X0172129Y0228897D01*
X0172129Y0229286D02*
X0169919Y0229286D01*
X0174919Y0221895D02*
X0177129Y0221895D01*
X0174919Y0221895D02*
X0174919Y0229505D01*
X0177129Y0229505D01*
X0177129Y0221895D01*
X0177129Y0222284D02*
X0174919Y0222284D01*
X0174919Y0222673D02*
X0177129Y0222673D01*
X0177129Y0223062D02*
X0174919Y0223062D01*
X0174919Y0223451D02*
X0177129Y0223451D01*
X0177129Y0223840D02*
X0174919Y0223840D01*
X0174919Y0224229D02*
X0177129Y0224229D01*
X0177129Y0224618D02*
X0174919Y0224618D01*
X0174919Y0225007D02*
X0177129Y0225007D01*
X0177129Y0225396D02*
X0174919Y0225396D01*
X0174919Y0225785D02*
X0177129Y0225785D01*
X0177129Y0226174D02*
X0174919Y0226174D01*
X0174919Y0226563D02*
X0177129Y0226563D01*
X0177129Y0226952D02*
X0174919Y0226952D01*
X0174919Y0227341D02*
X0177129Y0227341D01*
X0177129Y0227730D02*
X0174919Y0227730D01*
X0174919Y0228119D02*
X0177129Y0228119D01*
X0177129Y0228508D02*
X0174919Y0228508D01*
X0174919Y0228897D02*
X0177129Y0228897D01*
X0177129Y0229286D02*
X0174919Y0229286D01*
X0179919Y0221895D02*
X0182129Y0221895D01*
X0179919Y0221895D02*
X0179919Y0229505D01*
X0182129Y0229505D01*
X0182129Y0221895D01*
X0182129Y0222284D02*
X0179919Y0222284D01*
X0179919Y0222673D02*
X0182129Y0222673D01*
X0182129Y0223062D02*
X0179919Y0223062D01*
X0179919Y0223451D02*
X0182129Y0223451D01*
X0182129Y0223840D02*
X0179919Y0223840D01*
X0179919Y0224229D02*
X0182129Y0224229D01*
X0182129Y0224618D02*
X0179919Y0224618D01*
X0179919Y0225007D02*
X0182129Y0225007D01*
X0182129Y0225396D02*
X0179919Y0225396D01*
X0179919Y0225785D02*
X0182129Y0225785D01*
X0182129Y0226174D02*
X0179919Y0226174D01*
X0179919Y0226563D02*
X0182129Y0226563D01*
X0182129Y0226952D02*
X0179919Y0226952D01*
X0179919Y0227341D02*
X0182129Y0227341D01*
X0182129Y0227730D02*
X0179919Y0227730D01*
X0179919Y0228119D02*
X0182129Y0228119D01*
X0182129Y0228508D02*
X0179919Y0228508D01*
X0179919Y0228897D02*
X0182129Y0228897D01*
X0182129Y0229286D02*
X0179919Y0229286D01*
X0184919Y0221895D02*
X0187129Y0221895D01*
X0184919Y0221895D02*
X0184919Y0229505D01*
X0187129Y0229505D01*
X0187129Y0221895D01*
X0187129Y0222284D02*
X0184919Y0222284D01*
X0184919Y0222673D02*
X0187129Y0222673D01*
X0187129Y0223062D02*
X0184919Y0223062D01*
X0184919Y0223451D02*
X0187129Y0223451D01*
X0187129Y0223840D02*
X0184919Y0223840D01*
X0184919Y0224229D02*
X0187129Y0224229D01*
X0187129Y0224618D02*
X0184919Y0224618D01*
X0184919Y0225007D02*
X0187129Y0225007D01*
X0187129Y0225396D02*
X0184919Y0225396D01*
X0184919Y0225785D02*
X0187129Y0225785D01*
X0187129Y0226174D02*
X0184919Y0226174D01*
X0184919Y0226563D02*
X0187129Y0226563D01*
X0187129Y0226952D02*
X0184919Y0226952D01*
X0184919Y0227341D02*
X0187129Y0227341D01*
X0187129Y0227730D02*
X0184919Y0227730D01*
X0184919Y0228119D02*
X0187129Y0228119D01*
X0187129Y0228508D02*
X0184919Y0228508D01*
X0184919Y0228897D02*
X0187129Y0228897D01*
X0187129Y0229286D02*
X0184919Y0229286D01*
D21*
X0258055Y0081801D03*
X0268055Y0081801D03*
X0278055Y0081801D03*
X0288008Y0081801D03*
X0298008Y0081801D03*
X0308008Y0081801D03*
X0291177Y0018695D03*
X0277476Y0018695D03*
D22*
X0244760Y0014404D03*
X0324287Y0015585D03*
X0324287Y0082750D03*
X0244760Y0082750D03*
D23*
X0511604Y0190907D02*
X0515443Y0190907D01*
X0515443Y0210593D02*
X0511604Y0210593D01*
D24*
X0513039Y0300750D02*
X0516008Y0300750D01*
X0516008Y0310750D02*
X0513039Y0310750D01*
D25*
X0444524Y0233600D02*
X0444524Y0229900D01*
X0434524Y0229900D02*
X0434524Y0233600D01*
D26*
X0116874Y0307581D02*
X0116874Y0006100D01*
X0240579Y0006100D01*
X0239508Y0006544D01*
X0236900Y0009152D01*
X0235489Y0012559D01*
X0235489Y0016248D01*
X0236900Y0019655D01*
X0239508Y0022263D01*
X0242916Y0023675D01*
X0246604Y0023675D01*
X0250012Y0022263D01*
X0252620Y0019655D01*
X0254031Y0016248D01*
X0254031Y0012559D01*
X0252620Y0009152D01*
X0250012Y0006544D01*
X0248940Y0006100D01*
X0532874Y0006100D01*
X0532874Y0316361D01*
X0116874Y0316361D01*
X0116874Y0311919D01*
X0117395Y0313177D01*
X0119097Y0314879D01*
X0121320Y0315800D01*
X0123727Y0315800D01*
X0125951Y0314879D01*
X0127524Y0313306D01*
X0129097Y0314879D01*
X0131320Y0315800D01*
X0133727Y0315800D01*
X0135951Y0314879D01*
X0137524Y0313306D01*
X0139097Y0314879D01*
X0141320Y0315800D01*
X0143727Y0315800D01*
X0145951Y0314879D01*
X0147524Y0313306D01*
X0149097Y0314879D01*
X0151320Y0315800D01*
X0153727Y0315800D01*
X0155951Y0314879D01*
X0157524Y0313306D01*
X0159097Y0314879D01*
X0161320Y0315800D01*
X0163727Y0315800D01*
X0165951Y0314879D01*
X0167524Y0313306D01*
X0169097Y0314879D01*
X0171320Y0315800D01*
X0173727Y0315800D01*
X0175951Y0314879D01*
X0177524Y0313306D01*
X0179097Y0314879D01*
X0181320Y0315800D01*
X0183727Y0315800D01*
X0185951Y0314879D01*
X0187524Y0313306D01*
X0189097Y0314879D01*
X0191320Y0315800D01*
X0193727Y0315800D01*
X0195951Y0314879D01*
X0197653Y0313177D01*
X0198574Y0310953D01*
X0198574Y0308547D01*
X0197653Y0306323D01*
X0195951Y0304621D01*
X0193727Y0303700D01*
X0191320Y0303700D01*
X0189097Y0304621D01*
X0187524Y0306194D01*
X0185951Y0304621D01*
X0183727Y0303700D01*
X0181320Y0303700D01*
X0179097Y0304621D01*
X0177524Y0306194D01*
X0175951Y0304621D01*
X0175624Y0304486D01*
X0175624Y0301034D01*
X0188652Y0288006D01*
X0189124Y0286867D01*
X0189124Y0263827D01*
X0190870Y0264550D01*
X0193177Y0264550D01*
X0195309Y0263667D01*
X0196140Y0262836D01*
X0196702Y0263068D01*
X0201652Y0263068D01*
X0202524Y0262708D01*
X0202770Y0262810D01*
X0202770Y0266713D01*
X0203242Y0267852D01*
X0207940Y0272551D01*
X0207652Y0272431D01*
X0202702Y0272431D01*
X0202494Y0272518D01*
X0201809Y0271833D01*
X0199677Y0270950D01*
X0197370Y0270950D01*
X0195238Y0271833D01*
X0193607Y0273465D01*
X0192724Y0275596D01*
X0192724Y0277904D01*
X0193607Y0280035D01*
X0195238Y0281667D01*
X0197370Y0282550D01*
X0199677Y0282550D01*
X0201809Y0281667D01*
X0202494Y0280982D01*
X0202702Y0281068D01*
X0207652Y0281068D01*
X0208524Y0280708D01*
X0209395Y0281068D01*
X0214345Y0281068D01*
X0215281Y0280681D01*
X0215998Y0279964D01*
X0216385Y0279028D01*
X0216385Y0274631D01*
X0216424Y0274689D01*
X0216424Y0286335D01*
X0216371Y0286529D01*
X0216424Y0286946D01*
X0216424Y0287367D01*
X0216501Y0287553D01*
X0216526Y0287753D01*
X0216735Y0288118D01*
X0216896Y0288506D01*
X0217038Y0288648D01*
X0217210Y0288950D01*
X0215370Y0288950D01*
X0213238Y0289833D01*
X0211607Y0291465D01*
X0211530Y0291650D01*
X0209907Y0291650D01*
X0208768Y0292122D01*
X0205768Y0295122D01*
X0204896Y0295994D01*
X0204424Y0297133D01*
X0204424Y0300367D01*
X0204896Y0301506D01*
X0207090Y0303700D01*
X0206320Y0303700D01*
X0204097Y0304621D01*
X0202395Y0306323D01*
X0201474Y0308547D01*
X0201474Y0310953D01*
X0202395Y0313177D01*
X0204097Y0314879D01*
X0206320Y0315800D01*
X0208727Y0315800D01*
X0210951Y0314879D01*
X0212524Y0313306D01*
X0214097Y0314879D01*
X0216320Y0315800D01*
X0218727Y0315800D01*
X0220951Y0314879D01*
X0222524Y0313306D01*
X0224097Y0314879D01*
X0226320Y0315800D01*
X0228727Y0315800D01*
X0230951Y0314879D01*
X0232524Y0313306D01*
X0234097Y0314879D01*
X0236320Y0315800D01*
X0238727Y0315800D01*
X0240951Y0314879D01*
X0242524Y0313306D01*
X0244097Y0314879D01*
X0246320Y0315800D01*
X0248727Y0315800D01*
X0250951Y0314879D01*
X0252524Y0313306D01*
X0254097Y0314879D01*
X0256320Y0315800D01*
X0258727Y0315800D01*
X0260951Y0314879D01*
X0262524Y0313306D01*
X0264097Y0314879D01*
X0266320Y0315800D01*
X0268727Y0315800D01*
X0270951Y0314879D01*
X0272524Y0313306D01*
X0274097Y0314879D01*
X0276320Y0315800D01*
X0278727Y0315800D01*
X0280951Y0314879D01*
X0282653Y0313177D01*
X0283574Y0310953D01*
X0283574Y0308547D01*
X0282653Y0306323D01*
X0280951Y0304621D01*
X0278727Y0303700D01*
X0276320Y0303700D01*
X0274097Y0304621D01*
X0272524Y0306194D01*
X0270951Y0304621D01*
X0268727Y0303700D01*
X0266320Y0303700D01*
X0264097Y0304621D01*
X0262524Y0306194D01*
X0260951Y0304621D01*
X0258727Y0303700D01*
X0256320Y0303700D01*
X0254097Y0304621D01*
X0252524Y0306194D01*
X0250951Y0304621D01*
X0250624Y0304486D01*
X0250624Y0299034D01*
X0251114Y0298543D01*
X0252238Y0299667D01*
X0254370Y0300550D01*
X0256677Y0300550D01*
X0258809Y0299667D01*
X0260441Y0298035D01*
X0261324Y0295904D01*
X0261324Y0293596D01*
X0260441Y0291465D01*
X0258809Y0289833D01*
X0256677Y0288950D01*
X0254370Y0288950D01*
X0252238Y0289833D01*
X0250607Y0291465D01*
X0250530Y0291650D01*
X0249907Y0291650D01*
X0248768Y0292122D01*
X0245768Y0295122D01*
X0244896Y0295994D01*
X0244424Y0297133D01*
X0244424Y0304486D01*
X0244097Y0304621D01*
X0242524Y0306194D01*
X0240951Y0304621D01*
X0238727Y0303700D01*
X0236320Y0303700D01*
X0234097Y0304621D01*
X0232524Y0306194D01*
X0230951Y0304621D01*
X0230624Y0304486D01*
X0230624Y0301165D01*
X0230677Y0300971D01*
X0230624Y0300554D01*
X0230624Y0300133D01*
X0230547Y0299947D01*
X0230521Y0299747D01*
X0230313Y0299382D01*
X0230152Y0298994D01*
X0230009Y0298852D01*
X0227551Y0294550D01*
X0228677Y0294550D01*
X0230809Y0293667D01*
X0232441Y0292035D01*
X0233324Y0289904D01*
X0233324Y0287596D01*
X0232441Y0285465D01*
X0230809Y0283833D01*
X0230624Y0283756D01*
X0230624Y0274034D01*
X0233808Y0270850D01*
X0237530Y0270850D01*
X0237607Y0271035D01*
X0239238Y0272667D01*
X0241370Y0273550D01*
X0243677Y0273550D01*
X0245809Y0272667D01*
X0247441Y0271035D01*
X0248324Y0268904D01*
X0248324Y0266596D01*
X0247606Y0264864D01*
X0249549Y0266159D01*
X0249768Y0266378D01*
X0250057Y0266498D01*
X0250317Y0266671D01*
X0250621Y0266731D01*
X0250907Y0266850D01*
X0251220Y0266850D01*
X0251527Y0266911D01*
X0251831Y0266850D01*
X0257002Y0266850D01*
X0257050Y0266964D01*
X0257766Y0267681D01*
X0258702Y0268068D01*
X0263652Y0268068D01*
X0264524Y0267708D01*
X0265395Y0268068D01*
X0270345Y0268068D01*
X0271281Y0267681D01*
X0271767Y0267195D01*
X0273238Y0268667D01*
X0275370Y0269550D01*
X0277677Y0269550D01*
X0279809Y0268667D01*
X0281441Y0267035D01*
X0282324Y0264904D01*
X0282324Y0262596D01*
X0281441Y0260465D01*
X0279809Y0258833D01*
X0277677Y0257950D01*
X0275370Y0257950D01*
X0273238Y0258833D01*
X0271767Y0260305D01*
X0271281Y0259819D01*
X0270345Y0259431D01*
X0265395Y0259431D01*
X0264524Y0259792D01*
X0263652Y0259431D01*
X0258702Y0259431D01*
X0257766Y0259819D01*
X0257050Y0260536D01*
X0257002Y0260650D01*
X0252462Y0260650D01*
X0250499Y0259341D01*
X0250280Y0259122D01*
X0249990Y0259002D01*
X0249730Y0258829D01*
X0249426Y0258769D01*
X0249140Y0258650D01*
X0248827Y0258650D01*
X0248520Y0258589D01*
X0248217Y0258650D01*
X0239008Y0258650D01*
X0239152Y0258506D01*
X0239624Y0257367D01*
X0239624Y0249034D01*
X0241079Y0247579D01*
X0241079Y0248238D01*
X0241467Y0249175D01*
X0241542Y0249250D01*
X0241467Y0249325D01*
X0241079Y0250262D01*
X0241079Y0253238D01*
X0241467Y0254175D01*
X0242185Y0254893D01*
X0243123Y0255281D01*
X0252397Y0255281D01*
X0253335Y0254893D01*
X0253377Y0254850D01*
X0271140Y0254850D01*
X0272280Y0254378D01*
X0273152Y0253506D01*
X0273152Y0253506D01*
X0273808Y0252850D01*
X0280612Y0252850D01*
X0280394Y0253227D01*
X0280262Y0253722D01*
X0280262Y0255516D01*
X0283943Y0255516D01*
X0283943Y0255984D01*
X0280262Y0255984D01*
X0280262Y0257778D01*
X0280394Y0258273D01*
X0280651Y0258717D01*
X0281013Y0259080D01*
X0281457Y0259336D01*
X0281952Y0259468D01*
X0283943Y0259468D01*
X0283943Y0255984D01*
X0284411Y0255984D01*
X0284411Y0259468D01*
X0286402Y0259468D01*
X0286897Y0259336D01*
X0287035Y0259256D01*
X0287459Y0259681D01*
X0288395Y0260068D01*
X0293345Y0260068D01*
X0294281Y0259681D01*
X0294998Y0258964D01*
X0295045Y0258850D01*
X0297221Y0258850D01*
X0296607Y0259465D01*
X0295724Y0261596D01*
X0295724Y0263904D01*
X0296607Y0266035D01*
X0298238Y0267667D01*
X0300370Y0268550D01*
X0302677Y0268550D01*
X0304809Y0267667D01*
X0306441Y0266035D01*
X0306517Y0265850D01*
X0309240Y0265850D01*
X0310624Y0267234D01*
X0310624Y0272423D01*
X0310248Y0272799D01*
X0309859Y0273738D01*
X0309859Y0276995D01*
X0308380Y0273546D01*
X0308152Y0272994D01*
X0308138Y0272980D01*
X0308130Y0272962D01*
X0307702Y0272544D01*
X0307280Y0272122D01*
X0307262Y0272114D01*
X0307247Y0272101D01*
X0306692Y0271879D01*
X0306140Y0271650D01*
X0306121Y0271650D01*
X0306102Y0271643D01*
X0305517Y0271650D01*
X0305441Y0271465D01*
X0303809Y0269833D01*
X0301677Y0268950D01*
X0299370Y0268950D01*
X0297238Y0269833D01*
X0295607Y0271465D01*
X0294724Y0273596D01*
X0294724Y0275904D01*
X0295607Y0278035D01*
X0297238Y0279667D01*
X0299370Y0280550D01*
X0301677Y0280550D01*
X0303809Y0279667D01*
X0304123Y0279353D01*
X0305770Y0283194D01*
X0304609Y0282033D01*
X0302477Y0281150D01*
X0300170Y0281150D01*
X0298038Y0282033D01*
X0296407Y0283665D01*
X0295524Y0285796D01*
X0295524Y0288104D01*
X0296407Y0290235D01*
X0298038Y0291867D01*
X0298224Y0291944D01*
X0298224Y0302267D01*
X0298696Y0303406D01*
X0299568Y0304278D01*
X0301096Y0305806D01*
X0301968Y0306678D01*
X0303107Y0307150D01*
X0309770Y0307150D01*
X0310615Y0307500D01*
X0316432Y0307500D01*
X0316574Y0307442D01*
X0316574Y0308705D01*
X0316182Y0308600D01*
X0313524Y0308600D01*
X0313524Y0311450D01*
X0317874Y0311450D01*
X0317874Y0312608D01*
X0317741Y0313104D01*
X0317484Y0313548D01*
X0317122Y0313911D01*
X0316678Y0314167D01*
X0316182Y0314300D01*
X0313524Y0314300D01*
X0313524Y0311450D01*
X0313524Y0311450D01*
X0317874Y0311450D01*
X0317874Y0310893D01*
X0318615Y0311200D01*
X0324432Y0311200D01*
X0325277Y0310850D01*
X0337140Y0310850D01*
X0338280Y0310378D01*
X0339152Y0309506D01*
X0342152Y0306506D01*
X0342624Y0305367D01*
X0342624Y0273141D01*
X0342680Y0272922D01*
X0342624Y0272530D01*
X0342624Y0272133D01*
X0342537Y0271925D01*
X0342505Y0271701D01*
X0342303Y0271360D01*
X0342152Y0270994D01*
X0341992Y0270834D01*
X0341877Y0270640D01*
X0341560Y0270402D01*
X0341280Y0270122D01*
X0341071Y0270036D01*
X0337559Y0267402D01*
X0337278Y0267121D01*
X0337070Y0267035D01*
X0336890Y0266900D01*
X0336505Y0266801D01*
X0336138Y0266650D01*
X0335914Y0266650D01*
X0335696Y0266594D01*
X0335302Y0266650D01*
X0323105Y0266658D01*
X0320624Y0261979D01*
X0320624Y0259253D01*
X0320758Y0258850D01*
X0322530Y0258850D01*
X0322607Y0259035D01*
X0324238Y0260667D01*
X0326370Y0261550D01*
X0328677Y0261550D01*
X0330809Y0260667D01*
X0332441Y0259035D01*
X0333324Y0256904D01*
X0333324Y0254596D01*
X0332441Y0252465D01*
X0330809Y0250833D01*
X0328677Y0249950D01*
X0326370Y0249950D01*
X0324238Y0250833D01*
X0322607Y0252465D01*
X0322530Y0252650D01*
X0319027Y0252650D01*
X0318919Y0252614D01*
X0318414Y0252650D01*
X0298623Y0252650D01*
X0299280Y0252378D01*
X0312808Y0238850D01*
X0347002Y0238850D01*
X0347050Y0238964D01*
X0347766Y0239681D01*
X0348702Y0240068D01*
X0353652Y0240068D01*
X0354524Y0239708D01*
X0355395Y0240068D01*
X0360345Y0240068D01*
X0361281Y0239681D01*
X0361998Y0238964D01*
X0362045Y0238850D01*
X0362530Y0238850D01*
X0362607Y0239035D01*
X0364238Y0240667D01*
X0366370Y0241550D01*
X0368677Y0241550D01*
X0370809Y0240667D01*
X0372441Y0239035D01*
X0373324Y0236904D01*
X0373324Y0234596D01*
X0372441Y0232465D01*
X0370809Y0230833D01*
X0368677Y0229950D01*
X0366370Y0229950D01*
X0364238Y0230833D01*
X0362607Y0232465D01*
X0362530Y0232650D01*
X0362045Y0232650D01*
X0361998Y0232536D01*
X0361281Y0231819D01*
X0360345Y0231431D01*
X0355395Y0231431D01*
X0354524Y0231792D01*
X0354277Y0231690D01*
X0354277Y0229810D01*
X0354524Y0229708D01*
X0355395Y0230068D01*
X0360345Y0230068D01*
X0361281Y0229681D01*
X0361998Y0228964D01*
X0362385Y0228028D01*
X0362385Y0223472D01*
X0361998Y0222536D01*
X0361281Y0221819D01*
X0360970Y0221690D01*
X0360970Y0218810D01*
X0361281Y0218681D01*
X0361998Y0217964D01*
X0362385Y0217028D01*
X0362385Y0212472D01*
X0362274Y0212202D01*
X0363441Y0211035D01*
X0364324Y0208904D01*
X0364324Y0206596D01*
X0363441Y0204465D01*
X0361809Y0202833D01*
X0359677Y0201950D01*
X0357370Y0201950D01*
X0355238Y0202833D01*
X0353607Y0204465D01*
X0353530Y0204650D01*
X0351907Y0204650D01*
X0350768Y0205122D01*
X0349896Y0205994D01*
X0348549Y0207340D01*
X0348077Y0208480D01*
X0348077Y0210690D01*
X0347766Y0210819D01*
X0347050Y0211536D01*
X0347002Y0211650D01*
X0343907Y0211650D01*
X0342768Y0212122D01*
X0341896Y0212994D01*
X0330240Y0224650D01*
X0311907Y0224650D01*
X0310768Y0225122D01*
X0293240Y0242650D01*
X0284142Y0242650D01*
X0284142Y0238021D01*
X0283781Y0237150D01*
X0284142Y0236279D01*
X0284142Y0231328D01*
X0283993Y0230969D01*
X0283998Y0230964D01*
X0284385Y0230028D01*
X0284385Y0225472D01*
X0283998Y0224536D01*
X0283281Y0223819D01*
X0282970Y0223690D01*
X0282970Y0222110D01*
X0283281Y0221981D01*
X0283998Y0221264D01*
X0284037Y0221168D01*
X0284107Y0221335D01*
X0285738Y0222967D01*
X0287870Y0223850D01*
X0290177Y0223850D01*
X0292309Y0222967D01*
X0293941Y0221335D01*
X0294824Y0219204D01*
X0294824Y0216896D01*
X0293941Y0214765D01*
X0292309Y0213133D01*
X0290177Y0212250D01*
X0287870Y0212250D01*
X0285738Y0213133D01*
X0284107Y0214765D01*
X0284037Y0214932D01*
X0283998Y0214836D01*
X0283281Y0214119D01*
X0282345Y0213731D01*
X0277395Y0213731D01*
X0276459Y0214119D01*
X0276035Y0214544D01*
X0275897Y0214464D01*
X0275402Y0214331D01*
X0273411Y0214331D01*
X0273411Y0217816D01*
X0272943Y0217816D01*
X0269262Y0217816D01*
X0269262Y0216022D01*
X0269394Y0215527D01*
X0269651Y0215083D01*
X0270013Y0214720D01*
X0270457Y0214464D01*
X0270952Y0214331D01*
X0272943Y0214331D01*
X0272943Y0217816D01*
X0272943Y0218284D01*
X0269262Y0218284D01*
X0269262Y0220078D01*
X0269394Y0220573D01*
X0269651Y0221017D01*
X0270013Y0221380D01*
X0270457Y0221636D01*
X0270952Y0221768D01*
X0272943Y0221768D01*
X0272943Y0218284D01*
X0273411Y0218284D01*
X0273411Y0221768D01*
X0275402Y0221768D01*
X0275897Y0221636D01*
X0276035Y0221556D01*
X0276459Y0221981D01*
X0276770Y0222110D01*
X0276770Y0223690D01*
X0276459Y0223819D01*
X0276035Y0224244D01*
X0275897Y0224164D01*
X0275402Y0224031D01*
X0273411Y0224031D01*
X0273411Y0227516D01*
X0272943Y0227516D01*
X0269262Y0227516D01*
X0269262Y0225722D01*
X0269394Y0225227D01*
X0269651Y0224783D01*
X0270013Y0224420D01*
X0270457Y0224164D01*
X0270952Y0224031D01*
X0272943Y0224031D01*
X0272943Y0227516D01*
X0272943Y0227984D01*
X0269262Y0227984D01*
X0269262Y0229778D01*
X0269394Y0230273D01*
X0269643Y0230704D01*
X0264853Y0230704D01*
X0263714Y0231175D01*
X0261240Y0233650D01*
X0260008Y0233650D01*
X0260152Y0233506D01*
X0260214Y0233357D01*
X0260316Y0233231D01*
X0260448Y0232791D01*
X0260624Y0232367D01*
X0260624Y0232205D01*
X0262020Y0227550D01*
X0263677Y0227550D01*
X0265809Y0226667D01*
X0267441Y0225035D01*
X0268324Y0222904D01*
X0268324Y0220596D01*
X0267441Y0218465D01*
X0265809Y0216833D01*
X0263699Y0215959D01*
X0267280Y0212378D01*
X0268152Y0211506D01*
X0268624Y0210367D01*
X0268624Y0204034D01*
X0271808Y0200850D01*
X0307240Y0200850D01*
X0312768Y0206378D01*
X0313907Y0206850D01*
X0340304Y0206850D01*
X0340698Y0206906D01*
X0340915Y0206850D01*
X0341140Y0206850D01*
X0341507Y0206698D01*
X0341892Y0206599D01*
X0342072Y0206464D01*
X0342280Y0206378D01*
X0342560Y0206097D01*
X0350589Y0200068D01*
X0353652Y0200068D01*
X0354524Y0199708D01*
X0355395Y0200068D01*
X0360345Y0200068D01*
X0361281Y0199681D01*
X0361998Y0198964D01*
X0362045Y0198850D01*
X0364140Y0198850D01*
X0365280Y0198378D01*
X0366152Y0197506D01*
X0367815Y0195843D01*
X0376415Y0195793D01*
X0375488Y0196719D01*
X0374674Y0198686D01*
X0374674Y0200814D01*
X0375488Y0202781D01*
X0376993Y0204285D01*
X0378114Y0204750D01*
X0376993Y0205214D01*
X0375488Y0206719D01*
X0374674Y0208686D01*
X0374674Y0210814D01*
X0375488Y0212781D01*
X0376993Y0214285D01*
X0378114Y0214750D01*
X0376993Y0215214D01*
X0375488Y0216719D01*
X0374674Y0218686D01*
X0374674Y0220814D01*
X0375488Y0222781D01*
X0376993Y0224285D01*
X0378959Y0225100D01*
X0384088Y0225100D01*
X0386054Y0224285D01*
X0387559Y0222781D01*
X0388374Y0220814D01*
X0388374Y0218686D01*
X0387559Y0216719D01*
X0386054Y0215214D01*
X0384933Y0214750D01*
X0386054Y0214285D01*
X0387559Y0212781D01*
X0388374Y0210814D01*
X0388374Y0208686D01*
X0387559Y0206719D01*
X0386054Y0205214D01*
X0384933Y0204750D01*
X0386054Y0204285D01*
X0387559Y0202781D01*
X0388374Y0200814D01*
X0388374Y0200477D01*
X0388931Y0200941D01*
X0389268Y0201278D01*
X0389401Y0201333D01*
X0389513Y0201426D01*
X0389967Y0201568D01*
X0390407Y0201750D01*
X0390552Y0201750D01*
X0390690Y0201793D01*
X0390904Y0201774D01*
X0392122Y0202992D01*
X0394005Y0203772D01*
X0396042Y0203772D01*
X0397925Y0202992D01*
X0399366Y0201551D01*
X0400145Y0199669D01*
X0400145Y0197631D01*
X0399366Y0195749D01*
X0397925Y0194308D01*
X0396042Y0193528D01*
X0394005Y0193528D01*
X0392122Y0194308D01*
X0391456Y0194975D01*
X0386506Y0190850D01*
X0420530Y0190850D01*
X0420607Y0191035D01*
X0422238Y0192667D01*
X0424370Y0193550D01*
X0426677Y0193550D01*
X0428809Y0192667D01*
X0430441Y0191035D01*
X0431324Y0188904D01*
X0431324Y0186596D01*
X0430441Y0184465D01*
X0428809Y0182833D01*
X0426677Y0181950D01*
X0424370Y0181950D01*
X0422238Y0182833D01*
X0420607Y0184465D01*
X0420530Y0184650D01*
X0410600Y0184650D01*
X0411324Y0182904D01*
X0411324Y0180596D01*
X0410441Y0178465D01*
X0408809Y0176833D01*
X0406677Y0175950D01*
X0404370Y0175950D01*
X0402238Y0176833D01*
X0400878Y0178193D01*
X0400702Y0178018D01*
X0399762Y0177628D01*
X0396403Y0177628D01*
X0395524Y0177993D01*
X0394644Y0177628D01*
X0391285Y0177628D01*
X0390345Y0178018D01*
X0389713Y0178650D01*
X0374517Y0178650D01*
X0374441Y0178465D01*
X0372809Y0176833D01*
X0370677Y0175950D01*
X0368370Y0175950D01*
X0366238Y0176833D01*
X0364607Y0178465D01*
X0363724Y0180596D01*
X0363724Y0182904D01*
X0364447Y0184650D01*
X0362808Y0184650D01*
X0349152Y0170994D01*
X0348280Y0170122D01*
X0347140Y0169650D01*
X0329045Y0169650D01*
X0328998Y0169536D01*
X0328281Y0168819D01*
X0327345Y0168431D01*
X0322395Y0168431D01*
X0321524Y0168792D01*
X0320652Y0168431D01*
X0315702Y0168431D01*
X0314766Y0168819D01*
X0314050Y0169536D01*
X0314002Y0169650D01*
X0310907Y0169650D01*
X0309768Y0170122D01*
X0308896Y0170994D01*
X0304240Y0175650D01*
X0254907Y0175650D01*
X0253768Y0176122D01*
X0252896Y0176994D01*
X0252896Y0176994D01*
X0239240Y0190650D01*
X0218907Y0190650D01*
X0217768Y0191122D01*
X0216896Y0191994D01*
X0216896Y0191994D01*
X0215896Y0192994D01*
X0215424Y0194133D01*
X0215424Y0198466D01*
X0214896Y0198994D01*
X0213896Y0199994D01*
X0213424Y0201133D01*
X0213424Y0209756D01*
X0213238Y0209833D01*
X0211607Y0211465D01*
X0210724Y0213596D01*
X0210724Y0215904D01*
X0211607Y0218035D01*
X0212221Y0218650D01*
X0209242Y0218650D01*
X0195202Y0196187D01*
X0194953Y0195728D01*
X0194877Y0195667D01*
X0194826Y0195584D01*
X0194400Y0195281D01*
X0188385Y0190415D01*
X0188385Y0188472D01*
X0187998Y0187536D01*
X0187281Y0186819D01*
X0186345Y0186431D01*
X0181395Y0186431D01*
X0180524Y0186792D01*
X0179652Y0186431D01*
X0174702Y0186431D01*
X0173766Y0186819D01*
X0173050Y0187536D01*
X0173002Y0187650D01*
X0160507Y0187650D01*
X0159368Y0188122D01*
X0154268Y0193222D01*
X0153396Y0194094D01*
X0152924Y0195233D01*
X0152924Y0220291D01*
X0152761Y0220453D01*
X0152374Y0221389D01*
X0152374Y0230011D01*
X0152761Y0230947D01*
X0152824Y0231009D01*
X0147483Y0231044D01*
X0144624Y0229307D01*
X0144624Y0229271D01*
X0144738Y0229224D01*
X0145454Y0228508D01*
X0145842Y0227572D01*
X0145842Y0222621D01*
X0145481Y0221750D01*
X0145842Y0220879D01*
X0145842Y0215928D01*
X0145454Y0214992D01*
X0144738Y0214276D01*
X0144624Y0214229D01*
X0144624Y0213744D01*
X0144809Y0213667D01*
X0146441Y0212035D01*
X0147324Y0209904D01*
X0147324Y0207596D01*
X0146441Y0205465D01*
X0144809Y0203833D01*
X0142677Y0202950D01*
X0140370Y0202950D01*
X0138238Y0203833D01*
X0136607Y0205465D01*
X0135724Y0207596D01*
X0135724Y0209904D01*
X0136607Y0212035D01*
X0138238Y0213667D01*
X0138424Y0213744D01*
X0138424Y0214229D01*
X0138309Y0214276D01*
X0137593Y0214992D01*
X0137205Y0215928D01*
X0137205Y0220879D01*
X0137566Y0221750D01*
X0137205Y0222621D01*
X0137205Y0227572D01*
X0137593Y0228508D01*
X0138309Y0229224D01*
X0138424Y0229271D01*
X0138424Y0230812D01*
X0138366Y0231185D01*
X0138424Y0231423D01*
X0138424Y0231667D01*
X0138568Y0232016D01*
X0138658Y0232384D01*
X0138802Y0232581D01*
X0138896Y0232806D01*
X0139163Y0233073D01*
X0139387Y0233379D01*
X0139595Y0233506D01*
X0139768Y0233678D01*
X0140117Y0233823D01*
X0144704Y0236611D01*
X0144885Y0236789D01*
X0145226Y0236928D01*
X0145540Y0237119D01*
X0145792Y0237158D01*
X0146027Y0237254D01*
X0146395Y0237252D01*
X0146759Y0237308D01*
X0147006Y0237248D01*
X0161476Y0237153D01*
X0161619Y0237196D01*
X0162089Y0237149D01*
X0162560Y0237146D01*
X0162698Y0237088D01*
X0162846Y0237073D01*
X0163262Y0236850D01*
X0163697Y0236667D01*
X0163801Y0236560D01*
X0167353Y0234655D01*
X0167780Y0234478D01*
X0167892Y0234365D01*
X0168033Y0234290D01*
X0168325Y0233933D01*
X0168652Y0233606D01*
X0168713Y0233459D01*
X0168814Y0233335D01*
X0168947Y0232893D01*
X0169124Y0232467D01*
X0169124Y0232307D01*
X0169170Y0232155D01*
X0169148Y0231941D01*
X0169412Y0232050D01*
X0172635Y0232050D01*
X0173524Y0231682D01*
X0174412Y0232050D01*
X0177635Y0232050D01*
X0178524Y0231682D01*
X0179412Y0232050D01*
X0182635Y0232050D01*
X0183524Y0231682D01*
X0184412Y0232050D01*
X0187635Y0232050D01*
X0188570Y0231663D01*
X0189286Y0230947D01*
X0189674Y0230011D01*
X0189674Y0228780D01*
X0190141Y0228777D01*
X0190207Y0228935D01*
X0191838Y0230567D01*
X0193970Y0231450D01*
X0196277Y0231450D01*
X0198409Y0230567D01*
X0200041Y0228935D01*
X0200924Y0226804D01*
X0200924Y0224496D01*
X0200041Y0222365D01*
X0198409Y0220733D01*
X0196277Y0219850D01*
X0193970Y0219850D01*
X0191838Y0220733D01*
X0190207Y0222365D01*
X0190118Y0222577D01*
X0189674Y0222580D01*
X0189674Y0221389D01*
X0189286Y0220453D01*
X0189124Y0220291D01*
X0189124Y0220034D01*
X0190352Y0218806D01*
X0190824Y0217667D01*
X0190824Y0211033D01*
X0190352Y0209894D01*
X0189480Y0209022D01*
X0189452Y0208994D01*
X0189452Y0208994D01*
X0188580Y0208122D01*
X0187440Y0207650D01*
X0187045Y0207650D01*
X0186998Y0207536D01*
X0186281Y0206819D01*
X0186110Y0206748D01*
X0186298Y0206560D01*
X0186770Y0205420D01*
X0186770Y0204910D01*
X0187081Y0204781D01*
X0187798Y0204064D01*
X0188185Y0203128D01*
X0188185Y0198572D01*
X0187971Y0198055D01*
X0190170Y0199833D01*
X0204758Y0223174D01*
X0204896Y0223506D01*
X0205082Y0223692D01*
X0205222Y0223916D01*
X0205514Y0224124D01*
X0205768Y0224378D01*
X0206011Y0224479D01*
X0206226Y0224632D01*
X0206575Y0224713D01*
X0206907Y0224850D01*
X0207171Y0224850D01*
X0207427Y0224909D01*
X0207781Y0224850D01*
X0211447Y0224850D01*
X0210724Y0226596D01*
X0210724Y0228904D01*
X0211607Y0231035D01*
X0213238Y0232667D01*
X0215370Y0233550D01*
X0215940Y0233550D01*
X0216768Y0234378D01*
X0217907Y0234850D01*
X0221436Y0234850D01*
X0221340Y0235017D01*
X0221207Y0235513D01*
X0221207Y0236750D01*
X0227287Y0236750D01*
X0227287Y0236750D01*
X0221207Y0236750D01*
X0221207Y0237987D01*
X0221340Y0238483D01*
X0221436Y0238650D01*
X0201907Y0238650D01*
X0200768Y0239122D01*
X0199896Y0239994D01*
X0199896Y0239994D01*
X0199768Y0240122D01*
X0199635Y0240254D01*
X0198238Y0240833D01*
X0196607Y0242465D01*
X0195724Y0244596D01*
X0195724Y0246904D01*
X0196607Y0249035D01*
X0198238Y0250667D01*
X0200370Y0251550D01*
X0202677Y0251550D01*
X0204809Y0250667D01*
X0206441Y0249035D01*
X0207324Y0246904D01*
X0207324Y0244850D01*
X0220777Y0244850D01*
X0220607Y0245262D01*
X0220607Y0245843D01*
X0220140Y0245650D01*
X0215907Y0245650D01*
X0214768Y0246122D01*
X0213768Y0247122D01*
X0213768Y0247122D01*
X0213635Y0247254D01*
X0212238Y0247833D01*
X0210607Y0249465D01*
X0209724Y0251596D01*
X0209724Y0253904D01*
X0210447Y0255650D01*
X0210045Y0255650D01*
X0209998Y0255536D01*
X0209281Y0254819D01*
X0208345Y0254431D01*
X0203395Y0254431D01*
X0202524Y0254792D01*
X0201652Y0254431D01*
X0196702Y0254431D01*
X0196140Y0254664D01*
X0195309Y0253833D01*
X0193177Y0252950D01*
X0190870Y0252950D01*
X0189674Y0253446D01*
X0189674Y0247489D01*
X0189286Y0246553D01*
X0188570Y0245837D01*
X0187635Y0245450D01*
X0184412Y0245450D01*
X0183524Y0245818D01*
X0182635Y0245450D01*
X0179412Y0245450D01*
X0178524Y0245818D01*
X0177635Y0245450D01*
X0174412Y0245450D01*
X0173524Y0245818D01*
X0172635Y0245450D01*
X0171125Y0245450D01*
X0171724Y0244004D01*
X0171724Y0241696D01*
X0170841Y0239565D01*
X0169209Y0237933D01*
X0167077Y0237050D01*
X0164770Y0237050D01*
X0162638Y0237933D01*
X0161007Y0239565D01*
X0160124Y0241696D01*
X0160124Y0244004D01*
X0160723Y0245450D01*
X0159412Y0245450D01*
X0158477Y0245837D01*
X0158039Y0246275D01*
X0157879Y0246183D01*
X0157385Y0246050D01*
X0156024Y0246050D01*
X0156024Y0251800D01*
X0156024Y0251800D01*
X0156024Y0257550D01*
X0157385Y0257550D01*
X0157879Y0257417D01*
X0157924Y0257392D01*
X0157924Y0258356D01*
X0157738Y0258433D01*
X0156107Y0260065D01*
X0155224Y0262196D01*
X0155224Y0264504D01*
X0156107Y0266635D01*
X0157738Y0268267D01*
X0159870Y0269150D01*
X0162177Y0269150D01*
X0164309Y0268267D01*
X0165941Y0266635D01*
X0166824Y0264504D01*
X0166824Y0262196D01*
X0165941Y0260065D01*
X0164309Y0258433D01*
X0164124Y0258356D01*
X0164124Y0258030D01*
X0164412Y0258150D01*
X0167635Y0258150D01*
X0167924Y0258030D01*
X0167924Y0272966D01*
X0140768Y0300122D01*
X0139896Y0300994D01*
X0139424Y0302133D01*
X0139424Y0304486D01*
X0139097Y0304621D01*
X0137524Y0306194D01*
X0135951Y0304621D01*
X0135624Y0304486D01*
X0135624Y0291133D01*
X0135152Y0289994D01*
X0134624Y0289466D01*
X0134624Y0278234D01*
X0136768Y0280378D01*
X0137907Y0280850D01*
X0140530Y0280850D01*
X0140607Y0281035D01*
X0142238Y0282667D01*
X0144370Y0283550D01*
X0146677Y0283550D01*
X0148809Y0282667D01*
X0150441Y0281035D01*
X0151324Y0278904D01*
X0151324Y0276596D01*
X0150441Y0274465D01*
X0148809Y0272833D01*
X0146677Y0271950D01*
X0144370Y0271950D01*
X0142238Y0272833D01*
X0140607Y0274465D01*
X0140530Y0274650D01*
X0139808Y0274650D01*
X0138696Y0273539D01*
X0138696Y0268195D01*
X0138309Y0267260D01*
X0137593Y0266544D01*
X0136658Y0266156D01*
X0133870Y0266156D01*
X0133394Y0266354D01*
X0132918Y0266156D01*
X0130130Y0266156D01*
X0129194Y0266544D01*
X0128970Y0266768D01*
X0128927Y0266756D01*
X0127784Y0266756D01*
X0127784Y0270868D01*
X0127783Y0270868D01*
X0127783Y0266756D01*
X0126640Y0266756D01*
X0126145Y0266889D01*
X0125701Y0267145D01*
X0125339Y0267507D01*
X0125083Y0267950D01*
X0124951Y0268445D01*
X0124951Y0270868D01*
X0127783Y0270868D01*
X0127783Y0270869D01*
X0127783Y0274981D01*
X0126640Y0274981D01*
X0126145Y0274848D01*
X0125701Y0274592D01*
X0125339Y0274230D01*
X0125083Y0273787D01*
X0124951Y0273292D01*
X0124951Y0270869D01*
X0127783Y0270869D01*
X0127784Y0270869D01*
X0127784Y0274981D01*
X0128424Y0274981D01*
X0128424Y0291367D01*
X0128896Y0292506D01*
X0129424Y0293034D01*
X0129424Y0304486D01*
X0129097Y0304621D01*
X0127524Y0306194D01*
X0125951Y0304621D01*
X0123727Y0303700D01*
X0121320Y0303700D01*
X0119097Y0304621D01*
X0117395Y0306323D01*
X0116874Y0307581D01*
X0116874Y0306449D02*
X0117342Y0306449D01*
X0116874Y0304951D02*
X0118767Y0304951D01*
X0116874Y0303452D02*
X0129424Y0303452D01*
X0129424Y0301954D02*
X0116874Y0301954D01*
X0116874Y0300455D02*
X0129424Y0300455D01*
X0129424Y0298957D02*
X0116874Y0298957D01*
X0116874Y0297458D02*
X0129424Y0297458D01*
X0129424Y0295960D02*
X0116874Y0295960D01*
X0116874Y0294461D02*
X0129424Y0294461D01*
X0129352Y0292963D02*
X0116874Y0292963D01*
X0116874Y0291464D02*
X0128464Y0291464D01*
X0128424Y0289966D02*
X0116874Y0289966D01*
X0116874Y0288467D02*
X0128424Y0288467D01*
X0128424Y0286969D02*
X0116874Y0286969D01*
X0116874Y0285470D02*
X0128424Y0285470D01*
X0128424Y0283972D02*
X0116874Y0283972D01*
X0116874Y0282473D02*
X0128424Y0282473D01*
X0128424Y0280975D02*
X0116874Y0280975D01*
X0116874Y0279476D02*
X0128424Y0279476D01*
X0128424Y0277978D02*
X0116874Y0277978D01*
X0116874Y0276479D02*
X0128424Y0276479D01*
X0127784Y0274981D02*
X0127783Y0274981D01*
X0126639Y0274981D02*
X0116874Y0274981D01*
X0116874Y0273482D02*
X0125002Y0273482D01*
X0124951Y0271984D02*
X0116874Y0271984D01*
X0116874Y0270485D02*
X0124951Y0270485D01*
X0124951Y0268987D02*
X0116874Y0268987D01*
X0116874Y0267488D02*
X0125358Y0267488D01*
X0126389Y0265344D02*
X0125454Y0264956D01*
X0124738Y0264240D01*
X0124351Y0263305D01*
X0124351Y0257958D01*
X0124724Y0257058D01*
X0124724Y0254334D01*
X0121768Y0251378D01*
X0120896Y0250506D01*
X0120424Y0249367D01*
X0120424Y0178133D01*
X0120896Y0176994D01*
X0121768Y0176122D01*
X0148768Y0149122D01*
X0149907Y0148650D01*
X0155002Y0148650D01*
X0155050Y0148536D01*
X0155766Y0147819D01*
X0156077Y0147690D01*
X0156077Y0145480D01*
X0156549Y0144340D01*
X0157896Y0142994D01*
X0158768Y0142122D01*
X0159907Y0141650D01*
X0167530Y0141650D01*
X0167607Y0141465D01*
X0169238Y0139833D01*
X0171370Y0138950D01*
X0173677Y0138950D01*
X0175809Y0139833D01*
X0177441Y0141465D01*
X0178324Y0143596D01*
X0178324Y0145904D01*
X0177441Y0148035D01*
X0175809Y0149667D01*
X0173677Y0150550D01*
X0171370Y0150550D01*
X0169785Y0149894D01*
X0169785Y0151516D01*
X0166104Y0151516D01*
X0166104Y0148031D01*
X0167605Y0148031D01*
X0167530Y0147850D01*
X0162619Y0147850D01*
X0163013Y0148244D01*
X0163150Y0148164D01*
X0163645Y0148031D01*
X0165636Y0148031D01*
X0165636Y0151516D01*
X0166104Y0151516D01*
X0166104Y0151984D01*
X0165636Y0151984D01*
X0165636Y0155468D01*
X0163645Y0155468D01*
X0163150Y0155336D01*
X0163013Y0155256D01*
X0162588Y0155681D01*
X0161652Y0156068D01*
X0156702Y0156068D01*
X0155766Y0155681D01*
X0155050Y0154964D01*
X0155002Y0154850D01*
X0151808Y0154850D01*
X0150708Y0155950D01*
X0151677Y0155950D01*
X0153809Y0156833D01*
X0155441Y0158465D01*
X0156324Y0160596D01*
X0156324Y0162904D01*
X0155441Y0165035D01*
X0153809Y0166667D01*
X0151677Y0167550D01*
X0149370Y0167550D01*
X0147238Y0166667D01*
X0147114Y0166543D01*
X0130624Y0183034D01*
X0130624Y0244466D01*
X0133424Y0247266D01*
X0133424Y0245744D01*
X0133238Y0245667D01*
X0131607Y0244035D01*
X0130724Y0241904D01*
X0130724Y0239596D01*
X0131607Y0237465D01*
X0133238Y0235833D01*
X0135370Y0234950D01*
X0137677Y0234950D01*
X0139809Y0235833D01*
X0141441Y0237465D01*
X0142324Y0239596D01*
X0142324Y0241904D01*
X0141441Y0244035D01*
X0139809Y0245667D01*
X0139624Y0245744D01*
X0139624Y0254266D01*
X0139664Y0254393D01*
X0139624Y0254879D01*
X0139624Y0255367D01*
X0139573Y0255489D01*
X0139562Y0255622D01*
X0139338Y0256055D01*
X0139152Y0256506D01*
X0139058Y0256600D01*
X0138997Y0256718D01*
X0138624Y0257033D01*
X0138405Y0257253D01*
X0138520Y0257531D01*
X0141610Y0257531D01*
X0143205Y0254573D01*
X0143205Y0250621D01*
X0143593Y0249685D01*
X0144017Y0249261D01*
X0143938Y0249123D01*
X0143805Y0248628D01*
X0143805Y0246638D01*
X0147289Y0246638D01*
X0147289Y0246169D01*
X0143805Y0246169D01*
X0143805Y0244179D01*
X0143938Y0243684D01*
X0144194Y0243240D01*
X0144557Y0242877D01*
X0145001Y0242621D01*
X0145496Y0242488D01*
X0147289Y0242488D01*
X0147289Y0246169D01*
X0147758Y0246169D01*
X0147758Y0242488D01*
X0149552Y0242488D01*
X0150047Y0242621D01*
X0150491Y0242877D01*
X0150853Y0243240D01*
X0151109Y0243684D01*
X0151242Y0244179D01*
X0151242Y0246169D01*
X0147758Y0246169D01*
X0147758Y0246638D01*
X0151242Y0246638D01*
X0151242Y0248628D01*
X0151109Y0249123D01*
X0151030Y0249261D01*
X0151454Y0249685D01*
X0151842Y0250621D01*
X0151842Y0255572D01*
X0151454Y0256508D01*
X0150738Y0257224D01*
X0149802Y0257612D01*
X0148610Y0257612D01*
X0147227Y0260176D01*
X0147624Y0261133D01*
X0147624Y0262855D01*
X0148013Y0263244D01*
X0148150Y0263164D01*
X0148645Y0263031D01*
X0150636Y0263031D01*
X0150636Y0266516D01*
X0151104Y0266516D01*
X0151104Y0263031D01*
X0153095Y0263031D01*
X0153590Y0263164D01*
X0154034Y0263420D01*
X0154396Y0263783D01*
X0154653Y0264227D01*
X0154785Y0264722D01*
X0154785Y0266516D01*
X0151104Y0266516D01*
X0151104Y0266984D01*
X0150636Y0266984D01*
X0150636Y0270468D01*
X0148645Y0270468D01*
X0148150Y0270336D01*
X0148013Y0270256D01*
X0147588Y0270681D01*
X0146652Y0271068D01*
X0141702Y0271068D01*
X0140766Y0270681D01*
X0140050Y0269964D01*
X0139662Y0269028D01*
X0139662Y0264472D01*
X0139968Y0263731D01*
X0138520Y0263731D01*
X0138309Y0264240D01*
X0137593Y0264956D01*
X0136658Y0265344D01*
X0133870Y0265344D01*
X0133394Y0265146D01*
X0132918Y0265344D01*
X0130130Y0265344D01*
X0129654Y0265146D01*
X0129177Y0265344D01*
X0126389Y0265344D01*
X0124989Y0264491D02*
X0116874Y0264491D01*
X0116874Y0265989D02*
X0139662Y0265989D01*
X0139662Y0264491D02*
X0138058Y0264491D01*
X0138404Y0267488D02*
X0139662Y0267488D01*
X0139662Y0268987D02*
X0138696Y0268987D01*
X0138696Y0270485D02*
X0140570Y0270485D01*
X0138696Y0271984D02*
X0144289Y0271984D01*
X0146758Y0271984D02*
X0167924Y0271984D01*
X0167924Y0270485D02*
X0147784Y0270485D01*
X0150636Y0268987D02*
X0151104Y0268987D01*
X0151104Y0270468D02*
X0151104Y0266984D01*
X0154785Y0266984D01*
X0154785Y0268778D01*
X0154653Y0269273D01*
X0154396Y0269717D01*
X0154034Y0270080D01*
X0153590Y0270336D01*
X0153095Y0270468D01*
X0151104Y0270468D01*
X0151104Y0267488D02*
X0150636Y0267488D01*
X0150636Y0265989D02*
X0151104Y0265989D01*
X0151104Y0264491D02*
X0150636Y0264491D01*
X0147762Y0262992D02*
X0155224Y0262992D01*
X0155224Y0264491D02*
X0154723Y0264491D01*
X0154785Y0265989D02*
X0155839Y0265989D01*
X0154785Y0267488D02*
X0156959Y0267488D01*
X0154730Y0268987D02*
X0159475Y0268987D01*
X0162572Y0268987D02*
X0167924Y0268987D01*
X0167924Y0267488D02*
X0165088Y0267488D01*
X0166208Y0265989D02*
X0167924Y0265989D01*
X0167924Y0264491D02*
X0166824Y0264491D01*
X0166824Y0262992D02*
X0167924Y0262992D01*
X0167924Y0261494D02*
X0166533Y0261494D01*
X0165871Y0259995D02*
X0167924Y0259995D01*
X0167924Y0258497D02*
X0164373Y0258497D01*
X0157674Y0258497D02*
X0148133Y0258497D01*
X0147325Y0259995D02*
X0156176Y0259995D01*
X0155515Y0261494D02*
X0147624Y0261494D01*
X0144524Y0261750D02*
X0144524Y0266404D01*
X0144177Y0266750D01*
X0135264Y0270869D02*
X0135264Y0274490D01*
X0138524Y0277750D01*
X0145524Y0277750D01*
X0151324Y0277978D02*
X0162912Y0277978D01*
X0161413Y0279476D02*
X0151087Y0279476D01*
X0150466Y0280975D02*
X0159915Y0280975D01*
X0158416Y0282473D02*
X0149003Y0282473D01*
X0151275Y0276479D02*
X0164410Y0276479D01*
X0165909Y0274981D02*
X0150654Y0274981D01*
X0149458Y0273482D02*
X0167408Y0273482D01*
X0171024Y0274250D02*
X0142524Y0302750D01*
X0142524Y0309750D01*
X0146888Y0313942D02*
X0148159Y0313942D01*
X0150452Y0315440D02*
X0144595Y0315440D01*
X0140452Y0315440D02*
X0134595Y0315440D01*
X0136888Y0313942D02*
X0138159Y0313942D01*
X0132524Y0309750D02*
X0132524Y0291750D01*
X0131524Y0290750D01*
X0131524Y0270869D01*
X0127784Y0270485D02*
X0127783Y0270485D01*
X0127783Y0268987D02*
X0127784Y0268987D01*
X0127783Y0267488D02*
X0127784Y0267488D01*
X0127783Y0271984D02*
X0127784Y0271984D01*
X0127783Y0273482D02*
X0127784Y0273482D01*
X0134624Y0279476D02*
X0135866Y0279476D01*
X0134624Y0280975D02*
X0140581Y0280975D01*
X0142044Y0282473D02*
X0134624Y0282473D01*
X0134624Y0283972D02*
X0156918Y0283972D01*
X0155419Y0285470D02*
X0134624Y0285470D01*
X0134624Y0286969D02*
X0153921Y0286969D01*
X0152422Y0288467D02*
X0134624Y0288467D01*
X0135123Y0289966D02*
X0150924Y0289966D01*
X0149425Y0291464D02*
X0135624Y0291464D01*
X0135624Y0292963D02*
X0147927Y0292963D01*
X0146428Y0294461D02*
X0135624Y0294461D01*
X0135624Y0295960D02*
X0144930Y0295960D01*
X0143431Y0297458D02*
X0135624Y0297458D01*
X0135624Y0298957D02*
X0141933Y0298957D01*
X0140434Y0300455D02*
X0135624Y0300455D01*
X0135624Y0301954D02*
X0139498Y0301954D01*
X0139424Y0303452D02*
X0135624Y0303452D01*
X0136280Y0304951D02*
X0138767Y0304951D01*
X0128767Y0304951D02*
X0126280Y0304951D01*
X0126888Y0313942D02*
X0128159Y0313942D01*
X0130452Y0315440D02*
X0124595Y0315440D01*
X0120452Y0315440D02*
X0116874Y0315440D01*
X0116874Y0313942D02*
X0118159Y0313942D01*
X0117091Y0312443D02*
X0116874Y0312443D01*
X0152524Y0309750D02*
X0152524Y0302750D01*
X0175924Y0279350D01*
X0175924Y0251900D01*
X0176024Y0251800D01*
X0180924Y0251900D02*
X0180924Y0284350D01*
X0162524Y0302750D01*
X0162524Y0309750D01*
X0166888Y0313942D02*
X0168159Y0313942D01*
X0170452Y0315440D02*
X0164595Y0315440D01*
X0160452Y0315440D02*
X0154595Y0315440D01*
X0156888Y0313942D02*
X0158159Y0313942D01*
X0172524Y0309750D02*
X0172524Y0299750D01*
X0186024Y0286250D01*
X0186024Y0251800D01*
X0189674Y0252503D02*
X0209724Y0252503D01*
X0209764Y0254001D02*
X0195477Y0254001D01*
X0199053Y0251004D02*
X0189674Y0251004D01*
X0189674Y0249506D02*
X0197077Y0249506D01*
X0196181Y0248007D02*
X0189674Y0248007D01*
X0189242Y0246509D02*
X0195724Y0246509D01*
X0195724Y0245010D02*
X0171307Y0245010D01*
X0171724Y0243512D02*
X0196173Y0243512D01*
X0197058Y0242013D02*
X0171724Y0242013D01*
X0171234Y0240515D02*
X0199006Y0240515D01*
X0201023Y0239016D02*
X0170292Y0239016D01*
X0168207Y0237518D02*
X0221207Y0237518D01*
X0221207Y0236019D02*
X0164810Y0236019D01*
X0163641Y0237518D02*
X0141463Y0237518D01*
X0142083Y0239016D02*
X0161555Y0239016D01*
X0160613Y0240515D02*
X0142324Y0240515D01*
X0142278Y0242013D02*
X0160124Y0242013D01*
X0160124Y0243512D02*
X0151010Y0243512D01*
X0151242Y0245010D02*
X0160541Y0245010D01*
X0156024Y0246050D02*
X0156024Y0251800D01*
X0156024Y0251800D01*
X0156024Y0257550D01*
X0154663Y0257550D01*
X0154168Y0257417D01*
X0153724Y0257161D01*
X0153362Y0256799D01*
X0153106Y0256356D01*
X0152974Y0255861D01*
X0152974Y0251800D01*
X0152974Y0247739D01*
X0153106Y0247244D01*
X0153362Y0246801D01*
X0153724Y0246439D01*
X0154168Y0246183D01*
X0154663Y0246050D01*
X0156024Y0246050D01*
X0156024Y0246509D02*
X0156024Y0246509D01*
X0156024Y0248007D02*
X0156024Y0248007D01*
X0156024Y0249506D02*
X0156024Y0249506D01*
X0156024Y0251004D02*
X0156024Y0251004D01*
X0156023Y0251800D02*
X0152974Y0251800D01*
X0156023Y0251800D01*
X0156023Y0251800D01*
X0156024Y0252503D02*
X0156024Y0252503D01*
X0156024Y0254001D02*
X0156024Y0254001D01*
X0156024Y0255500D02*
X0156024Y0255500D01*
X0156024Y0256998D02*
X0156024Y0256998D01*
X0153561Y0256998D02*
X0150964Y0256998D01*
X0151842Y0255500D02*
X0152974Y0255500D01*
X0152974Y0254001D02*
X0151842Y0254001D01*
X0151842Y0252503D02*
X0152974Y0252503D01*
X0152974Y0251004D02*
X0151842Y0251004D01*
X0151275Y0249506D02*
X0152974Y0249506D01*
X0152974Y0248007D02*
X0151242Y0248007D01*
X0153654Y0246509D02*
X0147758Y0246509D01*
X0147289Y0246509D02*
X0139624Y0246509D01*
X0139624Y0248007D02*
X0143805Y0248007D01*
X0143772Y0249506D02*
X0139624Y0249506D01*
X0139624Y0251004D02*
X0143205Y0251004D01*
X0143205Y0252503D02*
X0139624Y0252503D01*
X0139624Y0254001D02*
X0143205Y0254001D01*
X0142705Y0255500D02*
X0139572Y0255500D01*
X0138666Y0256998D02*
X0141897Y0256998D01*
X0143524Y0260513D02*
X0143405Y0260631D01*
X0144524Y0261750D01*
X0143405Y0260631D02*
X0135264Y0260631D01*
X0135224Y0255850D01*
X0136524Y0254750D01*
X0136524Y0240750D01*
X0140466Y0245010D02*
X0143805Y0245010D01*
X0144037Y0243512D02*
X0141658Y0243512D01*
X0147289Y0243512D02*
X0147758Y0243512D01*
X0147758Y0245010D02*
X0147289Y0245010D01*
X0147524Y0253096D02*
X0143524Y0260513D01*
X0131524Y0260631D02*
X0131524Y0249750D01*
X0127524Y0245750D01*
X0127524Y0181750D01*
X0147524Y0161750D01*
X0150524Y0161750D01*
X0155909Y0159595D02*
X0237138Y0159595D01*
X0236724Y0160596D02*
X0236724Y0162904D01*
X0237607Y0165035D01*
X0239238Y0166667D01*
X0241370Y0167550D01*
X0243677Y0167550D01*
X0245809Y0166667D01*
X0247441Y0165035D01*
X0247517Y0164850D01*
X0266140Y0164850D01*
X0267280Y0164378D01*
X0271808Y0159850D01*
X0274175Y0159850D01*
X0274702Y0160068D01*
X0279652Y0160068D01*
X0280588Y0159681D01*
X0281013Y0159256D01*
X0281150Y0159336D01*
X0281645Y0159468D01*
X0283636Y0159468D01*
X0283636Y0155984D01*
X0284104Y0155984D01*
X0284104Y0159468D01*
X0286095Y0159468D01*
X0286590Y0159336D01*
X0287034Y0159080D01*
X0287396Y0158717D01*
X0287653Y0158273D01*
X0287785Y0157778D01*
X0287785Y0155984D01*
X0284104Y0155984D01*
X0284104Y0155516D01*
X0284104Y0152031D01*
X0286095Y0152031D01*
X0286590Y0152164D01*
X0287034Y0152420D01*
X0287396Y0152783D01*
X0287653Y0153227D01*
X0287785Y0153722D01*
X0287785Y0155516D01*
X0284104Y0155516D01*
X0283636Y0155516D01*
X0283636Y0152031D01*
X0281645Y0152031D01*
X0281150Y0152164D01*
X0281013Y0152244D01*
X0280624Y0151855D01*
X0280624Y0145366D01*
X0282510Y0147253D01*
X0285763Y0148600D01*
X0289284Y0148600D01*
X0292537Y0147253D01*
X0295026Y0144763D01*
X0296374Y0141510D01*
X0296374Y0137990D01*
X0295026Y0134737D01*
X0292537Y0132247D01*
X0289284Y0130900D01*
X0285763Y0130900D01*
X0282510Y0132247D01*
X0280624Y0134134D01*
X0280624Y0125014D01*
X0280951Y0124879D01*
X0282653Y0123177D01*
X0283574Y0120953D01*
X0283574Y0118547D01*
X0282653Y0116323D01*
X0280951Y0114621D01*
X0280624Y0114486D01*
X0280624Y0098733D01*
X0280152Y0097594D01*
X0271124Y0088566D01*
X0271124Y0085945D01*
X0272379Y0084690D01*
X0273055Y0083057D01*
X0273732Y0084690D01*
X0275166Y0086125D01*
X0277041Y0086901D01*
X0279070Y0086901D01*
X0280944Y0086125D01*
X0282379Y0084690D01*
X0283155Y0082816D01*
X0283155Y0080787D01*
X0282379Y0078912D01*
X0280944Y0077478D01*
X0279070Y0076701D01*
X0277041Y0076701D01*
X0275166Y0077478D01*
X0273732Y0078912D01*
X0273055Y0080545D01*
X0272379Y0078912D01*
X0270944Y0077478D01*
X0269070Y0076701D01*
X0267041Y0076701D01*
X0265166Y0077478D01*
X0263732Y0078912D01*
X0263055Y0080545D01*
X0262379Y0078912D01*
X0260944Y0077478D01*
X0259070Y0076701D01*
X0257041Y0076701D01*
X0255166Y0077478D01*
X0253732Y0078912D01*
X0253468Y0079547D01*
X0252620Y0077498D01*
X0250012Y0074890D01*
X0246604Y0073479D01*
X0242916Y0073479D01*
X0239508Y0074890D01*
X0236900Y0077498D01*
X0235489Y0080906D01*
X0235489Y0084594D01*
X0236900Y0088002D01*
X0239508Y0090610D01*
X0242916Y0092021D01*
X0246604Y0092021D01*
X0250012Y0090610D01*
X0252620Y0088002D01*
X0253915Y0084874D01*
X0254924Y0085882D01*
X0254924Y0096367D01*
X0255396Y0097506D01*
X0256268Y0098378D01*
X0264424Y0106534D01*
X0264424Y0114486D01*
X0264097Y0114621D01*
X0262524Y0116194D01*
X0260951Y0114621D01*
X0258727Y0113700D01*
X0256320Y0113700D01*
X0254097Y0114621D01*
X0252524Y0116194D01*
X0250951Y0114621D01*
X0248727Y0113700D01*
X0246320Y0113700D01*
X0244097Y0114621D01*
X0242524Y0116194D01*
X0240951Y0114621D01*
X0238727Y0113700D01*
X0236320Y0113700D01*
X0234097Y0114621D01*
X0232524Y0116194D01*
X0230951Y0114621D01*
X0228727Y0113700D01*
X0226320Y0113700D01*
X0224097Y0114621D01*
X0222395Y0116323D01*
X0221474Y0118547D01*
X0221474Y0120953D01*
X0222395Y0123177D01*
X0224097Y0124879D01*
X0224424Y0125014D01*
X0224424Y0145168D01*
X0224024Y0146133D01*
X0224024Y0149713D01*
X0223766Y0149819D01*
X0223050Y0150536D01*
X0223002Y0150650D01*
X0219808Y0150650D01*
X0218624Y0149466D01*
X0218624Y0101034D01*
X0219808Y0099850D01*
X0225530Y0099850D01*
X0225607Y0100035D01*
X0227238Y0101667D01*
X0229370Y0102550D01*
X0231677Y0102550D01*
X0233809Y0101667D01*
X0235441Y0100035D01*
X0236324Y0097904D01*
X0236324Y0095596D01*
X0235441Y0093465D01*
X0233809Y0091833D01*
X0231677Y0090950D01*
X0229370Y0090950D01*
X0227238Y0091833D01*
X0225607Y0093465D01*
X0225530Y0093650D01*
X0217907Y0093650D01*
X0216768Y0094122D01*
X0215896Y0094994D01*
X0212896Y0097994D01*
X0212424Y0099133D01*
X0212424Y0116094D01*
X0210951Y0114621D01*
X0208727Y0113700D01*
X0206320Y0113700D01*
X0204097Y0114621D01*
X0202524Y0116194D01*
X0200951Y0114621D01*
X0198727Y0113700D01*
X0196320Y0113700D01*
X0194097Y0114621D01*
X0192524Y0116194D01*
X0190951Y0114621D01*
X0188727Y0113700D01*
X0186320Y0113700D01*
X0184097Y0114621D01*
X0182395Y0116323D01*
X0182168Y0116870D01*
X0181681Y0116200D01*
X0181074Y0115593D01*
X0180380Y0115089D01*
X0179616Y0114699D01*
X0178800Y0114434D01*
X0177953Y0114300D01*
X0177774Y0114300D01*
X0177774Y0119500D01*
X0177274Y0119500D01*
X0177274Y0114300D01*
X0177095Y0114300D01*
X0176247Y0114434D01*
X0175432Y0114699D01*
X0174667Y0115089D01*
X0173973Y0115593D01*
X0173367Y0116200D01*
X0172879Y0116870D01*
X0172653Y0116323D01*
X0170951Y0114621D01*
X0168727Y0113700D01*
X0166320Y0113700D01*
X0164097Y0114621D01*
X0162524Y0116194D01*
X0160951Y0114621D01*
X0158727Y0113700D01*
X0156320Y0113700D01*
X0154097Y0114621D01*
X0152395Y0116323D01*
X0151474Y0118547D01*
X0151474Y0120953D01*
X0152395Y0123177D01*
X0154097Y0124879D01*
X0156320Y0125800D01*
X0158727Y0125800D01*
X0160951Y0124879D01*
X0162524Y0123306D01*
X0164097Y0124879D01*
X0166320Y0125800D01*
X0168727Y0125800D01*
X0170951Y0124879D01*
X0172653Y0123177D01*
X0172879Y0122630D01*
X0173367Y0123300D01*
X0173973Y0123907D01*
X0174667Y0124411D01*
X0175432Y0124801D01*
X0176247Y0125066D01*
X0177095Y0125200D01*
X0177274Y0125200D01*
X0177274Y0120000D01*
X0177774Y0120000D01*
X0177774Y0125200D01*
X0177953Y0125200D01*
X0178800Y0125066D01*
X0179616Y0124801D01*
X0180380Y0124411D01*
X0181074Y0123907D01*
X0181681Y0123300D01*
X0182168Y0122630D01*
X0182395Y0123177D01*
X0184097Y0124879D01*
X0186320Y0125800D01*
X0188727Y0125800D01*
X0190951Y0124879D01*
X0192524Y0123306D01*
X0194097Y0124879D01*
X0196320Y0125800D01*
X0198727Y0125800D01*
X0200951Y0124879D01*
X0202524Y0123306D01*
X0204097Y0124879D01*
X0206320Y0125800D01*
X0208727Y0125800D01*
X0210951Y0124879D01*
X0212424Y0123406D01*
X0212424Y0151367D01*
X0212896Y0152506D01*
X0213768Y0153378D01*
X0216768Y0156378D01*
X0217907Y0156850D01*
X0223002Y0156850D01*
X0223050Y0156964D01*
X0223766Y0157681D01*
X0224702Y0158068D01*
X0229652Y0158068D01*
X0230588Y0157681D01*
X0231013Y0157256D01*
X0231150Y0157336D01*
X0231645Y0157468D01*
X0233636Y0157468D01*
X0233636Y0153984D01*
X0234104Y0153984D01*
X0234104Y0157468D01*
X0236095Y0157468D01*
X0236590Y0157336D01*
X0237034Y0157080D01*
X0237396Y0156717D01*
X0237653Y0156273D01*
X0237785Y0155778D01*
X0237785Y0153984D01*
X0234104Y0153984D01*
X0234104Y0153516D01*
X0234104Y0150031D01*
X0236095Y0150031D01*
X0236590Y0150164D01*
X0237034Y0150420D01*
X0237396Y0150783D01*
X0237653Y0151227D01*
X0237785Y0151722D01*
X0237785Y0153516D01*
X0234104Y0153516D01*
X0233636Y0153516D01*
X0233636Y0150031D01*
X0231645Y0150031D01*
X0231150Y0150164D01*
X0231013Y0150244D01*
X0230588Y0149819D01*
X0230224Y0149668D01*
X0230224Y0147932D01*
X0230624Y0146967D01*
X0230624Y0125014D01*
X0230951Y0124879D01*
X0232524Y0123306D01*
X0234097Y0124879D01*
X0236320Y0125800D01*
X0238727Y0125800D01*
X0240951Y0124879D01*
X0242524Y0123306D01*
X0244097Y0124879D01*
X0246320Y0125800D01*
X0248727Y0125800D01*
X0250951Y0124879D01*
X0252524Y0123306D01*
X0254097Y0124879D01*
X0256320Y0125800D01*
X0258727Y0125800D01*
X0260951Y0124879D01*
X0262524Y0123306D01*
X0264097Y0124879D01*
X0264424Y0125014D01*
X0264424Y0135756D01*
X0264238Y0135833D01*
X0262607Y0137465D01*
X0261724Y0139596D01*
X0261724Y0141904D01*
X0262607Y0144035D01*
X0264238Y0145667D01*
X0266370Y0146550D01*
X0268677Y0146550D01*
X0270809Y0145667D01*
X0272441Y0144035D01*
X0273324Y0141904D01*
X0273324Y0139596D01*
X0272441Y0137465D01*
X0270809Y0135833D01*
X0270624Y0135756D01*
X0270624Y0125014D01*
X0270951Y0124879D01*
X0272524Y0123306D01*
X0274097Y0124879D01*
X0274424Y0125014D01*
X0274424Y0151547D01*
X0273766Y0151819D01*
X0273050Y0152536D01*
X0272662Y0153472D01*
X0272662Y0153650D01*
X0269907Y0153650D01*
X0268768Y0154122D01*
X0267896Y0154994D01*
X0264240Y0158650D01*
X0247517Y0158650D01*
X0247441Y0158465D01*
X0245809Y0156833D01*
X0243677Y0155950D01*
X0241370Y0155950D01*
X0239238Y0156833D01*
X0237607Y0158465D01*
X0236724Y0160596D01*
X0236724Y0161094D02*
X0156324Y0161094D01*
X0156324Y0162592D02*
X0236724Y0162592D01*
X0237215Y0164091D02*
X0155832Y0164091D01*
X0154887Y0165589D02*
X0238160Y0165589D01*
X0240254Y0167088D02*
X0152793Y0167088D01*
X0148254Y0167088D02*
X0146570Y0167088D01*
X0145071Y0168586D02*
X0315328Y0168586D01*
X0309857Y0170085D02*
X0143573Y0170085D01*
X0142074Y0171583D02*
X0308306Y0171583D01*
X0306808Y0173082D02*
X0140576Y0173082D01*
X0139077Y0174580D02*
X0305309Y0174580D01*
X0305524Y0178750D02*
X0311524Y0172750D01*
X0318177Y0172750D01*
X0315702Y0177068D02*
X0314766Y0176681D01*
X0314050Y0175964D01*
X0314002Y0175850D01*
X0312808Y0175850D01*
X0308152Y0180506D01*
X0307280Y0181378D01*
X0306140Y0181850D01*
X0256808Y0181850D01*
X0243152Y0195506D01*
X0242280Y0196378D01*
X0241140Y0196850D01*
X0238312Y0196850D01*
X0238998Y0197536D01*
X0239385Y0198472D01*
X0239385Y0203028D01*
X0238998Y0203964D01*
X0238281Y0204681D01*
X0238130Y0204744D01*
X0238145Y0205144D01*
X0238115Y0205228D01*
X0238105Y0205790D01*
X0238209Y0205833D01*
X0239841Y0207465D01*
X0240724Y0209596D01*
X0240724Y0211904D01*
X0239841Y0214035D01*
X0238209Y0215667D01*
X0236077Y0216550D01*
X0233770Y0216550D01*
X0231638Y0215667D01*
X0230007Y0214035D01*
X0229124Y0211904D01*
X0229124Y0209596D01*
X0230007Y0207465D01*
X0231638Y0205833D01*
X0231906Y0205722D01*
X0231920Y0204872D01*
X0231524Y0204708D01*
X0230652Y0205068D01*
X0225702Y0205068D01*
X0224766Y0204681D01*
X0224050Y0203964D01*
X0224002Y0203850D01*
X0219624Y0203850D01*
X0219624Y0209756D01*
X0219809Y0209833D01*
X0221441Y0211465D01*
X0222324Y0213596D01*
X0222324Y0215904D01*
X0221441Y0218035D01*
X0220826Y0218650D01*
X0221670Y0218650D01*
X0221713Y0218607D01*
X0222650Y0218219D01*
X0231925Y0218219D01*
X0232862Y0218607D01*
X0233580Y0219325D01*
X0233968Y0220262D01*
X0233968Y0223238D01*
X0233580Y0224175D01*
X0233505Y0224250D01*
X0233580Y0224325D01*
X0233968Y0225262D01*
X0233968Y0228238D01*
X0233580Y0229175D01*
X0233505Y0229250D01*
X0233580Y0229325D01*
X0233968Y0230262D01*
X0233968Y0233238D01*
X0233580Y0234175D01*
X0233053Y0234702D01*
X0233235Y0235017D01*
X0233368Y0235513D01*
X0233368Y0236750D01*
X0233368Y0237987D01*
X0233235Y0238483D01*
X0233053Y0238798D01*
X0233580Y0239325D01*
X0233968Y0240262D01*
X0233968Y0243238D01*
X0233580Y0244175D01*
X0233505Y0244250D01*
X0233580Y0244325D01*
X0233968Y0245262D01*
X0233968Y0245921D01*
X0234768Y0245122D01*
X0240768Y0239122D01*
X0241346Y0238882D01*
X0241079Y0238238D01*
X0241079Y0235262D01*
X0241467Y0234325D01*
X0241542Y0234250D01*
X0241467Y0234175D01*
X0241079Y0233238D01*
X0241079Y0230262D01*
X0241467Y0229325D01*
X0241542Y0229250D01*
X0241467Y0229175D01*
X0241079Y0228238D01*
X0241079Y0225262D01*
X0241467Y0224325D01*
X0241542Y0224250D01*
X0241467Y0224175D01*
X0241079Y0223238D01*
X0241079Y0220262D01*
X0241467Y0219325D01*
X0242185Y0218607D01*
X0243123Y0218219D01*
X0252397Y0218219D01*
X0252591Y0218299D01*
X0262424Y0208466D01*
X0262424Y0202133D01*
X0262896Y0200994D01*
X0267896Y0195994D01*
X0268768Y0195122D01*
X0269907Y0194650D01*
X0309140Y0194650D01*
X0310280Y0195122D01*
X0311152Y0195994D01*
X0315808Y0200650D01*
X0339489Y0200650D01*
X0346662Y0195264D01*
X0346662Y0193472D01*
X0347050Y0192536D01*
X0347766Y0191819D01*
X0348702Y0191431D01*
X0353652Y0191431D01*
X0354524Y0191792D01*
X0355395Y0191431D01*
X0360345Y0191431D01*
X0361281Y0191819D01*
X0361998Y0192536D01*
X0362045Y0192650D01*
X0362240Y0192650D01*
X0364040Y0190850D01*
X0360907Y0190850D01*
X0359768Y0190378D01*
X0358896Y0189506D01*
X0345240Y0175850D01*
X0329045Y0175850D01*
X0328998Y0175964D01*
X0328281Y0176681D01*
X0327345Y0177068D01*
X0322395Y0177068D01*
X0321524Y0176708D01*
X0320652Y0177068D01*
X0315702Y0177068D01*
X0314164Y0176079D02*
X0312579Y0176079D01*
X0311080Y0177577D02*
X0346967Y0177577D01*
X0345468Y0176079D02*
X0328883Y0176079D01*
X0324870Y0172750D02*
X0346524Y0172750D01*
X0361524Y0187750D01*
X0425524Y0187750D01*
X0429547Y0183571D02*
X0532874Y0183571D01*
X0532874Y0182073D02*
X0426974Y0182073D01*
X0424073Y0182073D02*
X0411324Y0182073D01*
X0411315Y0180574D02*
X0532874Y0180574D01*
X0532874Y0179076D02*
X0410694Y0179076D01*
X0409553Y0177577D02*
X0532874Y0177577D01*
X0532874Y0176079D02*
X0406988Y0176079D01*
X0404059Y0176079D02*
X0370988Y0176079D01*
X0368059Y0176079D02*
X0354236Y0176079D01*
X0352738Y0174580D02*
X0532874Y0174580D01*
X0532874Y0173082D02*
X0351239Y0173082D01*
X0349741Y0171583D02*
X0532874Y0171583D01*
X0532874Y0170085D02*
X0348190Y0170085D01*
X0355735Y0177577D02*
X0365494Y0177577D01*
X0364353Y0179076D02*
X0357234Y0179076D01*
X0358732Y0180574D02*
X0363733Y0180574D01*
X0363724Y0182073D02*
X0360231Y0182073D01*
X0361729Y0183571D02*
X0364000Y0183571D01*
X0369524Y0181750D02*
X0392965Y0181750D01*
X0398083Y0181750D02*
X0405524Y0181750D01*
X0401494Y0177577D02*
X0373553Y0177577D01*
X0357456Y0188067D02*
X0250591Y0188067D01*
X0252089Y0186568D02*
X0355958Y0186568D01*
X0354459Y0185070D02*
X0253588Y0185070D01*
X0255086Y0183571D02*
X0352961Y0183571D01*
X0351462Y0182073D02*
X0256585Y0182073D01*
X0255524Y0178750D02*
X0305524Y0178750D01*
X0308083Y0180574D02*
X0349964Y0180574D01*
X0348465Y0179076D02*
X0309582Y0179076D01*
X0321026Y0168586D02*
X0322021Y0168586D01*
X0327719Y0168586D02*
X0532874Y0168586D01*
X0532874Y0167088D02*
X0396515Y0167088D01*
X0396486Y0167100D02*
X0393562Y0167100D01*
X0390860Y0165981D01*
X0388793Y0163913D01*
X0387674Y0161212D01*
X0387674Y0158288D01*
X0388793Y0155587D01*
X0390860Y0153519D01*
X0393562Y0152400D01*
X0396486Y0152400D01*
X0399187Y0153519D01*
X0401255Y0155587D01*
X0402374Y0158288D01*
X0402374Y0161212D01*
X0401255Y0163913D01*
X0399187Y0165981D01*
X0396486Y0167100D01*
X0393532Y0167088D02*
X0244793Y0167088D01*
X0246887Y0165589D02*
X0390468Y0165589D01*
X0388970Y0164091D02*
X0267567Y0164091D01*
X0269065Y0162592D02*
X0388245Y0162592D01*
X0387674Y0161094D02*
X0270564Y0161094D01*
X0270524Y0156750D02*
X0276177Y0156750D01*
X0277177Y0155750D01*
X0277524Y0155404D01*
X0277524Y0119750D01*
X0277524Y0099350D01*
X0268024Y0089850D01*
X0268024Y0081833D01*
X0268055Y0081801D01*
X0263209Y0080174D02*
X0262901Y0080174D01*
X0262142Y0078676D02*
X0263968Y0078676D01*
X0265892Y0077177D02*
X0260218Y0077177D01*
X0255892Y0077177D02*
X0252298Y0077177D01*
X0253107Y0078676D02*
X0253968Y0078676D01*
X0250800Y0075679D02*
X0318247Y0075679D01*
X0319036Y0074890D02*
X0322443Y0073479D01*
X0326132Y0073479D01*
X0329539Y0074890D01*
X0332147Y0077498D01*
X0333559Y0080906D01*
X0333559Y0084594D01*
X0332147Y0088002D01*
X0329539Y0090610D01*
X0326132Y0092021D01*
X0322443Y0092021D01*
X0319036Y0090610D01*
X0316428Y0088002D01*
X0315016Y0084594D01*
X0315016Y0080906D01*
X0316428Y0077498D01*
X0319036Y0074890D01*
X0320750Y0074180D02*
X0248297Y0074180D01*
X0241223Y0074180D02*
X0116874Y0074180D01*
X0116874Y0072682D02*
X0532874Y0072682D01*
X0532874Y0074180D02*
X0327825Y0074180D01*
X0330327Y0075679D02*
X0532874Y0075679D01*
X0532874Y0077177D02*
X0331826Y0077177D01*
X0332635Y0078676D02*
X0532874Y0078676D01*
X0532874Y0080174D02*
X0333256Y0080174D01*
X0333559Y0081673D02*
X0532874Y0081673D01*
X0532874Y0083171D02*
X0333559Y0083171D01*
X0333527Y0084670D02*
X0532874Y0084670D01*
X0532874Y0086168D02*
X0332907Y0086168D01*
X0332286Y0087667D02*
X0532874Y0087667D01*
X0532874Y0089165D02*
X0330984Y0089165D01*
X0329409Y0090664D02*
X0532874Y0090664D01*
X0532874Y0092162D02*
X0274720Y0092162D01*
X0273221Y0090664D02*
X0319166Y0090664D01*
X0317591Y0089165D02*
X0271723Y0089165D01*
X0271124Y0087667D02*
X0316289Y0087667D01*
X0315668Y0086168D02*
X0310792Y0086168D01*
X0310897Y0086125D02*
X0309022Y0086901D01*
X0306993Y0086901D01*
X0305119Y0086125D01*
X0303684Y0084690D01*
X0303008Y0083057D01*
X0302331Y0084690D01*
X0300897Y0086125D01*
X0299022Y0086901D01*
X0296993Y0086901D01*
X0295119Y0086125D01*
X0293684Y0084690D01*
X0292908Y0082816D01*
X0292908Y0080787D01*
X0293684Y0078912D01*
X0295119Y0077478D01*
X0296993Y0076701D01*
X0299022Y0076701D01*
X0300897Y0077478D01*
X0302331Y0078912D01*
X0303008Y0080545D01*
X0303684Y0078912D01*
X0305119Y0077478D01*
X0306993Y0076701D01*
X0309022Y0076701D01*
X0310897Y0077478D01*
X0312331Y0078912D01*
X0313108Y0080787D01*
X0313108Y0082816D01*
X0312331Y0084690D01*
X0310897Y0086125D01*
X0312340Y0084670D02*
X0315047Y0084670D01*
X0315016Y0083171D02*
X0312961Y0083171D01*
X0313108Y0081673D02*
X0315016Y0081673D01*
X0315319Y0080174D02*
X0312854Y0080174D01*
X0312095Y0078676D02*
X0315940Y0078676D01*
X0316749Y0077177D02*
X0310171Y0077177D01*
X0305845Y0077177D02*
X0300171Y0077177D01*
X0302095Y0078676D02*
X0303921Y0078676D01*
X0303162Y0080174D02*
X0302854Y0080174D01*
X0302961Y0083171D02*
X0303055Y0083171D01*
X0303676Y0084670D02*
X0302340Y0084670D01*
X0300792Y0086168D02*
X0305224Y0086168D01*
X0295224Y0086168D02*
X0289130Y0086168D01*
X0289062Y0086190D02*
X0288362Y0086301D01*
X0288133Y0086301D01*
X0288133Y0081926D01*
X0292508Y0081926D01*
X0292508Y0082155D01*
X0292397Y0082855D01*
X0292178Y0083529D01*
X0291857Y0084160D01*
X0291440Y0084733D01*
X0290939Y0085234D01*
X0290366Y0085650D01*
X0289735Y0085971D01*
X0289062Y0086190D01*
X0288133Y0086168D02*
X0287883Y0086168D01*
X0287883Y0086301D02*
X0287654Y0086301D01*
X0286954Y0086190D01*
X0286280Y0085971D01*
X0285649Y0085650D01*
X0285076Y0085234D01*
X0284575Y0084733D01*
X0284159Y0084160D01*
X0283838Y0083529D01*
X0283619Y0082855D01*
X0283508Y0082155D01*
X0283508Y0081926D01*
X0287883Y0081926D01*
X0287883Y0081676D01*
X0288133Y0081676D01*
X0288133Y0077301D01*
X0288362Y0077301D01*
X0289062Y0077412D01*
X0289735Y0077631D01*
X0290366Y0077952D01*
X0290939Y0078369D01*
X0291440Y0078870D01*
X0291857Y0079443D01*
X0292178Y0080074D01*
X0292397Y0080747D01*
X0292508Y0081447D01*
X0292508Y0081676D01*
X0288133Y0081676D01*
X0288133Y0081926D01*
X0287883Y0081926D01*
X0287883Y0086301D01*
X0286886Y0086168D02*
X0280839Y0086168D01*
X0282387Y0084670D02*
X0284530Y0084670D01*
X0283721Y0083171D02*
X0283008Y0083171D01*
X0283155Y0081673D02*
X0283508Y0081673D01*
X0283508Y0081676D02*
X0283508Y0081447D01*
X0283619Y0080747D01*
X0283838Y0080074D01*
X0284159Y0079443D01*
X0284575Y0078870D01*
X0285076Y0078369D01*
X0285649Y0077952D01*
X0286280Y0077631D01*
X0286954Y0077412D01*
X0287654Y0077301D01*
X0287883Y0077301D01*
X0287883Y0081676D01*
X0283508Y0081676D01*
X0283805Y0080174D02*
X0282901Y0080174D01*
X0282142Y0078676D02*
X0284770Y0078676D01*
X0287883Y0078676D02*
X0288133Y0078676D01*
X0288133Y0080174D02*
X0287883Y0080174D01*
X0287883Y0081673D02*
X0288133Y0081673D01*
X0288133Y0083171D02*
X0287883Y0083171D01*
X0287883Y0084670D02*
X0288133Y0084670D01*
X0291486Y0084670D02*
X0293676Y0084670D01*
X0293055Y0083171D02*
X0292294Y0083171D01*
X0292508Y0081673D02*
X0292908Y0081673D01*
X0293162Y0080174D02*
X0292211Y0080174D01*
X0291246Y0078676D02*
X0293921Y0078676D01*
X0295845Y0077177D02*
X0280218Y0077177D01*
X0275892Y0077177D02*
X0270218Y0077177D01*
X0272142Y0078676D02*
X0273968Y0078676D01*
X0273209Y0080174D02*
X0272901Y0080174D01*
X0273008Y0083171D02*
X0273102Y0083171D01*
X0273723Y0084670D02*
X0272387Y0084670D01*
X0271124Y0086168D02*
X0275271Y0086168D01*
X0276218Y0093661D02*
X0532874Y0093661D01*
X0532874Y0095159D02*
X0277717Y0095159D01*
X0279215Y0096658D02*
X0532874Y0096658D01*
X0532874Y0098156D02*
X0280385Y0098156D01*
X0280624Y0099655D02*
X0532874Y0099655D01*
X0532874Y0101153D02*
X0280624Y0101153D01*
X0280624Y0102652D02*
X0532874Y0102652D01*
X0532874Y0104150D02*
X0280624Y0104150D01*
X0280624Y0105649D02*
X0532874Y0105649D01*
X0532874Y0107147D02*
X0280624Y0107147D01*
X0280624Y0108646D02*
X0532874Y0108646D01*
X0532874Y0110144D02*
X0280624Y0110144D01*
X0280624Y0111643D02*
X0532874Y0111643D01*
X0532874Y0113141D02*
X0280624Y0113141D01*
X0280969Y0114640D02*
X0532874Y0114640D01*
X0532874Y0116138D02*
X0282468Y0116138D01*
X0283197Y0117637D02*
X0532874Y0117637D01*
X0532874Y0119135D02*
X0283574Y0119135D01*
X0283574Y0120634D02*
X0532874Y0120634D01*
X0532874Y0122132D02*
X0283085Y0122132D01*
X0282199Y0123631D02*
X0532874Y0123631D01*
X0532874Y0125129D02*
X0280624Y0125129D01*
X0280624Y0126628D02*
X0532874Y0126628D01*
X0532874Y0128126D02*
X0280624Y0128126D01*
X0280624Y0129625D02*
X0532874Y0129625D01*
X0532874Y0131123D02*
X0289823Y0131123D01*
X0292911Y0132622D02*
X0532874Y0132622D01*
X0532874Y0134120D02*
X0294410Y0134120D01*
X0295392Y0135619D02*
X0532874Y0135619D01*
X0532874Y0137118D02*
X0296012Y0137118D01*
X0296374Y0138616D02*
X0532874Y0138616D01*
X0532874Y0140115D02*
X0515454Y0140115D01*
X0514740Y0139400D02*
X0510308Y0139400D01*
X0507174Y0142534D01*
X0507174Y0146966D01*
X0510308Y0150100D01*
X0514740Y0150100D01*
X0517874Y0146966D01*
X0517874Y0142534D01*
X0514740Y0139400D01*
X0516953Y0141613D02*
X0532874Y0141613D01*
X0532874Y0143112D02*
X0517874Y0143112D01*
X0517874Y0144610D02*
X0532874Y0144610D01*
X0532874Y0146109D02*
X0517874Y0146109D01*
X0517233Y0147607D02*
X0532874Y0147607D01*
X0532874Y0149106D02*
X0515734Y0149106D01*
X0509313Y0149106D02*
X0280624Y0149106D01*
X0280624Y0150604D02*
X0532874Y0150604D01*
X0532874Y0152103D02*
X0286360Y0152103D01*
X0287753Y0153601D02*
X0390778Y0153601D01*
X0389280Y0155100D02*
X0287785Y0155100D01*
X0287785Y0156598D02*
X0388374Y0156598D01*
X0387753Y0158097D02*
X0287700Y0158097D01*
X0284104Y0158097D02*
X0283636Y0158097D01*
X0283636Y0156598D02*
X0284104Y0156598D01*
X0284104Y0155100D02*
X0283636Y0155100D01*
X0283636Y0153601D02*
X0284104Y0153601D01*
X0284104Y0152103D02*
X0283636Y0152103D01*
X0281380Y0152103D02*
X0280872Y0152103D01*
X0280624Y0147607D02*
X0283366Y0147607D01*
X0281366Y0146109D02*
X0280624Y0146109D01*
X0274424Y0146109D02*
X0269743Y0146109D01*
X0271866Y0144610D02*
X0274424Y0144610D01*
X0274424Y0143112D02*
X0272823Y0143112D01*
X0273324Y0141613D02*
X0274424Y0141613D01*
X0274424Y0140115D02*
X0273324Y0140115D01*
X0272918Y0138616D02*
X0274424Y0138616D01*
X0274424Y0137118D02*
X0272094Y0137118D01*
X0270624Y0135619D02*
X0274424Y0135619D01*
X0274424Y0134120D02*
X0270624Y0134120D01*
X0270624Y0132622D02*
X0274424Y0132622D01*
X0274424Y0131123D02*
X0270624Y0131123D01*
X0270624Y0129625D02*
X0274424Y0129625D01*
X0274424Y0128126D02*
X0270624Y0128126D01*
X0270624Y0126628D02*
X0274424Y0126628D01*
X0274424Y0125129D02*
X0270624Y0125129D01*
X0272199Y0123631D02*
X0272849Y0123631D01*
X0264424Y0125129D02*
X0260346Y0125129D01*
X0262199Y0123631D02*
X0262849Y0123631D01*
X0264424Y0126628D02*
X0230624Y0126628D01*
X0230624Y0128126D02*
X0264424Y0128126D01*
X0264424Y0129625D02*
X0230624Y0129625D01*
X0230624Y0131123D02*
X0264424Y0131123D01*
X0264424Y0132622D02*
X0230624Y0132622D01*
X0230624Y0134120D02*
X0264424Y0134120D01*
X0264424Y0135619D02*
X0230624Y0135619D01*
X0230624Y0137118D02*
X0262954Y0137118D01*
X0262130Y0138616D02*
X0230624Y0138616D01*
X0230624Y0140115D02*
X0261724Y0140115D01*
X0261724Y0141613D02*
X0230624Y0141613D01*
X0230624Y0143112D02*
X0262224Y0143112D01*
X0263181Y0144610D02*
X0230624Y0144610D01*
X0230624Y0146109D02*
X0265304Y0146109D01*
X0267524Y0140750D02*
X0267524Y0119750D01*
X0267524Y0105250D01*
X0258024Y0095750D01*
X0258024Y0081833D01*
X0258055Y0081801D01*
X0254924Y0086168D02*
X0253379Y0086168D01*
X0252758Y0087667D02*
X0254924Y0087667D01*
X0254924Y0089165D02*
X0251456Y0089165D01*
X0249882Y0090664D02*
X0254924Y0090664D01*
X0254924Y0092162D02*
X0234138Y0092162D01*
X0235522Y0093661D02*
X0254924Y0093661D01*
X0254924Y0095159D02*
X0236143Y0095159D01*
X0236324Y0096658D02*
X0255044Y0096658D01*
X0256046Y0098156D02*
X0236219Y0098156D01*
X0235598Y0099655D02*
X0257544Y0099655D01*
X0259043Y0101153D02*
X0234323Y0101153D01*
X0226724Y0101153D02*
X0218624Y0101153D01*
X0218624Y0102652D02*
X0260541Y0102652D01*
X0262040Y0104150D02*
X0218624Y0104150D01*
X0218624Y0105649D02*
X0263538Y0105649D01*
X0264424Y0107147D02*
X0218624Y0107147D01*
X0218624Y0108646D02*
X0264424Y0108646D01*
X0264424Y0110144D02*
X0218624Y0110144D01*
X0218624Y0111643D02*
X0264424Y0111643D01*
X0264424Y0113141D02*
X0218624Y0113141D01*
X0218624Y0114640D02*
X0224078Y0114640D01*
X0222579Y0116138D02*
X0218624Y0116138D01*
X0218624Y0117637D02*
X0221850Y0117637D01*
X0221474Y0119135D02*
X0218624Y0119135D01*
X0218624Y0120634D02*
X0221474Y0120634D01*
X0221962Y0122132D02*
X0218624Y0122132D01*
X0218624Y0123631D02*
X0222849Y0123631D01*
X0224424Y0125129D02*
X0218624Y0125129D01*
X0218624Y0126628D02*
X0224424Y0126628D01*
X0224424Y0128126D02*
X0218624Y0128126D01*
X0218624Y0129625D02*
X0224424Y0129625D01*
X0224424Y0131123D02*
X0218624Y0131123D01*
X0218624Y0132622D02*
X0224424Y0132622D01*
X0224424Y0134120D02*
X0218624Y0134120D01*
X0218624Y0135619D02*
X0224424Y0135619D01*
X0224424Y0137118D02*
X0218624Y0137118D01*
X0218624Y0138616D02*
X0224424Y0138616D01*
X0224424Y0140115D02*
X0218624Y0140115D01*
X0218624Y0141613D02*
X0224424Y0141613D01*
X0224424Y0143112D02*
X0218624Y0143112D01*
X0218624Y0144610D02*
X0224424Y0144610D01*
X0224034Y0146109D02*
X0218624Y0146109D01*
X0218624Y0147607D02*
X0224024Y0147607D01*
X0224024Y0149106D02*
X0218624Y0149106D01*
X0219762Y0150604D02*
X0223021Y0150604D01*
X0227124Y0153696D02*
X0227124Y0146750D01*
X0227524Y0146350D01*
X0227524Y0119750D01*
X0232468Y0116138D02*
X0232579Y0116138D01*
X0234078Y0114640D02*
X0230969Y0114640D01*
X0240969Y0114640D02*
X0244078Y0114640D01*
X0242579Y0116138D02*
X0242468Y0116138D01*
X0250969Y0114640D02*
X0254078Y0114640D01*
X0252579Y0116138D02*
X0252468Y0116138D01*
X0260969Y0114640D02*
X0264078Y0114640D01*
X0262579Y0116138D02*
X0262468Y0116138D01*
X0254701Y0125129D02*
X0250346Y0125129D01*
X0252199Y0123631D02*
X0252849Y0123631D01*
X0244701Y0125129D02*
X0240346Y0125129D01*
X0242199Y0123631D02*
X0242849Y0123631D01*
X0234701Y0125129D02*
X0230624Y0125129D01*
X0232199Y0123631D02*
X0232849Y0123631D01*
X0212424Y0123631D02*
X0212199Y0123631D01*
X0212424Y0125129D02*
X0210346Y0125129D01*
X0212424Y0126628D02*
X0116874Y0126628D01*
X0116874Y0128126D02*
X0212424Y0128126D01*
X0212424Y0129625D02*
X0116874Y0129625D01*
X0116874Y0131123D02*
X0212424Y0131123D01*
X0212424Y0132622D02*
X0116874Y0132622D01*
X0116874Y0134120D02*
X0212424Y0134120D01*
X0212424Y0135619D02*
X0116874Y0135619D01*
X0116874Y0137118D02*
X0212424Y0137118D01*
X0212424Y0138616D02*
X0116874Y0138616D01*
X0116874Y0140115D02*
X0168957Y0140115D01*
X0167545Y0141613D02*
X0116874Y0141613D01*
X0116874Y0143112D02*
X0157778Y0143112D01*
X0156437Y0144610D02*
X0116874Y0144610D01*
X0116874Y0146109D02*
X0156077Y0146109D01*
X0156077Y0147607D02*
X0116874Y0147607D01*
X0116874Y0149106D02*
X0148807Y0149106D01*
X0147285Y0150604D02*
X0116874Y0150604D01*
X0116874Y0152103D02*
X0145787Y0152103D01*
X0144288Y0153601D02*
X0116874Y0153601D01*
X0116874Y0155100D02*
X0142790Y0155100D01*
X0141291Y0156598D02*
X0116874Y0156598D01*
X0116874Y0158097D02*
X0139793Y0158097D01*
X0138294Y0159595D02*
X0116874Y0159595D01*
X0116874Y0161094D02*
X0136796Y0161094D01*
X0135297Y0162592D02*
X0116874Y0162592D01*
X0116874Y0164091D02*
X0133799Y0164091D01*
X0132300Y0165589D02*
X0116874Y0165589D01*
X0116874Y0167088D02*
X0130802Y0167088D01*
X0129303Y0168586D02*
X0116874Y0168586D01*
X0116874Y0170085D02*
X0127805Y0170085D01*
X0126306Y0171583D02*
X0116874Y0171583D01*
X0116874Y0173082D02*
X0124808Y0173082D01*
X0123309Y0174580D02*
X0116874Y0174580D01*
X0116874Y0176079D02*
X0121811Y0176079D01*
X0121768Y0176122D02*
X0121768Y0176122D01*
X0120654Y0177577D02*
X0116874Y0177577D01*
X0116874Y0179076D02*
X0120424Y0179076D01*
X0120424Y0180574D02*
X0116874Y0180574D01*
X0116874Y0182073D02*
X0120424Y0182073D01*
X0120424Y0183571D02*
X0116874Y0183571D01*
X0116874Y0185070D02*
X0120424Y0185070D01*
X0120424Y0186568D02*
X0116874Y0186568D01*
X0116874Y0188067D02*
X0120424Y0188067D01*
X0120424Y0189565D02*
X0116874Y0189565D01*
X0116874Y0191064D02*
X0120424Y0191064D01*
X0120424Y0192562D02*
X0116874Y0192562D01*
X0116874Y0194061D02*
X0120424Y0194061D01*
X0120424Y0195559D02*
X0116874Y0195559D01*
X0116874Y0197058D02*
X0120424Y0197058D01*
X0120424Y0198556D02*
X0116874Y0198556D01*
X0116874Y0200055D02*
X0120424Y0200055D01*
X0120424Y0201553D02*
X0116874Y0201553D01*
X0116874Y0203052D02*
X0120424Y0203052D01*
X0120424Y0204551D02*
X0116874Y0204551D01*
X0116874Y0206049D02*
X0120424Y0206049D01*
X0120424Y0207548D02*
X0116874Y0207548D01*
X0116874Y0209046D02*
X0120424Y0209046D01*
X0120424Y0210545D02*
X0116874Y0210545D01*
X0116874Y0212043D02*
X0120424Y0212043D01*
X0120424Y0213542D02*
X0116874Y0213542D01*
X0116874Y0215040D02*
X0120424Y0215040D01*
X0120424Y0216539D02*
X0116874Y0216539D01*
X0116874Y0218037D02*
X0120424Y0218037D01*
X0120424Y0219536D02*
X0116874Y0219536D01*
X0116874Y0221034D02*
X0120424Y0221034D01*
X0120424Y0222533D02*
X0116874Y0222533D01*
X0116874Y0224031D02*
X0120424Y0224031D01*
X0120424Y0225530D02*
X0116874Y0225530D01*
X0116874Y0227028D02*
X0120424Y0227028D01*
X0120424Y0228527D02*
X0116874Y0228527D01*
X0116874Y0230025D02*
X0120424Y0230025D01*
X0120424Y0231524D02*
X0116874Y0231524D01*
X0116874Y0233022D02*
X0120424Y0233022D01*
X0120424Y0234521D02*
X0116874Y0234521D01*
X0116874Y0236019D02*
X0120424Y0236019D01*
X0120424Y0237518D02*
X0116874Y0237518D01*
X0116874Y0239016D02*
X0120424Y0239016D01*
X0120424Y0240515D02*
X0116874Y0240515D01*
X0116874Y0242013D02*
X0120424Y0242013D01*
X0120424Y0243512D02*
X0116874Y0243512D01*
X0116874Y0245010D02*
X0120424Y0245010D01*
X0120424Y0246509D02*
X0116874Y0246509D01*
X0116874Y0248007D02*
X0120424Y0248007D01*
X0120481Y0249506D02*
X0116874Y0249506D01*
X0116874Y0251004D02*
X0121394Y0251004D01*
X0122892Y0252503D02*
X0116874Y0252503D01*
X0116874Y0254001D02*
X0124391Y0254001D01*
X0124724Y0255500D02*
X0116874Y0255500D01*
X0116874Y0256998D02*
X0124724Y0256998D01*
X0124351Y0258497D02*
X0116874Y0258497D01*
X0116874Y0259995D02*
X0124351Y0259995D01*
X0124351Y0261494D02*
X0116874Y0261494D01*
X0116874Y0262992D02*
X0124351Y0262992D01*
X0127783Y0260631D02*
X0127824Y0260591D01*
X0127824Y0253050D01*
X0123524Y0248750D01*
X0123524Y0178750D01*
X0150524Y0151750D01*
X0159177Y0151750D01*
X0159177Y0146096D01*
X0160524Y0144750D01*
X0172524Y0144750D01*
X0178324Y0144610D02*
X0212424Y0144610D01*
X0212424Y0143112D02*
X0178123Y0143112D01*
X0177502Y0141613D02*
X0212424Y0141613D01*
X0212424Y0140115D02*
X0176091Y0140115D01*
X0178239Y0146109D02*
X0212424Y0146109D01*
X0212424Y0147607D02*
X0177618Y0147607D01*
X0176370Y0149106D02*
X0212424Y0149106D01*
X0212424Y0150604D02*
X0169785Y0150604D01*
X0169785Y0151984D02*
X0169785Y0153778D01*
X0169653Y0154273D01*
X0169396Y0154717D01*
X0169034Y0155080D01*
X0168590Y0155336D01*
X0168095Y0155468D01*
X0166104Y0155468D01*
X0166104Y0151984D01*
X0169785Y0151984D01*
X0169785Y0152103D02*
X0212728Y0152103D01*
X0213991Y0153601D02*
X0169785Y0153601D01*
X0168999Y0155100D02*
X0215489Y0155100D01*
X0217299Y0156598D02*
X0153242Y0156598D01*
X0151558Y0155100D02*
X0155185Y0155100D01*
X0155073Y0158097D02*
X0237975Y0158097D01*
X0237465Y0156598D02*
X0239805Y0156598D01*
X0237785Y0155100D02*
X0267790Y0155100D01*
X0266291Y0156598D02*
X0245242Y0156598D01*
X0247073Y0158097D02*
X0264793Y0158097D01*
X0265524Y0161750D02*
X0270524Y0156750D01*
X0272662Y0153601D02*
X0234104Y0153601D01*
X0234104Y0152103D02*
X0233636Y0152103D01*
X0233636Y0150604D02*
X0234104Y0150604D01*
X0237218Y0150604D02*
X0274424Y0150604D01*
X0274424Y0149106D02*
X0230224Y0149106D01*
X0230358Y0147607D02*
X0274424Y0147607D01*
X0273483Y0152103D02*
X0237785Y0152103D01*
X0234104Y0155100D02*
X0233636Y0155100D01*
X0233636Y0156598D02*
X0234104Y0156598D01*
X0227177Y0153750D02*
X0227124Y0153696D01*
X0227177Y0153750D02*
X0218524Y0153750D01*
X0215524Y0150750D01*
X0215524Y0099750D01*
X0218524Y0096750D01*
X0230524Y0096750D01*
X0226909Y0092162D02*
X0116874Y0092162D01*
X0116874Y0090664D02*
X0239638Y0090664D01*
X0238063Y0089165D02*
X0116874Y0089165D01*
X0116874Y0087667D02*
X0236761Y0087667D01*
X0236141Y0086168D02*
X0116874Y0086168D01*
X0116874Y0084670D02*
X0235520Y0084670D01*
X0235489Y0083171D02*
X0116874Y0083171D01*
X0116874Y0081673D02*
X0235489Y0081673D01*
X0235792Y0080174D02*
X0116874Y0080174D01*
X0116874Y0078676D02*
X0236412Y0078676D01*
X0237221Y0077177D02*
X0116874Y0077177D01*
X0116874Y0075679D02*
X0238720Y0075679D01*
X0217881Y0093661D02*
X0116874Y0093661D01*
X0116874Y0095159D02*
X0215730Y0095159D01*
X0214232Y0096658D02*
X0116874Y0096658D01*
X0116874Y0098156D02*
X0212828Y0098156D01*
X0212424Y0099655D02*
X0116874Y0099655D01*
X0116874Y0101153D02*
X0212424Y0101153D01*
X0212424Y0102652D02*
X0116874Y0102652D01*
X0116874Y0104150D02*
X0212424Y0104150D01*
X0212424Y0105649D02*
X0116874Y0105649D01*
X0116874Y0107147D02*
X0212424Y0107147D01*
X0212424Y0108646D02*
X0116874Y0108646D01*
X0116874Y0110144D02*
X0212424Y0110144D01*
X0212424Y0111643D02*
X0116874Y0111643D01*
X0116874Y0113141D02*
X0212424Y0113141D01*
X0212424Y0114640D02*
X0210969Y0114640D01*
X0204078Y0114640D02*
X0200969Y0114640D01*
X0202468Y0116138D02*
X0202579Y0116138D01*
X0194078Y0114640D02*
X0190969Y0114640D01*
X0192468Y0116138D02*
X0192579Y0116138D01*
X0184078Y0114640D02*
X0179433Y0114640D01*
X0177774Y0114640D02*
X0177274Y0114640D01*
X0177274Y0116138D02*
X0177774Y0116138D01*
X0177774Y0117637D02*
X0177274Y0117637D01*
X0177274Y0119135D02*
X0177774Y0119135D01*
X0177774Y0120634D02*
X0177274Y0120634D01*
X0177274Y0122132D02*
X0177774Y0122132D01*
X0177774Y0123631D02*
X0177274Y0123631D01*
X0177274Y0125129D02*
X0177774Y0125129D01*
X0178398Y0125129D02*
X0184701Y0125129D01*
X0182849Y0123631D02*
X0181350Y0123631D01*
X0176649Y0125129D02*
X0170346Y0125129D01*
X0172199Y0123631D02*
X0173697Y0123631D01*
X0164701Y0125129D02*
X0160346Y0125129D01*
X0162199Y0123631D02*
X0162849Y0123631D01*
X0154701Y0125129D02*
X0116874Y0125129D01*
X0116874Y0123631D02*
X0152849Y0123631D01*
X0151962Y0122132D02*
X0116874Y0122132D01*
X0116874Y0120634D02*
X0151474Y0120634D01*
X0151474Y0119135D02*
X0116874Y0119135D01*
X0116874Y0117637D02*
X0151850Y0117637D01*
X0152579Y0116138D02*
X0116874Y0116138D01*
X0116874Y0114640D02*
X0154078Y0114640D01*
X0160969Y0114640D02*
X0164078Y0114640D01*
X0162579Y0116138D02*
X0162468Y0116138D01*
X0170969Y0114640D02*
X0175615Y0114640D01*
X0173428Y0116138D02*
X0172468Y0116138D01*
X0181619Y0116138D02*
X0182579Y0116138D01*
X0190346Y0125129D02*
X0194701Y0125129D01*
X0192849Y0123631D02*
X0192199Y0123631D01*
X0200346Y0125129D02*
X0204701Y0125129D01*
X0202849Y0123631D02*
X0202199Y0123631D01*
X0166104Y0149106D02*
X0165636Y0149106D01*
X0165636Y0150604D02*
X0166104Y0150604D01*
X0166104Y0152103D02*
X0165636Y0152103D01*
X0165636Y0153601D02*
X0166104Y0153601D01*
X0166104Y0155100D02*
X0165636Y0155100D01*
X0137579Y0176079D02*
X0253872Y0176079D01*
X0252312Y0177577D02*
X0136080Y0177577D01*
X0134582Y0179076D02*
X0250814Y0179076D01*
X0249315Y0180574D02*
X0133083Y0180574D01*
X0131585Y0182073D02*
X0247817Y0182073D01*
X0246318Y0183571D02*
X0130624Y0183571D01*
X0130624Y0185070D02*
X0244820Y0185070D01*
X0243321Y0186568D02*
X0186676Y0186568D01*
X0188218Y0188067D02*
X0241823Y0188067D01*
X0240324Y0189565D02*
X0188385Y0189565D01*
X0189187Y0191064D02*
X0217908Y0191064D01*
X0216327Y0192562D02*
X0191040Y0192562D01*
X0192892Y0194061D02*
X0215454Y0194061D01*
X0215424Y0195559D02*
X0194791Y0195559D01*
X0195747Y0197058D02*
X0215424Y0197058D01*
X0215333Y0198556D02*
X0196683Y0198556D01*
X0197620Y0200055D02*
X0213870Y0200055D01*
X0213424Y0201553D02*
X0198556Y0201553D01*
X0199493Y0203052D02*
X0213424Y0203052D01*
X0213424Y0204551D02*
X0200430Y0204551D01*
X0201366Y0206049D02*
X0213424Y0206049D01*
X0213424Y0207548D02*
X0202303Y0207548D01*
X0203239Y0209046D02*
X0213424Y0209046D01*
X0212527Y0210545D02*
X0204176Y0210545D01*
X0205112Y0212043D02*
X0211367Y0212043D01*
X0210746Y0213542D02*
X0206049Y0213542D01*
X0206986Y0215040D02*
X0210724Y0215040D01*
X0210987Y0216539D02*
X0207922Y0216539D01*
X0208859Y0218037D02*
X0211608Y0218037D01*
X0207524Y0221750D02*
X0192524Y0197750D01*
X0183870Y0190750D01*
X0181064Y0186568D02*
X0179983Y0186568D01*
X0177177Y0190750D02*
X0161124Y0190750D01*
X0156024Y0195850D01*
X0156024Y0225700D01*
X0156177Y0225546D01*
X0152374Y0225530D02*
X0145842Y0225530D01*
X0145842Y0227028D02*
X0152374Y0227028D01*
X0152374Y0228527D02*
X0145435Y0228527D01*
X0145806Y0230025D02*
X0152379Y0230025D01*
X0161024Y0225700D02*
X0161124Y0219650D01*
X0163524Y0217750D01*
X0163524Y0212096D01*
X0171024Y0211750D02*
X0172024Y0210750D01*
X0176177Y0210750D01*
X0171024Y0211750D02*
X0171024Y0225700D01*
X0166024Y0225700D02*
X0166024Y0231850D01*
X0161924Y0234050D01*
X0146624Y0234150D01*
X0141524Y0231050D01*
X0141524Y0225096D01*
X0137205Y0225530D02*
X0130624Y0225530D01*
X0130624Y0227028D02*
X0137205Y0227028D01*
X0137612Y0228527D02*
X0130624Y0228527D01*
X0130624Y0230025D02*
X0138424Y0230025D01*
X0138424Y0231524D02*
X0130624Y0231524D01*
X0130624Y0233022D02*
X0139112Y0233022D01*
X0141265Y0234521D02*
X0130624Y0234521D01*
X0130624Y0236019D02*
X0133052Y0236019D01*
X0131585Y0237518D02*
X0130624Y0237518D01*
X0130624Y0239016D02*
X0130964Y0239016D01*
X0130724Y0240515D02*
X0130624Y0240515D01*
X0130624Y0242013D02*
X0130769Y0242013D01*
X0130624Y0243512D02*
X0131390Y0243512D01*
X0131168Y0245010D02*
X0132582Y0245010D01*
X0132666Y0246509D02*
X0133424Y0246509D01*
X0139995Y0236019D02*
X0143731Y0236019D01*
X0145842Y0224031D02*
X0152374Y0224031D01*
X0152374Y0222533D02*
X0145805Y0222533D01*
X0145778Y0221034D02*
X0152520Y0221034D01*
X0152924Y0219536D02*
X0145842Y0219536D01*
X0145842Y0218037D02*
X0152924Y0218037D01*
X0152924Y0216539D02*
X0145842Y0216539D01*
X0145474Y0215040D02*
X0152924Y0215040D01*
X0152924Y0213542D02*
X0144934Y0213542D01*
X0146433Y0212043D02*
X0152924Y0212043D01*
X0152924Y0210545D02*
X0147058Y0210545D01*
X0147324Y0209046D02*
X0152924Y0209046D01*
X0152924Y0207548D02*
X0147303Y0207548D01*
X0146683Y0206049D02*
X0152924Y0206049D01*
X0152924Y0204551D02*
X0145527Y0204551D01*
X0142924Y0203052D02*
X0152924Y0203052D01*
X0152924Y0201553D02*
X0130624Y0201553D01*
X0130624Y0200055D02*
X0152924Y0200055D01*
X0152924Y0198556D02*
X0130624Y0198556D01*
X0130624Y0197058D02*
X0152924Y0197058D01*
X0152924Y0195559D02*
X0130624Y0195559D01*
X0130624Y0194061D02*
X0153429Y0194061D01*
X0154927Y0192562D02*
X0130624Y0192562D01*
X0130624Y0191064D02*
X0156426Y0191064D01*
X0157924Y0189565D02*
X0130624Y0189565D01*
X0130624Y0188067D02*
X0159501Y0188067D01*
X0163524Y0197750D02*
X0163524Y0205404D01*
X0176977Y0200850D02*
X0177177Y0190750D01*
X0174372Y0186568D02*
X0130624Y0186568D01*
X0130624Y0203052D02*
X0140124Y0203052D01*
X0137521Y0204551D02*
X0130624Y0204551D01*
X0130624Y0206049D02*
X0136365Y0206049D01*
X0135744Y0207548D02*
X0130624Y0207548D01*
X0130624Y0209046D02*
X0135724Y0209046D01*
X0135989Y0210545D02*
X0130624Y0210545D01*
X0130624Y0212043D02*
X0136614Y0212043D01*
X0138113Y0213542D02*
X0130624Y0213542D01*
X0130624Y0215040D02*
X0137573Y0215040D01*
X0137205Y0216539D02*
X0130624Y0216539D01*
X0130624Y0218037D02*
X0137205Y0218037D01*
X0137205Y0219536D02*
X0130624Y0219536D01*
X0130624Y0221034D02*
X0137270Y0221034D01*
X0137242Y0222533D02*
X0130624Y0222533D01*
X0130624Y0224031D02*
X0137205Y0224031D01*
X0141524Y0218404D02*
X0141524Y0208750D01*
X0168908Y0233022D02*
X0214096Y0233022D01*
X0212095Y0231524D02*
X0188709Y0231524D01*
X0189668Y0230025D02*
X0191296Y0230025D01*
X0195124Y0225650D02*
X0186024Y0225700D01*
X0186024Y0218750D01*
X0187724Y0217050D01*
X0187724Y0211650D01*
X0186824Y0210750D01*
X0182870Y0210750D01*
X0182824Y0210704D01*
X0182824Y0205650D01*
X0183670Y0204804D01*
X0183670Y0200850D01*
X0188185Y0201553D02*
X0191245Y0201553D01*
X0190309Y0200055D02*
X0188185Y0200055D01*
X0188179Y0198556D02*
X0188591Y0198556D01*
X0188185Y0203052D02*
X0192182Y0203052D01*
X0193118Y0204551D02*
X0187311Y0204551D01*
X0186510Y0206049D02*
X0194055Y0206049D01*
X0194991Y0207548D02*
X0187003Y0207548D01*
X0189504Y0209046D02*
X0195928Y0209046D01*
X0196865Y0210545D02*
X0190621Y0210545D01*
X0190824Y0212043D02*
X0197801Y0212043D01*
X0198738Y0213542D02*
X0190824Y0213542D01*
X0190824Y0215040D02*
X0199674Y0215040D01*
X0200611Y0216539D02*
X0190824Y0216539D01*
X0190670Y0218037D02*
X0201547Y0218037D01*
X0202484Y0219536D02*
X0189622Y0219536D01*
X0189527Y0221034D02*
X0191537Y0221034D01*
X0190137Y0222533D02*
X0189674Y0222533D01*
X0198710Y0221034D02*
X0203421Y0221034D01*
X0204357Y0222533D02*
X0200110Y0222533D01*
X0200731Y0224031D02*
X0205383Y0224031D01*
X0207524Y0221750D02*
X0227287Y0221750D01*
X0227287Y0226750D01*
X0233968Y0227028D02*
X0241079Y0227028D01*
X0241079Y0225530D02*
X0233968Y0225530D01*
X0233639Y0224031D02*
X0241408Y0224031D01*
X0241079Y0222533D02*
X0233968Y0222533D01*
X0233968Y0221034D02*
X0241079Y0221034D01*
X0241380Y0219536D02*
X0233667Y0219536D01*
X0233742Y0216539D02*
X0222061Y0216539D01*
X0222324Y0215040D02*
X0231011Y0215040D01*
X0229802Y0213542D02*
X0222301Y0213542D01*
X0221680Y0212043D02*
X0229181Y0212043D01*
X0229124Y0210545D02*
X0220521Y0210545D01*
X0219624Y0209046D02*
X0229352Y0209046D01*
X0229972Y0207548D02*
X0219624Y0207548D01*
X0219624Y0206049D02*
X0231422Y0206049D01*
X0235024Y0204650D02*
X0234924Y0210750D01*
X0240724Y0210545D02*
X0260345Y0210545D01*
X0258846Y0212043D02*
X0240666Y0212043D01*
X0240045Y0213542D02*
X0257348Y0213542D01*
X0255849Y0215040D02*
X0238836Y0215040D01*
X0236105Y0216539D02*
X0254351Y0216539D01*
X0252852Y0218037D02*
X0221439Y0218037D01*
X0216524Y0214750D02*
X0216524Y0201750D01*
X0217524Y0200750D01*
X0228177Y0200750D01*
X0218524Y0200750D01*
X0218524Y0194750D01*
X0219524Y0193750D01*
X0240524Y0193750D01*
X0255524Y0178750D01*
X0249092Y0189565D02*
X0358955Y0189565D01*
X0362009Y0192562D02*
X0362327Y0192562D01*
X0363826Y0191064D02*
X0247594Y0191064D01*
X0246095Y0192562D02*
X0347038Y0192562D01*
X0346662Y0194061D02*
X0244597Y0194061D01*
X0243098Y0195559D02*
X0268330Y0195559D01*
X0266832Y0197058D02*
X0238520Y0197058D01*
X0239385Y0198556D02*
X0265333Y0198556D01*
X0263835Y0200055D02*
X0239385Y0200055D01*
X0239385Y0201553D02*
X0262664Y0201553D01*
X0262424Y0203052D02*
X0239376Y0203052D01*
X0238411Y0204551D02*
X0262424Y0204551D01*
X0262424Y0206049D02*
X0238425Y0206049D01*
X0239875Y0207548D02*
X0262424Y0207548D01*
X0261844Y0209046D02*
X0240496Y0209046D01*
X0235024Y0204650D02*
X0234870Y0200750D01*
X0224636Y0204551D02*
X0219624Y0204551D01*
X0247760Y0221750D02*
X0253524Y0221750D01*
X0265524Y0209750D01*
X0265524Y0202750D01*
X0270524Y0197750D01*
X0308524Y0197750D01*
X0314524Y0203750D01*
X0340524Y0203750D01*
X0351177Y0195750D01*
X0346268Y0195559D02*
X0310717Y0195559D01*
X0312216Y0197058D02*
X0344273Y0197058D01*
X0342277Y0198556D02*
X0313714Y0198556D01*
X0315213Y0200055D02*
X0340282Y0200055D01*
X0344620Y0204551D02*
X0353571Y0204551D01*
X0355019Y0203052D02*
X0346616Y0203052D01*
X0348611Y0201553D02*
X0374980Y0201553D01*
X0374674Y0200055D02*
X0360378Y0200055D01*
X0362028Y0203052D02*
X0375760Y0203052D01*
X0377633Y0204551D02*
X0363476Y0204551D01*
X0364097Y0206049D02*
X0376159Y0206049D01*
X0375145Y0207548D02*
X0364324Y0207548D01*
X0364265Y0209046D02*
X0374674Y0209046D01*
X0374674Y0210545D02*
X0363644Y0210545D01*
X0362433Y0212043D02*
X0375183Y0212043D01*
X0376249Y0213542D02*
X0362385Y0213542D01*
X0362385Y0215040D02*
X0377414Y0215040D01*
X0375669Y0216539D02*
X0362385Y0216539D01*
X0361925Y0218037D02*
X0374942Y0218037D01*
X0374674Y0219536D02*
X0360970Y0219536D01*
X0360970Y0221034D02*
X0374765Y0221034D01*
X0375385Y0222533D02*
X0361995Y0222533D01*
X0362385Y0224031D02*
X0376739Y0224031D01*
X0386308Y0224031D02*
X0403739Y0224031D01*
X0403993Y0224285D02*
X0402488Y0222781D01*
X0401674Y0220814D01*
X0401674Y0218686D01*
X0402488Y0216719D01*
X0403993Y0215214D01*
X0405114Y0214750D01*
X0403993Y0214285D01*
X0402488Y0212781D01*
X0401674Y0210814D01*
X0401674Y0208686D01*
X0402488Y0206719D01*
X0403993Y0205214D01*
X0405114Y0204750D01*
X0403993Y0204285D01*
X0402488Y0202781D01*
X0401674Y0200814D01*
X0401674Y0198686D01*
X0402488Y0196719D01*
X0403993Y0195214D01*
X0405959Y0194400D01*
X0411088Y0194400D01*
X0413054Y0195214D01*
X0414559Y0196719D01*
X0415374Y0198686D01*
X0415374Y0200814D01*
X0414559Y0202781D01*
X0413054Y0204285D01*
X0411933Y0204750D01*
X0413054Y0205214D01*
X0414559Y0206719D01*
X0415374Y0208686D01*
X0415374Y0210814D01*
X0414559Y0212781D01*
X0413054Y0214285D01*
X0411933Y0214750D01*
X0413054Y0215214D01*
X0414559Y0216719D01*
X0415374Y0218686D01*
X0415374Y0220814D01*
X0414559Y0222781D01*
X0413054Y0224285D01*
X0411088Y0225100D01*
X0405959Y0225100D01*
X0403993Y0224285D01*
X0402385Y0222533D02*
X0387662Y0222533D01*
X0388283Y0221034D02*
X0401765Y0221034D01*
X0401674Y0219536D02*
X0388374Y0219536D01*
X0388105Y0218037D02*
X0401942Y0218037D01*
X0402669Y0216539D02*
X0387378Y0216539D01*
X0385633Y0215040D02*
X0404414Y0215040D01*
X0403249Y0213542D02*
X0386798Y0213542D01*
X0387865Y0212043D02*
X0402183Y0212043D01*
X0401674Y0210545D02*
X0388374Y0210545D01*
X0388374Y0209046D02*
X0401674Y0209046D01*
X0402145Y0207548D02*
X0387902Y0207548D01*
X0386889Y0206049D02*
X0403159Y0206049D01*
X0404633Y0204551D02*
X0385414Y0204551D01*
X0387288Y0203052D02*
X0392268Y0203052D01*
X0389921Y0201553D02*
X0388067Y0201553D01*
X0391024Y0198650D02*
X0383824Y0192650D01*
X0366524Y0192750D01*
X0363524Y0195750D01*
X0357870Y0195750D01*
X0355362Y0200055D02*
X0353685Y0200055D01*
X0349841Y0206049D02*
X0342625Y0206049D01*
X0348463Y0207548D02*
X0268624Y0207548D01*
X0268624Y0209046D02*
X0348077Y0209046D01*
X0348077Y0210545D02*
X0268550Y0210545D01*
X0267615Y0212043D02*
X0342958Y0212043D01*
X0341348Y0213542D02*
X0292718Y0213542D01*
X0294055Y0215040D02*
X0339849Y0215040D01*
X0338351Y0216539D02*
X0294675Y0216539D01*
X0294824Y0218037D02*
X0336852Y0218037D01*
X0335354Y0219536D02*
X0294686Y0219536D01*
X0294065Y0221034D02*
X0333855Y0221034D01*
X0332357Y0222533D02*
X0292743Y0222533D01*
X0289024Y0218050D02*
X0279870Y0218050D01*
X0279870Y0227750D01*
X0279870Y0233757D01*
X0279824Y0233804D01*
X0265470Y0233804D01*
X0262524Y0236750D01*
X0247760Y0236750D01*
X0247760Y0231750D02*
X0257524Y0231750D01*
X0260524Y0221750D01*
X0262524Y0221750D01*
X0267884Y0219536D02*
X0269262Y0219536D01*
X0269668Y0221034D02*
X0268324Y0221034D01*
X0268324Y0222533D02*
X0276770Y0222533D01*
X0276247Y0224031D02*
X0267857Y0224031D01*
X0266946Y0225530D02*
X0269313Y0225530D01*
X0269262Y0227028D02*
X0264937Y0227028D01*
X0261727Y0228527D02*
X0269262Y0228527D01*
X0269328Y0230025D02*
X0261278Y0230025D01*
X0260828Y0231524D02*
X0263366Y0231524D01*
X0261867Y0233022D02*
X0260378Y0233022D01*
X0272943Y0227028D02*
X0273411Y0227028D01*
X0273411Y0225530D02*
X0272943Y0225530D01*
X0272943Y0221034D02*
X0273411Y0221034D01*
X0273411Y0219536D02*
X0272943Y0219536D01*
X0272943Y0218037D02*
X0267013Y0218037D01*
X0265098Y0216539D02*
X0269262Y0216539D01*
X0269694Y0215040D02*
X0264618Y0215040D01*
X0266116Y0213542D02*
X0285330Y0213542D01*
X0285304Y0222533D02*
X0282970Y0222533D01*
X0283493Y0224031D02*
X0330858Y0224031D01*
X0331524Y0227750D02*
X0312524Y0227750D01*
X0294524Y0245750D01*
X0271524Y0245750D01*
X0270524Y0246750D01*
X0247760Y0246750D01*
X0247760Y0241750D02*
X0242524Y0241750D01*
X0236524Y0247750D01*
X0236524Y0256750D01*
X0234524Y0258750D01*
X0205870Y0258750D01*
X0205870Y0266096D01*
X0211524Y0271750D01*
X0211524Y0276404D01*
X0211870Y0276750D01*
X0211724Y0276604D01*
X0216385Y0276479D02*
X0216424Y0276479D01*
X0216385Y0274981D02*
X0216424Y0274981D01*
X0216385Y0277978D02*
X0216424Y0277978D01*
X0216424Y0279476D02*
X0216200Y0279476D01*
X0216424Y0280975D02*
X0214572Y0280975D01*
X0216424Y0282473D02*
X0199863Y0282473D01*
X0197184Y0282473D02*
X0189124Y0282473D01*
X0189124Y0280975D02*
X0194546Y0280975D01*
X0193375Y0279476D02*
X0189124Y0279476D01*
X0189124Y0277978D02*
X0192754Y0277978D01*
X0192724Y0276479D02*
X0189124Y0276479D01*
X0189124Y0274981D02*
X0192979Y0274981D01*
X0193599Y0273482D02*
X0189124Y0273482D01*
X0189124Y0271984D02*
X0195088Y0271984D01*
X0189124Y0270485D02*
X0205875Y0270485D01*
X0207373Y0271984D02*
X0201960Y0271984D01*
X0204376Y0268987D02*
X0189124Y0268987D01*
X0189124Y0267488D02*
X0203091Y0267488D01*
X0202770Y0265989D02*
X0189124Y0265989D01*
X0189124Y0264491D02*
X0190727Y0264491D01*
X0193320Y0264491D02*
X0202770Y0264491D01*
X0202770Y0262992D02*
X0201836Y0262992D01*
X0199177Y0258750D02*
X0192024Y0258750D01*
X0195984Y0262992D02*
X0196519Y0262992D01*
X0203995Y0251004D02*
X0209969Y0251004D01*
X0210590Y0249506D02*
X0205970Y0249506D01*
X0206866Y0248007D02*
X0212064Y0248007D01*
X0214381Y0246509D02*
X0207324Y0246509D01*
X0207324Y0245010D02*
X0220711Y0245010D01*
X0219524Y0248750D02*
X0216524Y0248750D01*
X0215524Y0249750D01*
X0215524Y0252750D01*
X0219524Y0248750D02*
X0222524Y0251750D01*
X0227287Y0251750D01*
X0227287Y0246750D01*
X0227287Y0241750D02*
X0202524Y0241750D01*
X0201524Y0242750D01*
X0201524Y0245750D01*
X0209962Y0255500D02*
X0210385Y0255500D01*
X0213524Y0264750D02*
X0219524Y0273750D01*
X0219524Y0286750D01*
X0227524Y0300750D01*
X0227524Y0309750D01*
X0231888Y0313942D02*
X0233159Y0313942D01*
X0235452Y0315440D02*
X0229595Y0315440D01*
X0225452Y0315440D02*
X0219595Y0315440D01*
X0221888Y0313942D02*
X0223159Y0313942D01*
X0217524Y0309750D02*
X0207524Y0299750D01*
X0207524Y0297750D01*
X0210524Y0294750D01*
X0216524Y0294750D01*
X0213106Y0289966D02*
X0186692Y0289966D01*
X0185193Y0291464D02*
X0211607Y0291464D01*
X0207927Y0292963D02*
X0183695Y0292963D01*
X0182196Y0294461D02*
X0206428Y0294461D01*
X0204930Y0295960D02*
X0180698Y0295960D01*
X0179199Y0297458D02*
X0204424Y0297458D01*
X0204424Y0298957D02*
X0177701Y0298957D01*
X0176202Y0300455D02*
X0204460Y0300455D01*
X0205343Y0301954D02*
X0175624Y0301954D01*
X0175624Y0303452D02*
X0206842Y0303452D01*
X0203767Y0304951D02*
X0196280Y0304951D01*
X0197705Y0306449D02*
X0202342Y0306449D01*
X0201722Y0307948D02*
X0198326Y0307948D01*
X0198574Y0309446D02*
X0201474Y0309446D01*
X0201474Y0310945D02*
X0198574Y0310945D01*
X0197956Y0312443D02*
X0202091Y0312443D01*
X0203159Y0313942D02*
X0196888Y0313942D01*
X0194595Y0315440D02*
X0205452Y0315440D01*
X0209595Y0315440D02*
X0215452Y0315440D01*
X0213159Y0313942D02*
X0211888Y0313942D01*
X0231280Y0304951D02*
X0233767Y0304951D01*
X0230624Y0303452D02*
X0244424Y0303452D01*
X0244424Y0301954D02*
X0230624Y0301954D01*
X0230624Y0300455D02*
X0244424Y0300455D01*
X0244424Y0298957D02*
X0230114Y0298957D01*
X0229213Y0297458D02*
X0244424Y0297458D01*
X0244930Y0295960D02*
X0228357Y0295960D01*
X0228892Y0294461D02*
X0246428Y0294461D01*
X0247927Y0292963D02*
X0231513Y0292963D01*
X0232677Y0291464D02*
X0250607Y0291464D01*
X0252106Y0289966D02*
X0233298Y0289966D01*
X0233324Y0288467D02*
X0295674Y0288467D01*
X0295524Y0286969D02*
X0283144Y0286969D01*
X0283064Y0287048D02*
X0280767Y0288000D01*
X0278280Y0288000D01*
X0275983Y0287048D01*
X0274225Y0285290D01*
X0273274Y0282993D01*
X0273274Y0280507D01*
X0274225Y0278210D01*
X0275983Y0276452D01*
X0278280Y0275500D01*
X0280767Y0275500D01*
X0283064Y0276452D01*
X0284822Y0278210D01*
X0285774Y0280507D01*
X0285774Y0282993D01*
X0284822Y0285290D01*
X0283064Y0287048D01*
X0284642Y0285470D02*
X0295659Y0285470D01*
X0296279Y0283972D02*
X0285368Y0283972D01*
X0285774Y0282473D02*
X0297598Y0282473D01*
X0297047Y0279476D02*
X0285347Y0279476D01*
X0285774Y0280975D02*
X0304819Y0280975D01*
X0305049Y0282473D02*
X0305461Y0282473D01*
X0304176Y0279476D02*
X0304000Y0279476D01*
X0309637Y0276479D02*
X0309859Y0276479D01*
X0309859Y0274981D02*
X0308995Y0274981D01*
X0308354Y0273482D02*
X0309965Y0273482D01*
X0310624Y0271984D02*
X0306954Y0271984D01*
X0304461Y0270485D02*
X0310624Y0270485D01*
X0310624Y0268987D02*
X0301765Y0268987D01*
X0299282Y0268987D02*
X0279038Y0268987D01*
X0280988Y0267488D02*
X0298059Y0267488D01*
X0296588Y0265989D02*
X0281874Y0265989D01*
X0282324Y0264491D02*
X0295967Y0264491D01*
X0295724Y0262992D02*
X0282324Y0262992D01*
X0281867Y0261494D02*
X0295766Y0261494D01*
X0296387Y0259995D02*
X0293522Y0259995D01*
X0288219Y0259995D02*
X0280971Y0259995D01*
X0280524Y0258497D02*
X0278998Y0258497D01*
X0280262Y0256998D02*
X0239624Y0256998D01*
X0239624Y0255500D02*
X0280262Y0255500D01*
X0280262Y0254001D02*
X0272656Y0254001D01*
X0270524Y0251750D02*
X0247760Y0251750D01*
X0241079Y0251004D02*
X0239624Y0251004D01*
X0239624Y0249506D02*
X0241392Y0249506D01*
X0241079Y0248007D02*
X0240650Y0248007D01*
X0241079Y0252503D02*
X0239624Y0252503D01*
X0239624Y0254001D02*
X0241395Y0254001D01*
X0239155Y0258497D02*
X0274050Y0258497D01*
X0272076Y0259995D02*
X0271457Y0259995D01*
X0267870Y0263750D02*
X0276524Y0263750D01*
X0274010Y0268987D02*
X0248289Y0268987D01*
X0248324Y0267488D02*
X0257573Y0267488D01*
X0261177Y0263750D02*
X0251524Y0263750D01*
X0248524Y0261750D01*
X0238524Y0261750D01*
X0235524Y0264750D01*
X0226524Y0264750D01*
X0232524Y0267750D02*
X0227524Y0272750D01*
X0227524Y0288750D01*
X0233064Y0286969D02*
X0237321Y0286969D01*
X0237355Y0286986D02*
X0236562Y0286582D01*
X0235843Y0286060D01*
X0235214Y0285431D01*
X0234691Y0284711D01*
X0234288Y0283919D01*
X0234013Y0283073D01*
X0233874Y0282195D01*
X0233874Y0281984D01*
X0239289Y0281984D01*
X0239289Y0281516D01*
X0233874Y0281516D01*
X0233874Y0281305D01*
X0234013Y0280427D01*
X0234288Y0279581D01*
X0234691Y0278789D01*
X0235214Y0278069D01*
X0235843Y0277440D01*
X0236562Y0276918D01*
X0237355Y0276514D01*
X0238201Y0276239D01*
X0239079Y0276100D01*
X0239289Y0276100D01*
X0239289Y0281516D01*
X0239758Y0281516D01*
X0239758Y0281984D01*
X0245174Y0281984D01*
X0245174Y0282195D01*
X0245034Y0283073D01*
X0244760Y0283919D01*
X0244356Y0284711D01*
X0243833Y0285431D01*
X0243204Y0286060D01*
X0242485Y0286582D01*
X0241692Y0286986D01*
X0240847Y0287261D01*
X0239968Y0287400D01*
X0239758Y0287400D01*
X0239758Y0281984D01*
X0239289Y0281984D01*
X0239289Y0287400D01*
X0239079Y0287400D01*
X0238201Y0287261D01*
X0237355Y0286986D01*
X0239289Y0286969D02*
X0239758Y0286969D01*
X0239758Y0285470D02*
X0239289Y0285470D01*
X0239289Y0283972D02*
X0239758Y0283972D01*
X0239758Y0282473D02*
X0239289Y0282473D01*
X0239758Y0281516D02*
X0245174Y0281516D01*
X0245174Y0281305D01*
X0245034Y0280427D01*
X0244760Y0279581D01*
X0244356Y0278789D01*
X0243833Y0278069D01*
X0243204Y0277440D01*
X0242485Y0276918D01*
X0241692Y0276514D01*
X0240847Y0276239D01*
X0239968Y0276100D01*
X0239758Y0276100D01*
X0239758Y0281516D01*
X0239758Y0280975D02*
X0239289Y0280975D01*
X0239289Y0279476D02*
X0239758Y0279476D01*
X0239758Y0277978D02*
X0239289Y0277978D01*
X0239289Y0276479D02*
X0239758Y0276479D01*
X0241585Y0276479D02*
X0275956Y0276479D01*
X0274457Y0277978D02*
X0243741Y0277978D01*
X0244706Y0279476D02*
X0273701Y0279476D01*
X0273274Y0280975D02*
X0245121Y0280975D01*
X0245130Y0282473D02*
X0273274Y0282473D01*
X0273679Y0283972D02*
X0244733Y0283972D01*
X0243794Y0285470D02*
X0274405Y0285470D01*
X0275903Y0286969D02*
X0241727Y0286969D01*
X0244524Y0290750D02*
X0248524Y0290750D01*
X0284124Y0268950D01*
X0284177Y0255750D01*
X0283943Y0256998D02*
X0284411Y0256998D01*
X0284411Y0258497D02*
X0283943Y0258497D01*
X0290870Y0255750D02*
X0318524Y0255750D01*
X0317524Y0258750D01*
X0317524Y0262750D01*
X0321241Y0269759D01*
X0335524Y0269750D01*
X0339524Y0272750D01*
X0339524Y0304750D01*
X0336524Y0307750D01*
X0321524Y0307750D01*
X0325048Y0310945D02*
X0514289Y0310945D01*
X0514289Y0310984D02*
X0514289Y0310516D01*
X0508321Y0310516D01*
X0508321Y0310379D01*
X0508437Y0309645D01*
X0508667Y0308939D01*
X0509004Y0308277D01*
X0509440Y0307676D01*
X0509965Y0307151D01*
X0510566Y0306714D01*
X0511228Y0306377D01*
X0511934Y0306148D01*
X0512434Y0306068D01*
X0511981Y0306068D01*
X0510027Y0305259D01*
X0508531Y0303763D01*
X0507721Y0301808D01*
X0507721Y0299692D01*
X0508531Y0297737D01*
X0510027Y0296241D01*
X0511981Y0295431D01*
X0517066Y0295431D01*
X0519021Y0296241D01*
X0520517Y0297737D01*
X0521326Y0299692D01*
X0521326Y0301808D01*
X0520517Y0303763D01*
X0519021Y0305259D01*
X0517066Y0306068D01*
X0516613Y0306068D01*
X0517113Y0306148D01*
X0517819Y0306377D01*
X0518481Y0306714D01*
X0519082Y0307151D01*
X0519607Y0307676D01*
X0520043Y0308277D01*
X0520381Y0308939D01*
X0520610Y0309645D01*
X0520726Y0310379D01*
X0520726Y0310516D01*
X0514758Y0310516D01*
X0514758Y0310984D01*
X0520726Y0310984D01*
X0520726Y0311121D01*
X0520610Y0311855D01*
X0520381Y0312561D01*
X0520043Y0313223D01*
X0519607Y0313824D01*
X0519082Y0314349D01*
X0518481Y0314786D01*
X0517819Y0315123D01*
X0517113Y0315352D01*
X0516379Y0315468D01*
X0514758Y0315468D01*
X0514758Y0310984D01*
X0514289Y0310984D01*
X0508321Y0310984D01*
X0508321Y0311121D01*
X0508437Y0311855D01*
X0508667Y0312561D01*
X0509004Y0313223D01*
X0509440Y0313824D01*
X0509965Y0314349D01*
X0510566Y0314786D01*
X0511228Y0315123D01*
X0511934Y0315352D01*
X0512668Y0315468D01*
X0514289Y0315468D01*
X0514289Y0310984D01*
X0514758Y0310945D02*
X0532874Y0310945D01*
X0532874Y0312443D02*
X0520419Y0312443D01*
X0519489Y0313942D02*
X0532874Y0313942D01*
X0532874Y0315440D02*
X0516557Y0315440D01*
X0514758Y0315440D02*
X0514289Y0315440D01*
X0514289Y0313942D02*
X0514758Y0313942D01*
X0514758Y0312443D02*
X0514289Y0312443D01*
X0512490Y0315440D02*
X0279595Y0315440D01*
X0281888Y0313942D02*
X0309979Y0313942D01*
X0309926Y0313911D02*
X0309563Y0313548D01*
X0309306Y0313104D01*
X0309174Y0312608D01*
X0309174Y0311450D01*
X0313523Y0311450D01*
X0309174Y0311450D01*
X0309174Y0310292D01*
X0309306Y0309796D01*
X0309563Y0309352D01*
X0309926Y0308989D01*
X0310370Y0308733D01*
X0310865Y0308600D01*
X0313524Y0308600D01*
X0313524Y0311450D01*
X0313524Y0311450D01*
X0313524Y0311450D01*
X0313524Y0314300D01*
X0310865Y0314300D01*
X0310370Y0314167D01*
X0309926Y0313911D01*
X0309174Y0312443D02*
X0282956Y0312443D01*
X0283574Y0310945D02*
X0309174Y0310945D01*
X0309508Y0309446D02*
X0283574Y0309446D01*
X0283326Y0307948D02*
X0316574Y0307948D01*
X0317874Y0310945D02*
X0317999Y0310945D01*
X0317874Y0312443D02*
X0508628Y0312443D01*
X0509558Y0313942D02*
X0317068Y0313942D01*
X0313524Y0313942D02*
X0313524Y0313942D01*
X0313524Y0312443D02*
X0313524Y0312443D01*
X0313523Y0311450D02*
X0313523Y0311450D01*
X0313524Y0310945D02*
X0313524Y0310945D01*
X0313524Y0309446D02*
X0313524Y0309446D01*
X0313524Y0304050D02*
X0303724Y0304050D01*
X0301324Y0301650D01*
X0301324Y0286950D01*
X0297635Y0291464D02*
X0260440Y0291464D01*
X0261061Y0292963D02*
X0298224Y0292963D01*
X0298224Y0294461D02*
X0261324Y0294461D01*
X0261300Y0295960D02*
X0298224Y0295960D01*
X0298224Y0297458D02*
X0260680Y0297458D01*
X0259519Y0298957D02*
X0298224Y0298957D01*
X0298224Y0300455D02*
X0256906Y0300455D01*
X0254141Y0300455D02*
X0250624Y0300455D01*
X0250624Y0301954D02*
X0298224Y0301954D01*
X0298742Y0303452D02*
X0250624Y0303452D01*
X0251280Y0304951D02*
X0253767Y0304951D01*
X0251528Y0298957D02*
X0250701Y0298957D01*
X0247524Y0297750D02*
X0247524Y0309750D01*
X0251888Y0313942D02*
X0253159Y0313942D01*
X0255452Y0315440D02*
X0249595Y0315440D01*
X0245452Y0315440D02*
X0239595Y0315440D01*
X0241888Y0313942D02*
X0243159Y0313942D01*
X0243767Y0304951D02*
X0241280Y0304951D01*
X0247524Y0297750D02*
X0250524Y0294750D01*
X0255524Y0294750D01*
X0258942Y0289966D02*
X0296295Y0289966D01*
X0311524Y0288750D02*
X0316524Y0288750D01*
X0317524Y0287750D01*
X0326524Y0287750D01*
X0317524Y0287750D02*
X0317524Y0284081D01*
X0311524Y0288750D02*
X0305524Y0274750D01*
X0300524Y0274750D01*
X0296586Y0270485D02*
X0247669Y0270485D01*
X0246493Y0271984D02*
X0295392Y0271984D01*
X0294771Y0273482D02*
X0243841Y0273482D01*
X0241206Y0273482D02*
X0231176Y0273482D01*
X0230624Y0274981D02*
X0294724Y0274981D01*
X0294962Y0276479D02*
X0283092Y0276479D01*
X0284590Y0277978D02*
X0295583Y0277978D01*
X0304988Y0267488D02*
X0310624Y0267488D01*
X0309379Y0265989D02*
X0306460Y0265989D01*
X0310524Y0262750D02*
X0301524Y0262750D01*
X0310524Y0262750D02*
X0313724Y0265950D01*
X0313724Y0275753D01*
X0313783Y0275813D01*
X0321264Y0275813D02*
X0321241Y0269759D01*
X0322751Y0265989D02*
X0390881Y0265989D01*
X0390860Y0265981D02*
X0388793Y0263913D01*
X0387674Y0261212D01*
X0387674Y0258288D01*
X0388793Y0255587D01*
X0390860Y0253519D01*
X0393562Y0252400D01*
X0396486Y0252400D01*
X0399187Y0253519D01*
X0401255Y0255587D01*
X0402374Y0258288D01*
X0402374Y0261212D01*
X0401255Y0263913D01*
X0399187Y0265981D01*
X0396486Y0267100D01*
X0393562Y0267100D01*
X0390860Y0265981D01*
X0389370Y0264491D02*
X0321956Y0264491D01*
X0321161Y0262992D02*
X0388411Y0262992D01*
X0387790Y0261494D02*
X0328813Y0261494D01*
X0326235Y0261494D02*
X0320624Y0261494D01*
X0320624Y0259995D02*
X0323567Y0259995D01*
X0331481Y0259995D02*
X0387674Y0259995D01*
X0387674Y0258497D02*
X0332664Y0258497D01*
X0333284Y0256998D02*
X0388208Y0256998D01*
X0388879Y0255500D02*
X0333324Y0255500D01*
X0333077Y0254001D02*
X0390378Y0254001D01*
X0393313Y0252503D02*
X0332456Y0252503D01*
X0330980Y0251004D02*
X0509174Y0251004D01*
X0509174Y0251966D02*
X0509174Y0247534D01*
X0512308Y0244400D01*
X0516740Y0244400D01*
X0519874Y0247534D01*
X0519874Y0251966D01*
X0516740Y0255100D01*
X0512308Y0255100D01*
X0509174Y0251966D01*
X0509710Y0252503D02*
X0396734Y0252503D01*
X0399669Y0254001D02*
X0511209Y0254001D01*
X0509174Y0249506D02*
X0302152Y0249506D01*
X0303650Y0248007D02*
X0509174Y0248007D01*
X0510199Y0246509D02*
X0305149Y0246509D01*
X0306647Y0245010D02*
X0511697Y0245010D01*
X0517350Y0245010D02*
X0532874Y0245010D01*
X0532874Y0243512D02*
X0308146Y0243512D01*
X0309644Y0242013D02*
X0532874Y0242013D01*
X0532874Y0240515D02*
X0370961Y0240515D01*
X0372449Y0239016D02*
X0431790Y0239016D01*
X0431097Y0238729D02*
X0429395Y0237027D01*
X0428474Y0234803D01*
X0428474Y0228697D01*
X0429395Y0226473D01*
X0431097Y0224771D01*
X0433320Y0223850D01*
X0435727Y0223850D01*
X0437951Y0224771D01*
X0439524Y0226344D01*
X0441097Y0224771D01*
X0443320Y0223850D01*
X0445727Y0223850D01*
X0447951Y0224771D01*
X0449653Y0226473D01*
X0450574Y0228697D01*
X0450574Y0234803D01*
X0449653Y0237027D01*
X0447951Y0238729D01*
X0445727Y0239650D01*
X0443320Y0239650D01*
X0441097Y0238729D01*
X0439524Y0237156D01*
X0437951Y0238729D01*
X0435727Y0239650D01*
X0433320Y0239650D01*
X0431097Y0238729D01*
X0429885Y0237518D02*
X0373069Y0237518D01*
X0373324Y0236019D02*
X0428977Y0236019D01*
X0428474Y0234521D02*
X0373292Y0234521D01*
X0372672Y0233022D02*
X0428474Y0233022D01*
X0428474Y0231524D02*
X0371500Y0231524D01*
X0368859Y0230025D02*
X0428474Y0230025D01*
X0428544Y0228527D02*
X0362179Y0228527D01*
X0362385Y0227028D02*
X0429165Y0227028D01*
X0430338Y0225530D02*
X0362385Y0225530D01*
X0357870Y0225750D02*
X0357870Y0214750D01*
X0351524Y0214404D02*
X0351177Y0214750D01*
X0351177Y0209096D01*
X0352524Y0207750D01*
X0358524Y0207750D01*
X0364849Y0198556D02*
X0374727Y0198556D01*
X0375348Y0197058D02*
X0366600Y0197058D01*
X0386763Y0191064D02*
X0420635Y0191064D01*
X0422134Y0192562D02*
X0388561Y0192562D01*
X0390359Y0194061D02*
X0392719Y0194061D01*
X0397328Y0194061D02*
X0506212Y0194061D01*
X0506358Y0194413D02*
X0505416Y0192138D01*
X0505416Y0189676D01*
X0506358Y0187402D01*
X0508099Y0185661D01*
X0510373Y0184719D01*
X0516674Y0184719D01*
X0518948Y0185661D01*
X0520689Y0187402D01*
X0521631Y0189676D01*
X0521631Y0192138D01*
X0520689Y0194413D01*
X0518948Y0196154D01*
X0516674Y0197096D01*
X0510373Y0197096D01*
X0508099Y0196154D01*
X0506358Y0194413D01*
X0507504Y0195559D02*
X0413399Y0195559D01*
X0414699Y0197058D02*
X0510281Y0197058D01*
X0505591Y0192562D02*
X0428914Y0192562D01*
X0430412Y0191064D02*
X0505416Y0191064D01*
X0505462Y0189565D02*
X0431050Y0189565D01*
X0431324Y0188067D02*
X0506082Y0188067D01*
X0507191Y0186568D02*
X0431312Y0186568D01*
X0430691Y0185070D02*
X0509526Y0185070D01*
X0517521Y0185070D02*
X0532874Y0185070D01*
X0532874Y0186568D02*
X0519856Y0186568D01*
X0520965Y0188067D02*
X0532874Y0188067D01*
X0532874Y0189565D02*
X0521585Y0189565D01*
X0521631Y0191064D02*
X0532874Y0191064D01*
X0532874Y0192562D02*
X0521456Y0192562D01*
X0520835Y0194061D02*
X0532874Y0194061D01*
X0532874Y0195559D02*
X0519543Y0195559D01*
X0516766Y0197058D02*
X0532874Y0197058D01*
X0532874Y0198556D02*
X0415320Y0198556D01*
X0415374Y0200055D02*
X0532874Y0200055D01*
X0532874Y0201553D02*
X0415067Y0201553D01*
X0414288Y0203052D02*
X0532874Y0203052D01*
X0532874Y0204551D02*
X0517028Y0204551D01*
X0516674Y0204404D02*
X0518948Y0205346D01*
X0520689Y0207087D01*
X0521631Y0209362D01*
X0521631Y0211823D01*
X0520689Y0214098D01*
X0518948Y0215839D01*
X0516674Y0216781D01*
X0510373Y0216781D01*
X0508099Y0215839D01*
X0506358Y0214098D01*
X0505416Y0211823D01*
X0505416Y0209362D01*
X0506358Y0207087D01*
X0508099Y0205346D01*
X0510373Y0204404D01*
X0516674Y0204404D01*
X0519651Y0206049D02*
X0532874Y0206049D01*
X0532874Y0207548D02*
X0520880Y0207548D01*
X0521501Y0209046D02*
X0532874Y0209046D01*
X0532874Y0210545D02*
X0521631Y0210545D01*
X0521541Y0212043D02*
X0532874Y0212043D01*
X0532874Y0213542D02*
X0520920Y0213542D01*
X0519747Y0215040D02*
X0532874Y0215040D01*
X0532874Y0216539D02*
X0517259Y0216539D01*
X0509788Y0216539D02*
X0414378Y0216539D01*
X0415105Y0218037D02*
X0532874Y0218037D01*
X0532874Y0219536D02*
X0415374Y0219536D01*
X0415283Y0221034D02*
X0532874Y0221034D01*
X0532874Y0222533D02*
X0414662Y0222533D01*
X0413308Y0224031D02*
X0432883Y0224031D01*
X0436164Y0224031D02*
X0442883Y0224031D01*
X0440338Y0225530D02*
X0438709Y0225530D01*
X0446164Y0224031D02*
X0532874Y0224031D01*
X0532874Y0225530D02*
X0448709Y0225530D01*
X0449883Y0227028D02*
X0532874Y0227028D01*
X0532874Y0228527D02*
X0450503Y0228527D01*
X0450574Y0230025D02*
X0532874Y0230025D01*
X0532874Y0231524D02*
X0450574Y0231524D01*
X0450574Y0233022D02*
X0532874Y0233022D01*
X0532874Y0234521D02*
X0450574Y0234521D01*
X0450070Y0236019D02*
X0532874Y0236019D01*
X0532874Y0237518D02*
X0449162Y0237518D01*
X0447257Y0239016D02*
X0532874Y0239016D01*
X0532874Y0246509D02*
X0518848Y0246509D01*
X0519874Y0248007D02*
X0532874Y0248007D01*
X0532874Y0249506D02*
X0519874Y0249506D01*
X0519874Y0251004D02*
X0532874Y0251004D01*
X0532874Y0252503D02*
X0519337Y0252503D01*
X0517838Y0254001D02*
X0532874Y0254001D01*
X0532874Y0255500D02*
X0401168Y0255500D01*
X0401839Y0256998D02*
X0532874Y0256998D01*
X0532874Y0258497D02*
X0402374Y0258497D01*
X0402374Y0259995D02*
X0532874Y0259995D01*
X0532874Y0261494D02*
X0402257Y0261494D01*
X0401636Y0262992D02*
X0532874Y0262992D01*
X0532874Y0264491D02*
X0400677Y0264491D01*
X0399167Y0265989D02*
X0532874Y0265989D01*
X0532874Y0267488D02*
X0337674Y0267488D01*
X0339672Y0268987D02*
X0532874Y0268987D01*
X0532874Y0270485D02*
X0341670Y0270485D01*
X0342562Y0271984D02*
X0532874Y0271984D01*
X0532874Y0273482D02*
X0517615Y0273482D01*
X0517951Y0273621D02*
X0519653Y0275323D01*
X0520574Y0277547D01*
X0520574Y0279953D01*
X0519653Y0282177D01*
X0517951Y0283879D01*
X0515727Y0284800D01*
X0513320Y0284800D01*
X0511097Y0283879D01*
X0509524Y0282306D01*
X0507951Y0283879D01*
X0505727Y0284800D01*
X0503320Y0284800D01*
X0501097Y0283879D01*
X0499395Y0282177D01*
X0498474Y0279953D01*
X0498474Y0277547D01*
X0499395Y0275323D01*
X0501097Y0273621D01*
X0503320Y0272700D01*
X0505727Y0272700D01*
X0507951Y0273621D01*
X0509524Y0275194D01*
X0511097Y0273621D01*
X0513320Y0272700D01*
X0515727Y0272700D01*
X0517951Y0273621D01*
X0519310Y0274981D02*
X0532874Y0274981D01*
X0532874Y0276479D02*
X0520131Y0276479D01*
X0520574Y0277978D02*
X0532874Y0277978D01*
X0532874Y0279476D02*
X0520574Y0279476D01*
X0520151Y0280975D02*
X0532874Y0280975D01*
X0532874Y0282473D02*
X0519356Y0282473D01*
X0517727Y0283972D02*
X0532874Y0283972D01*
X0532874Y0285470D02*
X0485675Y0285470D01*
X0485441Y0286035D02*
X0486324Y0283904D01*
X0486324Y0281596D01*
X0485441Y0279465D01*
X0483809Y0277833D01*
X0481677Y0276950D01*
X0479370Y0276950D01*
X0477238Y0277833D01*
X0475607Y0279465D01*
X0475530Y0279650D01*
X0471045Y0279650D01*
X0470998Y0279536D01*
X0470281Y0278819D01*
X0469345Y0278431D01*
X0464395Y0278431D01*
X0463524Y0278792D01*
X0462652Y0278431D01*
X0457702Y0278431D01*
X0456766Y0278819D01*
X0456050Y0279536D01*
X0456002Y0279650D01*
X0397907Y0279650D01*
X0396768Y0280122D01*
X0385240Y0291650D01*
X0368517Y0291650D01*
X0368441Y0291465D01*
X0366809Y0289833D01*
X0364677Y0288950D01*
X0362370Y0288950D01*
X0360238Y0289833D01*
X0358607Y0291465D01*
X0357724Y0293596D01*
X0357724Y0295904D01*
X0358607Y0298035D01*
X0360238Y0299667D01*
X0362370Y0300550D01*
X0364677Y0300550D01*
X0366809Y0299667D01*
X0368441Y0298035D01*
X0368517Y0297850D01*
X0387140Y0297850D01*
X0388280Y0297378D01*
X0389152Y0296506D01*
X0399808Y0285850D01*
X0456002Y0285850D01*
X0456050Y0285964D01*
X0456766Y0286681D01*
X0457702Y0287068D01*
X0462652Y0287068D01*
X0463524Y0286708D01*
X0464395Y0287068D01*
X0469345Y0287068D01*
X0470281Y0286681D01*
X0470998Y0285964D01*
X0471045Y0285850D01*
X0475530Y0285850D01*
X0475607Y0286035D01*
X0477238Y0287667D01*
X0479370Y0288550D01*
X0481677Y0288550D01*
X0483809Y0287667D01*
X0485441Y0286035D01*
X0484507Y0286969D02*
X0532874Y0286969D01*
X0532874Y0288467D02*
X0481877Y0288467D01*
X0479170Y0288467D02*
X0397191Y0288467D01*
X0398689Y0286969D02*
X0457461Y0286969D01*
X0460177Y0282750D02*
X0398524Y0282750D01*
X0386524Y0294750D01*
X0363524Y0294750D01*
X0357724Y0294461D02*
X0342624Y0294461D01*
X0342624Y0292963D02*
X0357986Y0292963D01*
X0358607Y0291464D02*
X0342624Y0291464D01*
X0342624Y0289966D02*
X0360106Y0289966D01*
X0357747Y0295960D02*
X0342624Y0295960D01*
X0342624Y0297458D02*
X0358368Y0297458D01*
X0359528Y0298957D02*
X0342624Y0298957D01*
X0342624Y0300455D02*
X0362141Y0300455D01*
X0364906Y0300455D02*
X0507721Y0300455D01*
X0507781Y0301954D02*
X0342624Y0301954D01*
X0342624Y0303452D02*
X0508402Y0303452D01*
X0509719Y0304951D02*
X0342624Y0304951D01*
X0342175Y0306449D02*
X0511087Y0306449D01*
X0509243Y0307948D02*
X0340710Y0307948D01*
X0339211Y0309446D02*
X0508502Y0309446D01*
X0517961Y0306449D02*
X0532874Y0306449D01*
X0532874Y0304951D02*
X0519329Y0304951D01*
X0520645Y0303452D02*
X0532874Y0303452D01*
X0532874Y0301954D02*
X0521266Y0301954D01*
X0521326Y0300455D02*
X0532874Y0300455D01*
X0532874Y0298957D02*
X0521022Y0298957D01*
X0520238Y0297458D02*
X0532874Y0297458D01*
X0532874Y0295960D02*
X0518341Y0295960D01*
X0510706Y0295960D02*
X0389698Y0295960D01*
X0391196Y0294461D02*
X0532874Y0294461D01*
X0532874Y0292963D02*
X0392695Y0292963D01*
X0394193Y0291464D02*
X0532874Y0291464D01*
X0532874Y0289966D02*
X0395692Y0289966D01*
X0389921Y0286969D02*
X0342624Y0286969D01*
X0342624Y0288467D02*
X0388422Y0288467D01*
X0386924Y0289966D02*
X0366942Y0289966D01*
X0368440Y0291464D02*
X0385425Y0291464D01*
X0388086Y0297458D02*
X0508810Y0297458D01*
X0508025Y0298957D02*
X0367519Y0298957D01*
X0391419Y0285470D02*
X0342624Y0285470D01*
X0342624Y0283972D02*
X0392918Y0283972D01*
X0394416Y0282473D02*
X0342624Y0282473D01*
X0342624Y0280975D02*
X0395915Y0280975D01*
X0342624Y0279476D02*
X0456109Y0279476D01*
X0462893Y0286969D02*
X0464154Y0286969D01*
X0466870Y0282750D02*
X0480524Y0282750D01*
X0476540Y0286969D02*
X0469586Y0286969D01*
X0470938Y0279476D02*
X0475602Y0279476D01*
X0477094Y0277978D02*
X0342624Y0277978D01*
X0342624Y0276479D02*
X0498916Y0276479D01*
X0498474Y0277978D02*
X0483954Y0277978D01*
X0485445Y0279476D02*
X0498474Y0279476D01*
X0498897Y0280975D02*
X0486066Y0280975D01*
X0486324Y0282473D02*
X0499691Y0282473D01*
X0501320Y0283972D02*
X0486295Y0283972D01*
X0499737Y0274981D02*
X0342624Y0274981D01*
X0342624Y0273482D02*
X0501432Y0273482D01*
X0507615Y0273482D02*
X0511432Y0273482D01*
X0509737Y0274981D02*
X0509310Y0274981D01*
X0509356Y0282473D02*
X0509691Y0282473D01*
X0511320Y0283972D02*
X0507727Y0283972D01*
X0519804Y0307948D02*
X0532874Y0307948D01*
X0532874Y0309446D02*
X0520546Y0309446D01*
X0441790Y0239016D02*
X0437257Y0239016D01*
X0439162Y0237518D02*
X0439885Y0237518D01*
X0412633Y0215040D02*
X0507300Y0215040D01*
X0506127Y0213542D02*
X0413798Y0213542D01*
X0414865Y0212043D02*
X0505507Y0212043D01*
X0505416Y0210545D02*
X0415374Y0210545D01*
X0415374Y0209046D02*
X0505546Y0209046D01*
X0506167Y0207548D02*
X0414902Y0207548D01*
X0413889Y0206049D02*
X0507396Y0206049D01*
X0510019Y0204551D02*
X0412414Y0204551D01*
X0402760Y0203052D02*
X0397780Y0203052D01*
X0399363Y0201553D02*
X0401980Y0201553D01*
X0401674Y0200055D02*
X0399985Y0200055D01*
X0400145Y0198556D02*
X0401727Y0198556D01*
X0402348Y0197058D02*
X0399908Y0197058D01*
X0399176Y0195559D02*
X0403648Y0195559D01*
X0395024Y0198650D02*
X0391024Y0198650D01*
X0411047Y0183571D02*
X0421500Y0183571D01*
X0401077Y0164091D02*
X0532874Y0164091D01*
X0532874Y0165589D02*
X0399579Y0165589D01*
X0401802Y0162592D02*
X0532874Y0162592D01*
X0532874Y0161094D02*
X0402374Y0161094D01*
X0402374Y0159595D02*
X0532874Y0159595D01*
X0532874Y0158097D02*
X0402294Y0158097D01*
X0401674Y0156598D02*
X0532874Y0156598D01*
X0532874Y0155100D02*
X0400768Y0155100D01*
X0399269Y0153601D02*
X0532874Y0153601D01*
X0507815Y0147607D02*
X0291681Y0147607D01*
X0293681Y0146109D02*
X0507174Y0146109D01*
X0507174Y0144610D02*
X0295090Y0144610D01*
X0295710Y0143112D02*
X0507174Y0143112D01*
X0508095Y0141613D02*
X0296331Y0141613D01*
X0296374Y0140115D02*
X0509593Y0140115D01*
X0532874Y0071183D02*
X0116874Y0071183D01*
X0116874Y0069684D02*
X0532874Y0069684D01*
X0532874Y0068186D02*
X0116874Y0068186D01*
X0116874Y0066687D02*
X0532874Y0066687D01*
X0532874Y0065189D02*
X0116874Y0065189D01*
X0116874Y0063690D02*
X0532874Y0063690D01*
X0532874Y0062192D02*
X0116874Y0062192D01*
X0116874Y0060693D02*
X0532874Y0060693D01*
X0532874Y0059195D02*
X0116874Y0059195D01*
X0116874Y0057696D02*
X0532874Y0057696D01*
X0532874Y0056198D02*
X0116874Y0056198D01*
X0116874Y0054699D02*
X0532874Y0054699D01*
X0532874Y0053201D02*
X0116874Y0053201D01*
X0116874Y0051702D02*
X0532874Y0051702D01*
X0532874Y0050204D02*
X0116874Y0050204D01*
X0116874Y0048705D02*
X0532874Y0048705D01*
X0532874Y0047207D02*
X0116874Y0047207D01*
X0116874Y0045708D02*
X0532874Y0045708D01*
X0532874Y0044210D02*
X0116874Y0044210D01*
X0116874Y0042711D02*
X0532874Y0042711D01*
X0532874Y0041213D02*
X0116874Y0041213D01*
X0116874Y0039714D02*
X0532874Y0039714D01*
X0532874Y0038216D02*
X0116874Y0038216D01*
X0116874Y0036717D02*
X0532874Y0036717D01*
X0532874Y0035219D02*
X0116874Y0035219D01*
X0116874Y0033720D02*
X0532874Y0033720D01*
X0532874Y0032222D02*
X0116874Y0032222D01*
X0116874Y0030723D02*
X0532874Y0030723D01*
X0532874Y0029225D02*
X0116874Y0029225D01*
X0116874Y0027726D02*
X0532874Y0027726D01*
X0532874Y0026228D02*
X0116874Y0026228D01*
X0116874Y0024729D02*
X0322137Y0024729D01*
X0322443Y0024856D02*
X0319036Y0023444D01*
X0316428Y0020836D01*
X0315016Y0017429D01*
X0315016Y0013740D01*
X0316428Y0010333D01*
X0319036Y0007725D01*
X0322443Y0006313D01*
X0326132Y0006313D01*
X0329539Y0007725D01*
X0332147Y0010333D01*
X0333559Y0013740D01*
X0333559Y0017429D01*
X0332147Y0020836D01*
X0329539Y0023444D01*
X0326132Y0024856D01*
X0322443Y0024856D01*
X0318822Y0023231D02*
X0293554Y0023231D01*
X0294066Y0023018D02*
X0292192Y0023795D01*
X0290163Y0023795D01*
X0288288Y0023018D01*
X0286854Y0021584D01*
X0286077Y0019709D01*
X0286077Y0017680D01*
X0286854Y0015806D01*
X0288288Y0014371D01*
X0290163Y0013595D01*
X0292192Y0013595D01*
X0294066Y0014371D01*
X0295501Y0015806D01*
X0296277Y0017680D01*
X0296277Y0019709D01*
X0295501Y0021584D01*
X0294066Y0023018D01*
X0295352Y0021732D02*
X0317323Y0021732D01*
X0316178Y0020234D02*
X0296060Y0020234D01*
X0296277Y0018735D02*
X0315557Y0018735D01*
X0315016Y0017237D02*
X0296093Y0017237D01*
X0295433Y0015738D02*
X0315016Y0015738D01*
X0315016Y0014240D02*
X0293748Y0014240D01*
X0288606Y0014240D02*
X0280047Y0014240D01*
X0280365Y0014371D02*
X0281800Y0015806D01*
X0282576Y0017680D01*
X0282576Y0019709D01*
X0281800Y0021584D01*
X0280365Y0023018D01*
X0278491Y0023795D01*
X0276462Y0023795D01*
X0274587Y0023018D01*
X0273153Y0021584D01*
X0272376Y0019709D01*
X0272376Y0017680D01*
X0273153Y0015806D01*
X0274587Y0014371D01*
X0276462Y0013595D01*
X0278491Y0013595D01*
X0280365Y0014371D01*
X0281732Y0015738D02*
X0286921Y0015738D01*
X0286261Y0017237D02*
X0282393Y0017237D01*
X0282576Y0018735D02*
X0286077Y0018735D01*
X0286294Y0020234D02*
X0282359Y0020234D01*
X0281652Y0021732D02*
X0287002Y0021732D01*
X0288801Y0023231D02*
X0279853Y0023231D01*
X0275100Y0023231D02*
X0247676Y0023231D01*
X0250543Y0021732D02*
X0273301Y0021732D01*
X0272594Y0020234D02*
X0252041Y0020234D01*
X0253001Y0018735D02*
X0272376Y0018735D01*
X0272560Y0017237D02*
X0253621Y0017237D01*
X0254031Y0015738D02*
X0273221Y0015738D01*
X0274905Y0014240D02*
X0254031Y0014240D01*
X0254031Y0012741D02*
X0315430Y0012741D01*
X0316051Y0011243D02*
X0253486Y0011243D01*
X0252865Y0009744D02*
X0317016Y0009744D01*
X0318515Y0008246D02*
X0251713Y0008246D01*
X0250215Y0006747D02*
X0321396Y0006747D01*
X0327178Y0006747D02*
X0532874Y0006747D01*
X0532874Y0008246D02*
X0330060Y0008246D01*
X0331558Y0009744D02*
X0532874Y0009744D01*
X0532874Y0011243D02*
X0332524Y0011243D01*
X0333145Y0012741D02*
X0532874Y0012741D01*
X0532874Y0014240D02*
X0333559Y0014240D01*
X0333559Y0015738D02*
X0532874Y0015738D01*
X0532874Y0017237D02*
X0333559Y0017237D01*
X0333018Y0018735D02*
X0532874Y0018735D01*
X0532874Y0020234D02*
X0332397Y0020234D01*
X0331251Y0021732D02*
X0532874Y0021732D01*
X0532874Y0023231D02*
X0329753Y0023231D01*
X0326438Y0024729D02*
X0532874Y0024729D01*
X0387674Y0159595D02*
X0280674Y0159595D01*
X0265524Y0161750D02*
X0242524Y0161750D01*
X0280624Y0134120D02*
X0280637Y0134120D01*
X0280624Y0132622D02*
X0282136Y0132622D01*
X0280624Y0131123D02*
X0285224Y0131123D01*
X0271104Y0201553D02*
X0307943Y0201553D01*
X0309442Y0203052D02*
X0269606Y0203052D01*
X0268624Y0204551D02*
X0310940Y0204551D01*
X0312439Y0206049D02*
X0268624Y0206049D01*
X0272943Y0215040D02*
X0273411Y0215040D01*
X0273411Y0216539D02*
X0272943Y0216539D01*
X0284385Y0225530D02*
X0310360Y0225530D01*
X0308861Y0227028D02*
X0284385Y0227028D01*
X0284385Y0228527D02*
X0307363Y0228527D01*
X0305864Y0230025D02*
X0284385Y0230025D01*
X0284142Y0231524D02*
X0304366Y0231524D01*
X0302867Y0233022D02*
X0284142Y0233022D01*
X0284142Y0234521D02*
X0301369Y0234521D01*
X0299870Y0236019D02*
X0284142Y0236019D01*
X0283934Y0237518D02*
X0298372Y0237518D01*
X0296873Y0239016D02*
X0284142Y0239016D01*
X0284142Y0240515D02*
X0295375Y0240515D01*
X0293876Y0242013D02*
X0284142Y0242013D01*
X0279824Y0240496D02*
X0268777Y0240496D01*
X0267524Y0241750D01*
X0247760Y0241750D01*
X0241023Y0239016D02*
X0233271Y0239016D01*
X0233368Y0237518D02*
X0241079Y0237518D01*
X0241079Y0236019D02*
X0233368Y0236019D01*
X0233368Y0236750D02*
X0227288Y0236750D01*
X0233368Y0236750D01*
X0233234Y0234521D02*
X0241386Y0234521D01*
X0241079Y0233022D02*
X0233968Y0233022D01*
X0233968Y0231524D02*
X0241079Y0231524D01*
X0241177Y0230025D02*
X0233870Y0230025D01*
X0233848Y0228527D02*
X0241199Y0228527D01*
X0247760Y0226750D02*
X0247760Y0221750D01*
X0227287Y0231750D02*
X0218524Y0231750D01*
X0216524Y0229750D01*
X0216524Y0227750D01*
X0211165Y0225530D02*
X0200924Y0225530D01*
X0200831Y0227028D02*
X0210724Y0227028D01*
X0210724Y0228527D02*
X0200210Y0228527D01*
X0198951Y0230025D02*
X0211188Y0230025D01*
X0217112Y0234521D02*
X0167677Y0234521D01*
X0165924Y0242850D02*
X0166024Y0251800D01*
X0171024Y0251800D02*
X0171024Y0274250D01*
X0161024Y0263350D02*
X0161024Y0251800D01*
X0180924Y0251900D02*
X0181024Y0251800D01*
X0141589Y0273482D02*
X0138696Y0273482D01*
X0176280Y0304951D02*
X0178767Y0304951D01*
X0186280Y0304951D02*
X0188767Y0304951D01*
X0188159Y0313942D02*
X0186888Y0313942D01*
X0184595Y0315440D02*
X0190452Y0315440D01*
X0180452Y0315440D02*
X0174595Y0315440D01*
X0176888Y0313942D02*
X0178159Y0313942D01*
X0188191Y0288467D02*
X0216879Y0288467D01*
X0216424Y0286969D02*
X0189081Y0286969D01*
X0189124Y0285470D02*
X0216424Y0285470D01*
X0216424Y0283972D02*
X0189124Y0283972D01*
X0198524Y0276750D02*
X0205177Y0276750D01*
X0207879Y0280975D02*
X0209168Y0280975D01*
X0230624Y0280975D02*
X0233926Y0280975D01*
X0233918Y0282473D02*
X0230624Y0282473D01*
X0230948Y0283972D02*
X0234314Y0283972D01*
X0235253Y0285470D02*
X0232443Y0285470D01*
X0230624Y0279476D02*
X0234341Y0279476D01*
X0235306Y0277978D02*
X0230624Y0277978D01*
X0230624Y0276479D02*
X0237462Y0276479D01*
X0238555Y0271984D02*
X0232674Y0271984D01*
X0232524Y0267750D02*
X0242524Y0267750D01*
X0248072Y0265989D02*
X0249294Y0265989D01*
X0251480Y0259995D02*
X0257590Y0259995D01*
X0270524Y0251750D02*
X0272524Y0249750D01*
X0297524Y0249750D01*
X0311524Y0235750D01*
X0351177Y0235750D01*
X0351177Y0225750D01*
X0354277Y0230025D02*
X0355290Y0230025D01*
X0355172Y0231524D02*
X0354277Y0231524D01*
X0357870Y0235750D02*
X0367524Y0235750D01*
X0363547Y0231524D02*
X0360568Y0231524D01*
X0360450Y0230025D02*
X0366188Y0230025D01*
X0362599Y0239016D02*
X0361946Y0239016D01*
X0364086Y0240515D02*
X0311143Y0240515D01*
X0312641Y0239016D02*
X0347102Y0239016D01*
X0331524Y0227750D02*
X0344524Y0214750D01*
X0351177Y0214750D01*
X0324067Y0251004D02*
X0300653Y0251004D01*
X0298978Y0252503D02*
X0322591Y0252503D01*
X0318524Y0255750D02*
X0327524Y0255750D01*
X0272059Y0267488D02*
X0271474Y0267488D01*
X0234879Y0245010D02*
X0233864Y0245010D01*
X0233855Y0243512D02*
X0236378Y0243512D01*
X0237876Y0242013D02*
X0233968Y0242013D01*
X0233968Y0240515D02*
X0239375Y0240515D01*
X0227288Y0236750D02*
X0227288Y0236750D01*
X0261280Y0304951D02*
X0263767Y0304951D01*
X0271280Y0304951D02*
X0273767Y0304951D01*
X0281280Y0304951D02*
X0300240Y0304951D01*
X0301739Y0306449D02*
X0282705Y0306449D01*
X0273159Y0313942D02*
X0271888Y0313942D01*
X0269595Y0315440D02*
X0275452Y0315440D01*
X0265452Y0315440D02*
X0259595Y0315440D01*
X0261888Y0313942D02*
X0263159Y0313942D01*
X0241843Y0023231D02*
X0116874Y0023231D01*
X0116874Y0021732D02*
X0238977Y0021732D01*
X0237478Y0020234D02*
X0116874Y0020234D01*
X0116874Y0018735D02*
X0236519Y0018735D01*
X0235898Y0017237D02*
X0116874Y0017237D01*
X0116874Y0015738D02*
X0235489Y0015738D01*
X0235489Y0014240D02*
X0116874Y0014240D01*
X0116874Y0012741D02*
X0235489Y0012741D01*
X0236034Y0011243D02*
X0116874Y0011243D01*
X0116874Y0009744D02*
X0236655Y0009744D01*
X0237806Y0008246D02*
X0116874Y0008246D01*
X0116874Y0006747D02*
X0239305Y0006747D01*
D27*
X0230524Y0096750D03*
X0267524Y0140750D03*
X0242524Y0161750D03*
X0172524Y0144750D03*
X0150524Y0161750D03*
X0163524Y0197750D03*
X0141524Y0208750D03*
X0136524Y0240750D03*
X0165924Y0242850D03*
X0192024Y0258750D03*
X0201524Y0245750D03*
X0215524Y0252750D03*
X0213524Y0264750D03*
X0226524Y0264750D03*
X0242524Y0267750D03*
X0227524Y0288750D03*
X0216524Y0294750D03*
X0198524Y0276750D03*
X0161024Y0263350D03*
X0145524Y0277750D03*
X0216524Y0227750D03*
X0216524Y0214750D03*
X0234924Y0210750D03*
X0262524Y0221750D03*
X0289024Y0218050D03*
X0327524Y0255750D03*
X0301524Y0262750D03*
X0300524Y0274750D03*
X0301324Y0286950D03*
X0326524Y0287750D03*
X0363524Y0294750D03*
X0276524Y0263750D03*
X0244524Y0290750D03*
X0255524Y0294750D03*
X0195124Y0225650D03*
X0358524Y0207750D03*
X0369524Y0181750D03*
X0405524Y0181750D03*
X0425524Y0187750D03*
X0367524Y0235750D03*
X0480524Y0282750D03*
D28*
X0395024Y0198650D03*
M02*
