G75*
%MOIN*%
%OFA0B0*%
%FSLAX25Y25*%
%IPPOS*%
%LPD*%
%AMOC8*
5,1,8,0,0,1.08239X$1,22.5*
%
%ADD10C,0.08200*%
%ADD11OC8,0.06400*%
%ADD12C,0.10400*%
%ADD13C,0.07800*%
%ADD14C,0.06400*%
%ADD15C,0.13400*%
%ADD16C,0.05900*%
%ADD17C,0.14243*%
%ADD18C,0.08077*%
%ADD19C,0.06337*%
%ADD20C,0.07800*%
%ADD21C,0.07300*%
%ADD22C,0.05943*%
D10*
X0239524Y0281750D03*
X0279524Y0281750D03*
D11*
X0514524Y0249750D03*
X0512524Y0144750D03*
D12*
X0395024Y0159750D03*
X0395024Y0259750D03*
D13*
X0157524Y0119750D03*
X0167524Y0119750D03*
X0177524Y0119750D03*
X0187524Y0119750D03*
X0197524Y0119750D03*
X0207524Y0119750D03*
X0227524Y0119750D03*
X0237524Y0119750D03*
X0247524Y0119750D03*
X0257524Y0119750D03*
X0267524Y0119750D03*
X0277524Y0119750D03*
X0504524Y0278750D03*
X0514524Y0278750D03*
X0277524Y0309750D03*
X0267524Y0309750D03*
X0257524Y0309750D03*
X0247524Y0309750D03*
X0237524Y0309750D03*
X0227524Y0309750D03*
X0217524Y0309750D03*
X0207524Y0309750D03*
X0192524Y0309750D03*
X0182524Y0309750D03*
X0172524Y0309750D03*
X0162524Y0309750D03*
X0152524Y0309750D03*
X0142524Y0309750D03*
X0132524Y0309750D03*
X0122524Y0309750D03*
D14*
X0380024Y0219750D02*
X0383024Y0219750D01*
X0383024Y0209750D02*
X0380024Y0209750D01*
X0380024Y0199750D02*
X0383024Y0199750D01*
X0407024Y0199750D02*
X0410024Y0199750D01*
X0410024Y0209750D02*
X0407024Y0209750D01*
X0407024Y0219750D02*
X0410024Y0219750D01*
D15*
X0287524Y0139750D03*
X0087524Y0309750D03*
D16*
X0258055Y0081801D03*
X0268055Y0081801D03*
X0278055Y0081801D03*
X0288008Y0081801D03*
X0298008Y0081801D03*
X0308008Y0081801D03*
X0291177Y0018695D03*
X0277476Y0018695D03*
D17*
X0244760Y0014404D03*
X0324287Y0015585D03*
X0324287Y0082750D03*
X0244760Y0082750D03*
D18*
X0511604Y0190907D02*
X0515443Y0190907D01*
X0515443Y0210593D02*
X0511604Y0210593D01*
D19*
X0513039Y0300750D02*
X0516008Y0300750D01*
X0516008Y0310750D02*
X0513039Y0310750D01*
D20*
X0444524Y0233600D02*
X0444524Y0229900D01*
X0434524Y0229900D02*
X0434524Y0233600D01*
D21*
X0367524Y0235750D03*
X0327524Y0255750D03*
X0301524Y0262750D03*
X0300524Y0274750D03*
X0301324Y0286950D03*
X0326524Y0287750D03*
X0363524Y0294750D03*
X0276524Y0263750D03*
X0242524Y0267750D03*
X0226524Y0264750D03*
X0213524Y0264750D03*
X0215524Y0252750D03*
X0201524Y0245750D03*
X0192024Y0258750D03*
X0165924Y0242850D03*
X0136524Y0240750D03*
X0161024Y0263350D03*
X0145524Y0277750D03*
X0198524Y0276750D03*
X0216524Y0294750D03*
X0227524Y0288750D03*
X0244524Y0290750D03*
X0255524Y0294750D03*
X0216524Y0227750D03*
X0216524Y0214750D03*
X0234924Y0210750D03*
X0262524Y0221750D03*
X0289024Y0218050D03*
X0358524Y0207750D03*
X0369524Y0181750D03*
X0405524Y0181750D03*
X0425524Y0187750D03*
X0480524Y0282750D03*
X0267524Y0140750D03*
X0242524Y0161750D03*
X0172524Y0144750D03*
X0150524Y0161750D03*
X0163524Y0197750D03*
X0141524Y0208750D03*
X0195124Y0225650D03*
X0230524Y0096750D03*
D22*
X0395024Y0198650D03*
M02*
